STARTFONT 2.1
COMMENT
COMMENT Converted from OpenType font "sierra.ttf" by "otf2bdf 3.0".
COMMENT
FONT -FreeType-SierraSCIUnicode-Medium-R-Normal--16-160-72-72-P-67-ISO10646-1
SIZE 16 72 72
FONTBOUNDINGBOX 15 16 -1 -4
STARTPROPERTIES 19
FOUNDRY "FreeType"
FAMILY_NAME "SierraSCIUnicode"
WEIGHT_NAME "Medium"
SLANT "R"
SETWIDTH_NAME "Normal"
ADD_STYLE_NAME ""
PIXEL_SIZE 16
POINT_SIZE 160
RESOLUTION_X 72
RESOLUTION_Y 72
SPACING "P"
AVERAGE_WIDTH 67
CHARSET_REGISTRY "ISO10646"
CHARSET_ENCODING "1"
FONT_ASCENT 12
FONT_DESCENT 4
COPYRIGHT "Anonymous"
_OTF_FONTFILE "sierra.ttf"
_OTF_PSNAME "SierraSCIUnicode"
ENDPROPERTIES
CHARS 2203
STARTCHAR 0020
ENCODING 32
SWIDTH 312 0
DWIDTH 5 0
BBX 0 0 0 0
BITMAP
ENDCHAR
STARTCHAR 0021
ENCODING 33
SWIDTH 312 0
DWIDTH 5 0
BBX 2 7 2 0
BITMAP
C0
C0
C0
C0
C0
00
C0
ENDCHAR
STARTCHAR 0022
ENCODING 34
SWIDTH 437 0
DWIDTH 7 0
BBX 5 2 1 4
BITMAP
D8
D8
ENDCHAR
STARTCHAR 0023
ENCODING 35
SWIDTH 562 0
DWIDTH 9 0
BBX 7 7 1 0
BITMAP
6C
6C
FE
6C
6C
FE
6C
ENDCHAR
STARTCHAR 0024
ENCODING 36
SWIDTH 562 0
DWIDTH 9 0
BBX 7 7 1 0
BITMAP
10
7C
D2
7C
96
7C
10
ENDCHAR
STARTCHAR 0025
ENCODING 37
SWIDTH 625 0
DWIDTH 10 0
BBX 8 7 1 0
BITMAP
E3
A6
EC
18
37
65
C7
ENDCHAR
STARTCHAR 0026
ENCODING 38
SWIDTH 562 0
DWIDTH 9 0
BBX 7 7 1 0
BITMAP
70
D8
70
D8
CC
CE
78
ENDCHAR
STARTCHAR 0027
ENCODING 39
SWIDTH 312 0
DWIDTH 5 0
BBX 3 3 1 3
BITMAP
60
60
C0
ENDCHAR
STARTCHAR 0028
ENCODING 40
SWIDTH 375 0
DWIDTH 6 0
BBX 4 7 1 0
BITMAP
10
60
C0
C0
C0
60
10
ENDCHAR
STARTCHAR 0029
ENCODING 41
SWIDTH 375 0
DWIDTH 6 0
BBX 4 7 1 0
BITMAP
80
60
30
30
30
60
80
ENDCHAR
STARTCHAR 002A
ENCODING 42
SWIDTH 562 0
DWIDTH 9 0
BBX 7 5 1 1
BITMAP
54
38
FE
38
54
ENDCHAR
STARTCHAR 002B
ENCODING 43
SWIDTH 500 0
DWIDTH 8 0
BBX 6 5 1 1
BITMAP
30
30
FC
30
30
ENDCHAR
STARTCHAR 002C
ENCODING 44
SWIDTH 312 0
DWIDTH 5 0
BBX 3 3 1 -1
BITMAP
60
60
C0
ENDCHAR
STARTCHAR 002D
ENCODING 45
SWIDTH 500 0
DWIDTH 8 0
BBX 6 1 1 3
BITMAP
FC
ENDCHAR
STARTCHAR 002E
ENCODING 46
SWIDTH 312 0
DWIDTH 5 0
BBX 2 1 2 0
BITMAP
C0
ENDCHAR
STARTCHAR 002F
ENCODING 47
SWIDTH 562 0
DWIDTH 9 0
BBX 7 7 1 0
BITMAP
02
06
0C
18
30
60
C0
ENDCHAR
STARTCHAR 0030
ENCODING 48
SWIDTH 562 0
DWIDTH 9 0
BBX 7 7 1 0
BITMAP
7C
CE
DE
F6
E6
E6
7C
ENDCHAR
STARTCHAR 0031
ENCODING 49
SWIDTH 437 0
DWIDTH 7 0
BBX 5 7 1 0
BITMAP
30
70
F0
30
30
30
78
ENDCHAR
STARTCHAR 0032
ENCODING 50
SWIDTH 500 0
DWIDTH 8 0
BBX 6 7 1 0
BITMAP
78
CC
0C
38
60
C0
FC
ENDCHAR
STARTCHAR 0033
ENCODING 51
SWIDTH 562 0
DWIDTH 9 0
BBX 7 7 1 0
BITMAP
7C
C6
06
3C
06
C6
7C
ENDCHAR
STARTCHAR 0034
ENCODING 52
SWIDTH 562 0
DWIDTH 9 0
BBX 7 7 1 0
BITMAP
0E
1E
36
66
FE
06
06
ENDCHAR
STARTCHAR 0035
ENCODING 53
SWIDTH 562 0
DWIDTH 9 0
BBX 7 7 1 0
BITMAP
FE
C0
C0
FC
06
06
FC
ENDCHAR
STARTCHAR 0036
ENCODING 54
SWIDTH 562 0
DWIDTH 9 0
BBX 7 7 1 0
BITMAP
7C
C6
C0
FC
C6
C6
7C
ENDCHAR
STARTCHAR 0037
ENCODING 55
SWIDTH 562 0
DWIDTH 9 0
BBX 7 7 1 0
BITMAP
FE
06
0C
18
30
60
60
ENDCHAR
STARTCHAR 0038
ENCODING 56
SWIDTH 562 0
DWIDTH 9 0
BBX 7 7 1 0
BITMAP
7C
C6
C6
7C
C6
C6
7C
ENDCHAR
STARTCHAR 0039
ENCODING 57
SWIDTH 562 0
DWIDTH 9 0
BBX 7 7 1 0
BITMAP
7C
C6
C6
7E
06
C6
7C
ENDCHAR
STARTCHAR 003A
ENCODING 58
SWIDTH 375 0
DWIDTH 6 0
BBX 2 5 3 0
BITMAP
C0
C0
00
C0
C0
ENDCHAR
STARTCHAR 003B
ENCODING 59
SWIDTH 375 0
DWIDTH 6 0
BBX 3 6 2 -1
BITMAP
60
60
00
60
60
C0
ENDCHAR
STARTCHAR 003C
ENCODING 60
SWIDTH 437 0
DWIDTH 7 0
BBX 5 7 1 0
BITMAP
18
30
60
C0
60
30
18
ENDCHAR
STARTCHAR 003D
ENCODING 61
SWIDTH 500 0
DWIDTH 8 0
BBX 6 3 1 2
BITMAP
FC
00
FC
ENDCHAR
STARTCHAR 003E
ENCODING 62
SWIDTH 437 0
DWIDTH 7 0
BBX 5 7 1 0
BITMAP
C0
60
30
18
30
60
C0
ENDCHAR
STARTCHAR 003F
ENCODING 63
SWIDTH 500 0
DWIDTH 8 0
BBX 6 7 1 0
BITMAP
78
CC
0C
18
30
00
30
ENDCHAR
STARTCHAR 0040
ENCODING 64
SWIDTH 562 0
DWIDTH 9 0
BBX 7 7 1 0
BITMAP
7C
C6
9A
AA
AA
DE
78
ENDCHAR
STARTCHAR 0041
ENCODING 65
SWIDTH 500 0
DWIDTH 8 0
BBX 6 7 1 0
BITMAP
78
CC
CC
CC
FC
CC
CC
ENDCHAR
STARTCHAR 0042
ENCODING 66
SWIDTH 562 0
DWIDTH 9 0
BBX 7 7 1 0
BITMAP
FC
66
66
7C
66
66
FC
ENDCHAR
STARTCHAR 0043
ENCODING 67
SWIDTH 562 0
DWIDTH 9 0
BBX 7 7 1 0
BITMAP
7C
C6
C0
C0
C0
C6
7C
ENDCHAR
STARTCHAR 0044
ENCODING 68
SWIDTH 562 0
DWIDTH 9 0
BBX 7 7 1 0
BITMAP
FC
66
66
66
66
66
FC
ENDCHAR
STARTCHAR 0045
ENCODING 69
SWIDTH 562 0
DWIDTH 9 0
BBX 7 7 1 0
BITMAP
FE
62
68
78
68
62
FE
ENDCHAR
STARTCHAR 0046
ENCODING 70
SWIDTH 562 0
DWIDTH 9 0
BBX 7 7 1 0
BITMAP
FE
62
68
78
68
60
F0
ENDCHAR
STARTCHAR 0047
ENCODING 71
SWIDTH 562 0
DWIDTH 9 0
BBX 7 7 1 0
BITMAP
7C
C6
C0
DE
C6
C6
7C
ENDCHAR
STARTCHAR 0048
ENCODING 72
SWIDTH 562 0
DWIDTH 9 0
BBX 7 7 1 0
BITMAP
C6
C6
C6
FE
C6
C6
C6
ENDCHAR
STARTCHAR 0049
ENCODING 73
SWIDTH 375 0
DWIDTH 6 0
BBX 4 7 1 0
BITMAP
F0
60
60
60
60
60
F0
ENDCHAR
STARTCHAR 004A
ENCODING 74
SWIDTH 562 0
DWIDTH 9 0
BBX 7 7 1 0
BITMAP
1E
0C
0C
0C
0C
CC
78
ENDCHAR
STARTCHAR 004B
ENCODING 75
SWIDTH 562 0
DWIDTH 9 0
BBX 7 7 1 0
BITMAP
C6
CC
D8
F0
D8
CC
C6
ENDCHAR
STARTCHAR 004C
ENCODING 76
SWIDTH 562 0
DWIDTH 9 0
BBX 7 7 1 0
BITMAP
F0
60
60
60
60
62
FE
ENDCHAR
STARTCHAR 004D
ENCODING 77
SWIDTH 562 0
DWIDTH 9 0
BBX 7 7 1 0
BITMAP
C6
EE
FE
D6
C6
C6
C6
ENDCHAR
STARTCHAR 004E
ENCODING 78
SWIDTH 500 0
DWIDTH 8 0
BBX 6 7 1 0
BITMAP
CC
EC
FC
DC
CC
CC
CC
ENDCHAR
STARTCHAR 004F
ENCODING 79
SWIDTH 562 0
DWIDTH 9 0
BBX 7 7 1 0
BITMAP
7C
C6
C6
C6
C6
C6
7C
ENDCHAR
STARTCHAR 0050
ENCODING 80
SWIDTH 562 0
DWIDTH 9 0
BBX 7 7 1 0
BITMAP
FC
66
66
7C
60
60
F0
ENDCHAR
STARTCHAR 0051
ENCODING 81
SWIDTH 562 0
DWIDTH 9 0
BBX 7 8 1 -1
BITMAP
7C
C6
C6
C6
C6
CE
7C
06
ENDCHAR
STARTCHAR 0052
ENCODING 82
SWIDTH 562 0
DWIDTH 9 0
BBX 7 7 1 0
BITMAP
FC
66
66
7C
66
66
E6
ENDCHAR
STARTCHAR 0053
ENCODING 83
SWIDTH 500 0
DWIDTH 8 0
BBX 6 7 1 0
BITMAP
78
CC
C0
78
0C
CC
78
ENDCHAR
STARTCHAR 0054
ENCODING 84
SWIDTH 500 0
DWIDTH 8 0
BBX 6 7 1 0
BITMAP
FC
B4
30
30
30
30
78
ENDCHAR
STARTCHAR 0055
ENCODING 85
SWIDTH 500 0
DWIDTH 8 0
BBX 6 7 1 0
BITMAP
CC
CC
CC
CC
CC
CC
78
ENDCHAR
STARTCHAR 0056
ENCODING 86
SWIDTH 562 0
DWIDTH 9 0
BBX 7 7 1 0
BITMAP
C6
C6
C6
C6
C6
6C
38
ENDCHAR
STARTCHAR 0057
ENCODING 87
SWIDTH 562 0
DWIDTH 9 0
BBX 7 7 1 0
BITMAP
C6
C6
C6
C6
D6
EE
C6
ENDCHAR
STARTCHAR 0058
ENCODING 88
SWIDTH 562 0
DWIDTH 9 0
BBX 7 7 1 0
BITMAP
C6
6C
38
38
38
6C
C6
ENDCHAR
STARTCHAR 0059
ENCODING 89
SWIDTH 500 0
DWIDTH 8 0
BBX 6 7 1 0
BITMAP
CC
CC
CC
78
30
30
78
ENDCHAR
STARTCHAR 005A
ENCODING 90
SWIDTH 500 0
DWIDTH 8 0
BBX 6 7 1 0
BITMAP
FC
CC
18
30
60
CC
FC
ENDCHAR
STARTCHAR 005B
ENCODING 91
SWIDTH 375 0
DWIDTH 6 0
BBX 3 7 2 0
BITMAP
E0
C0
C0
C0
C0
C0
E0
ENDCHAR
STARTCHAR 005C
ENCODING 92
SWIDTH 562 0
DWIDTH 9 0
BBX 7 7 1 0
BITMAP
C0
60
30
18
0C
06
02
ENDCHAR
STARTCHAR 005D
ENCODING 93
SWIDTH 375 0
DWIDTH 6 0
BBX 3 7 2 0
BITMAP
E0
60
60
60
60
60
E0
ENDCHAR
STARTCHAR 005E
ENCODING 94
SWIDTH 562 0
DWIDTH 9 0
BBX 7 4 1 4
BITMAP
10
38
6C
C6
ENDCHAR
STARTCHAR 005F
ENCODING 95
SWIDTH 562 0
DWIDTH 9 0
BBX 7 1 1 -1
BITMAP
FE
ENDCHAR
STARTCHAR 0060
ENCODING 96
SWIDTH 312 0
DWIDTH 5 0
BBX 3 3 1 4
BITMAP
C0
C0
60
ENDCHAR
STARTCHAR 0061
ENCODING 97
SWIDTH 562 0
DWIDTH 9 0
BBX 7 5 1 0
BITMAP
78
0C
7C
CC
76
ENDCHAR
STARTCHAR 0062
ENCODING 98
SWIDTH 500 0
DWIDTH 8 0
BBX 6 7 1 0
BITMAP
C0
C0
F8
CC
CC
CC
F8
ENDCHAR
STARTCHAR 0063
ENCODING 99
SWIDTH 500 0
DWIDTH 8 0
BBX 6 5 1 0
BITMAP
78
CC
C0
CC
78
ENDCHAR
STARTCHAR 0064
ENCODING 100
SWIDTH 562 0
DWIDTH 9 0
BBX 7 7 1 0
BITMAP
0C
0C
7C
CC
CC
CC
76
ENDCHAR
STARTCHAR 0065
ENCODING 101
SWIDTH 500 0
DWIDTH 8 0
BBX 6 5 1 0
BITMAP
78
CC
FC
C0
78
ENDCHAR
STARTCHAR 0066
ENCODING 102
SWIDTH 437 0
DWIDTH 7 0
BBX 5 7 1 0
BITMAP
38
60
60
F0
60
60
60
ENDCHAR
STARTCHAR 0067
ENCODING 103
SWIDTH 500 0
DWIDTH 8 0
BBX 6 6 1 -1
BITMAP
78
CC
CC
7C
0C
78
ENDCHAR
STARTCHAR 0068
ENCODING 104
SWIDTH 500 0
DWIDTH 8 0
BBX 6 7 1 0
BITMAP
C0
C0
F8
CC
CC
CC
CC
ENDCHAR
STARTCHAR 0069
ENCODING 105
SWIDTH 375 0
DWIDTH 6 0
BBX 4 7 1 0
BITMAP
60
00
E0
60
60
60
F0
ENDCHAR
STARTCHAR 006A
ENCODING 106
SWIDTH 437 0
DWIDTH 7 0
BBX 5 8 1 -1
BITMAP
18
00
38
18
18
18
D8
70
ENDCHAR
STARTCHAR 006B
ENCODING 107
SWIDTH 500 0
DWIDTH 8 0
BBX 6 7 1 0
BITMAP
C0
CC
D8
F0
F0
D8
CC
ENDCHAR
STARTCHAR 006C
ENCODING 108
SWIDTH 375 0
DWIDTH 6 0
BBX 4 7 1 0
BITMAP
E0
60
60
60
60
60
F0
ENDCHAR
STARTCHAR 006D
ENCODING 109
SWIDTH 562 0
DWIDTH 9 0
BBX 7 5 1 0
BITMAP
EE
FE
D6
C6
C6
ENDCHAR
STARTCHAR 006E
ENCODING 110
SWIDTH 500 0
DWIDTH 8 0
BBX 6 5 1 0
BITMAP
F8
CC
CC
CC
CC
ENDCHAR
STARTCHAR 006F
ENCODING 111
SWIDTH 500 0
DWIDTH 8 0
BBX 6 5 1 0
BITMAP
78
CC
CC
CC
78
ENDCHAR
STARTCHAR 0070
ENCODING 112
SWIDTH 500 0
DWIDTH 8 0
BBX 6 6 1 -1
BITMAP
F8
CC
CC
F8
C0
C0
ENDCHAR
STARTCHAR 0071
ENCODING 113
SWIDTH 500 0
DWIDTH 8 0
BBX 6 6 1 -1
BITMAP
7C
CC
CC
7C
0C
0C
ENDCHAR
STARTCHAR 0072
ENCODING 114
SWIDTH 500 0
DWIDTH 8 0
BBX 6 5 1 0
BITMAP
DC
70
60
60
60
ENDCHAR
STARTCHAR 0073
ENCODING 115
SWIDTH 500 0
DWIDTH 8 0
BBX 6 5 1 0
BITMAP
7C
C0
78
0C
F8
ENDCHAR
STARTCHAR 0074
ENCODING 116
SWIDTH 375 0
DWIDTH 6 0
BBX 4 7 1 0
BITMAP
60
60
F0
60
60
60
30
ENDCHAR
STARTCHAR 0075
ENCODING 117
SWIDTH 500 0
DWIDTH 8 0
BBX 6 5 1 0
BITMAP
CC
CC
CC
CC
7C
ENDCHAR
STARTCHAR 0076
ENCODING 118
SWIDTH 500 0
DWIDTH 8 0
BBX 6 5 1 0
BITMAP
CC
CC
CC
78
30
ENDCHAR
STARTCHAR 0077
ENCODING 119
SWIDTH 562 0
DWIDTH 9 0
BBX 7 5 1 0
BITMAP
C6
C6
D6
FE
C6
ENDCHAR
STARTCHAR 0078
ENCODING 120
SWIDTH 500 0
DWIDTH 8 0
BBX 6 5 1 0
BITMAP
CC
78
30
78
CC
ENDCHAR
STARTCHAR 0079
ENCODING 121
SWIDTH 500 0
DWIDTH 8 0
BBX 6 6 1 -1
BITMAP
CC
CC
CC
7C
0C
F8
ENDCHAR
STARTCHAR 007A
ENCODING 122
SWIDTH 500 0
DWIDTH 8 0
BBX 6 5 1 0
BITMAP
FC
18
30
60
FC
ENDCHAR
STARTCHAR 007B
ENCODING 123
SWIDTH 500 0
DWIDTH 8 0
BBX 6 7 1 0
BITMAP
1C
30
30
E0
30
30
1C
ENDCHAR
STARTCHAR 007C
ENCODING 124
SWIDTH 312 0
DWIDTH 5 0
BBX 2 7 2 0
BITMAP
C0
C0
C0
00
C0
C0
C0
ENDCHAR
STARTCHAR 007D
ENCODING 125
SWIDTH 500 0
DWIDTH 8 0
BBX 6 7 1 0
BITMAP
E0
30
30
1C
30
30
E0
ENDCHAR
STARTCHAR 007E
ENCODING 126
SWIDTH 562 0
DWIDTH 9 0
BBX 7 2 1 5
BITMAP
76
DC
ENDCHAR
STARTCHAR 00A0
ENCODING 160
SWIDTH 312 0
DWIDTH 5 0
BBX 0 0 0 0
BITMAP
ENDCHAR
STARTCHAR 00A1
ENCODING 161
SWIDTH 312 0
DWIDTH 5 0
BBX 2 7 2 0
BITMAP
C0
00
C0
C0
C0
C0
C0
ENDCHAR
STARTCHAR 00A2
ENCODING 162
SWIDTH 437 0
DWIDTH 7 0
BBX 5 7 1 0
BITMAP
20
70
D8
C0
D8
70
20
ENDCHAR
STARTCHAR 00A3
ENCODING 163
SWIDTH 562 0
DWIDTH 9 0
BBX 7 7 1 0
BITMAP
18
24
60
70
60
66
BC
ENDCHAR
STARTCHAR 00A4
ENCODING 164
SWIDTH 500 0
DWIDTH 8 0
BBX 6 6 1 1
BITMAP
84
78
48
48
78
84
ENDCHAR
STARTCHAR 00A5
ENCODING 165
SWIDTH 562 0
DWIDTH 9 0
BBX 7 7 1 0
BITMAP
C6
6C
38
10
38
10
38
ENDCHAR
STARTCHAR 00A6
ENCODING 166
SWIDTH 375 0
DWIDTH 6 0
BBX 1 9 4 0
BITMAP
80
80
80
80
00
80
80
80
80
ENDCHAR
STARTCHAR 00A7
ENCODING 167
SWIDTH 625 0
DWIDTH 10 0
BBX 8 8 1 0
BITMAP
7E
C1
DC
E2
22
1F
83
7E
ENDCHAR
STARTCHAR 00A8
ENCODING 168
SWIDTH 562 0
DWIDTH 9 0
BBX 6 2 2 6
BITMAP
CC
CC
ENDCHAR
STARTCHAR 00A9
ENCODING 169
SWIDTH 625 0
DWIDTH 10 0
BBX 8 8 1 0
BITMAP
3C
42
99
A1
A1
99
42
3C
ENDCHAR
STARTCHAR 00AA
ENCODING 170
SWIDTH 562 0
DWIDTH 9 0
BBX 7 7 1 0
BITMAP
78
0C
7C
CC
76
00
FE
ENDCHAR
STARTCHAR 00AB
ENCODING 171
SWIDTH 625 0
DWIDTH 10 0
BBX 8 5 1 1
BITMAP
33
66
CC
66
33
ENDCHAR
STARTCHAR 00AC
ENCODING 172
SWIDTH 437 0
DWIDTH 7 0
BBX 5 2 1 3
BITMAP
F8
08
ENDCHAR
STARTCHAR 00AD
ENCODING 173
SWIDTH 375 0
DWIDTH 6 0
BBX 4 1 1 4
BITMAP
F0
ENDCHAR
STARTCHAR 00AE
ENCODING 174
SWIDTH 625 0
DWIDTH 10 0
BBX 8 8 1 0
BITMAP
3C
42
BD
BD
A9
A5
42
3C
ENDCHAR
STARTCHAR 00AF
ENCODING 175
SWIDTH 500 0
DWIDTH 8 0
BBX 6 1 1 7
BITMAP
FC
ENDCHAR
STARTCHAR 00B0
ENCODING 176
SWIDTH 375 0
DWIDTH 6 0
BBX 3 3 2 5
BITMAP
E0
A0
E0
ENDCHAR
STARTCHAR 00B1
ENCODING 177
SWIDTH 500 0
DWIDTH 8 0
BBX 6 7 1 0
BITMAP
30
30
FC
30
30
00
FC
ENDCHAR
STARTCHAR 00B2
ENCODING 178
SWIDTH 437 0
DWIDTH 7 0
BBX 4 5 2 3
BITMAP
F0
10
F0
80
F0
ENDCHAR
STARTCHAR 00B3
ENCODING 179
SWIDTH 437 0
DWIDTH 7 0
BBX 4 5 2 3
BITMAP
F0
10
F0
10
F0
ENDCHAR
STARTCHAR 00B4
ENCODING 180
SWIDTH 437 0
DWIDTH 7 0
BBX 3 2 3 7
BITMAP
60
C0
ENDCHAR
STARTCHAR 00B5
ENCODING 181
SWIDTH 500 0
DWIDTH 8 0
BBX 6 6 1 -1
BITMAP
CC
CC
CC
CC
F8
C0
ENDCHAR
STARTCHAR 00B6
ENCODING 182
SWIDTH 625 0
DWIDTH 10 0
BBX 8 8 1 0
BITMAP
FF
B6
76
36
36
36
36
36
ENDCHAR
STARTCHAR 00B7
ENCODING 183
SWIDTH 375 0
DWIDTH 6 0
BBX 2 2 3 3
BITMAP
C0
C0
ENDCHAR
STARTCHAR 00B8
ENCODING 184
SWIDTH 375 0
DWIDTH 6 0
BBX 3 3 2 -3
BITMAP
40
20
E0
ENDCHAR
STARTCHAR 00B9
ENCODING 185
SWIDTH 437 0
DWIDTH 7 0
BBX 4 5 2 3
BITMAP
E0
60
60
60
F0
ENDCHAR
STARTCHAR 00BA
ENCODING 186
SWIDTH 500 0
DWIDTH 8 0
BBX 6 7 1 0
BITMAP
78
CC
CC
CC
78
00
FC
ENDCHAR
STARTCHAR 00BB
ENCODING 187
SWIDTH 625 0
DWIDTH 10 0
BBX 8 5 1 1
BITMAP
CC
66
33
66
CC
ENDCHAR
STARTCHAR 00BC
ENCODING 188
SWIDTH 812 0
DWIDTH 13 0
BBX 11 9 1 0
BITMAP
2000
6000
A000
2000
F8C0
0140
0240
03E0
0040
ENDCHAR
STARTCHAR 00BD
ENCODING 189
SWIDTH 812 0
DWIDTH 13 0
BBX 11 9 1 0
BITMAP
2000
6000
A000
2000
F9C0
0220
00C0
0100
03E0
ENDCHAR
STARTCHAR 00BE
ENCODING 190
SWIDTH 812 0
DWIDTH 13 0
BBX 11 9 1 0
BITMAP
F800
1000
7000
0800
F0C0
0140
0240
03E0
0040
ENDCHAR
STARTCHAR 00BF
ENCODING 191
SWIDTH 500 0
DWIDTH 8 0
BBX 6 8 1 0
BITMAP
30
00
30
30
18
0C
CC
78
ENDCHAR
STARTCHAR 00C0
ENCODING 192
SWIDTH 500 0
DWIDTH 8 0
BBX 6 10 1 0
BITMAP
60
30
00
78
CC
CC
CC
FC
CC
CC
ENDCHAR
STARTCHAR 00C1
ENCODING 193
SWIDTH 500 0
DWIDTH 8 0
BBX 6 10 1 0
BITMAP
18
30
00
78
CC
CC
CC
FC
CC
CC
ENDCHAR
STARTCHAR 00C2
ENCODING 194
SWIDTH 500 0
DWIDTH 8 0
BBX 6 10 1 0
BITMAP
38
6C
00
78
CC
CC
CC
FC
CC
CC
ENDCHAR
STARTCHAR 00C3
ENCODING 195
SWIDTH 500 0
DWIDTH 8 0
BBX 6 10 1 0
BITMAP
E8
B8
00
78
CC
CC
CC
FC
CC
CC
ENDCHAR
STARTCHAR 00C4
ENCODING 196
SWIDTH 500 0
DWIDTH 8 0
BBX 6 10 1 0
BITMAP
CC
CC
00
78
CC
CC
CC
FC
CC
CC
ENDCHAR
STARTCHAR 00C5
ENCODING 197
SWIDTH 500 0
DWIDTH 8 0
BBX 6 11 1 0
BITMAP
70
50
70
00
78
CC
CC
CC
FC
CC
CC
ENDCHAR
STARTCHAR 00C6
ENCODING 198
SWIDTH 750 0
DWIDTH 12 0
BBX 10 7 1 0
BITMAP
7FC0
CC40
CD00
CF00
FD00
CC40
CFC0
ENDCHAR
STARTCHAR 00C7
ENCODING 199
SWIDTH 562 0
DWIDTH 9 0
BBX 7 10 1 -3
BITMAP
7C
C6
C0
C0
C0
C6
7C
10
08
38
ENDCHAR
STARTCHAR 00C8
ENCODING 200
SWIDTH 562 0
DWIDTH 9 0
BBX 7 10 1 0
BITMAP
30
18
00
FE
62
68
78
68
62
FE
ENDCHAR
STARTCHAR 00C9
ENCODING 201
SWIDTH 562 0
DWIDTH 9 0
BBX 7 10 1 0
BITMAP
18
30
00
FE
62
68
78
68
62
FE
ENDCHAR
STARTCHAR 00CA
ENCODING 202
SWIDTH 562 0
DWIDTH 9 0
BBX 7 10 1 0
BITMAP
18
24
00
FE
62
68
78
68
62
FE
ENDCHAR
STARTCHAR 00CB
ENCODING 203
SWIDTH 562 0
DWIDTH 9 0
BBX 7 9 1 0
BITMAP
28
00
FE
62
68
78
68
62
FE
ENDCHAR
STARTCHAR 00CC
ENCODING 204
SWIDTH 375 0
DWIDTH 6 0
BBX 4 10 1 0
BITMAP
C0
60
00
F0
60
60
60
60
60
F0
ENDCHAR
STARTCHAR 00CD
ENCODING 205
SWIDTH 375 0
DWIDTH 6 0
BBX 4 10 1 0
BITMAP
30
60
00
F0
60
60
60
60
60
F0
ENDCHAR
STARTCHAR 00CE
ENCODING 206
SWIDTH 375 0
DWIDTH 6 0
BBX 4 10 1 0
BITMAP
60
90
00
F0
60
60
60
60
60
F0
ENDCHAR
STARTCHAR 00CF
ENCODING 207
SWIDTH 375 0
DWIDTH 6 0
BBX 4 9 1 0
BITMAP
90
00
F0
60
60
60
60
60
F0
ENDCHAR
STARTCHAR 00D0
ENCODING 208
SWIDTH 562 0
DWIDTH 9 0
BBX 7 7 1 0
BITMAP
FC
66
66
F6
66
66
FC
ENDCHAR
STARTCHAR 00D1
ENCODING 209
SWIDTH 500 0
DWIDTH 8 0
BBX 6 10 1 0
BITMAP
28
50
00
CC
EC
FC
DC
CC
CC
CC
ENDCHAR
STARTCHAR 00D2
ENCODING 210
SWIDTH 562 0
DWIDTH 9 0
BBX 7 10 1 0
BITMAP
30
18
00
7C
C6
C6
C6
C6
C6
7C
ENDCHAR
STARTCHAR 00D3
ENCODING 211
SWIDTH 562 0
DWIDTH 9 0
BBX 7 10 1 0
BITMAP
18
30
00
7C
C6
C6
C6
C6
C6
7C
ENDCHAR
STARTCHAR 00D4
ENCODING 212
SWIDTH 562 0
DWIDTH 9 0
BBX 7 10 1 0
BITMAP
38
6C
00
7C
C6
C6
C6
C6
C6
7C
ENDCHAR
STARTCHAR 00D5
ENCODING 213
SWIDTH 562 0
DWIDTH 9 0
BBX 7 10 1 0
BITMAP
74
5C
00
7C
C6
C6
C6
C6
C6
7C
ENDCHAR
STARTCHAR 00D6
ENCODING 214
SWIDTH 562 0
DWIDTH 9 0
BBX 7 9 1 0
BITMAP
28
00
7C
C6
C6
C6
C6
C6
7C
ENDCHAR
STARTCHAR 00D7
ENCODING 215
SWIDTH 500 0
DWIDTH 8 0
BBX 5 5 2 1
BITMAP
88
50
20
50
88
ENDCHAR
STARTCHAR 00D8
ENCODING 216
SWIDTH 625 0
DWIDTH 10 0
BBX 9 8 0 0
BITMAP
0080
3F00
6700
6B00
7300
6300
6300
BE00
ENDCHAR
STARTCHAR 00D9
ENCODING 217
SWIDTH 500 0
DWIDTH 8 0
BBX 6 10 1 0
BITMAP
30
18
00
CC
CC
CC
CC
CC
CC
78
ENDCHAR
STARTCHAR 00DA
ENCODING 218
SWIDTH 500 0
DWIDTH 8 0
BBX 6 10 1 0
BITMAP
18
30
00
CC
CC
CC
CC
CC
CC
78
ENDCHAR
STARTCHAR 00DB
ENCODING 219
SWIDTH 500 0
DWIDTH 8 0
BBX 6 10 1 0
BITMAP
30
48
00
CC
CC
CC
CC
CC
CC
78
ENDCHAR
STARTCHAR 00DC
ENCODING 220
SWIDTH 500 0
DWIDTH 8 0
BBX 6 9 1 0
BITMAP
48
00
CC
CC
CC
CC
CC
CC
78
ENDCHAR
STARTCHAR 00DD
ENCODING 221
SWIDTH 500 0
DWIDTH 8 0
BBX 6 10 1 0
BITMAP
18
30
00
CC
CC
CC
78
30
30
78
ENDCHAR
STARTCHAR 00DE
ENCODING 222
SWIDTH 562 0
DWIDTH 9 0
BBX 7 7 1 0
BITMAP
F0
60
7C
66
7C
60
F0
ENDCHAR
STARTCHAR 00DF
ENCODING 223
SWIDTH 500 0
DWIDTH 8 0
BBX 6 7 1 0
BITMAP
78
CC
CC
D8
CC
CC
D8
ENDCHAR
STARTCHAR 00E0
ENCODING 224
SWIDTH 562 0
DWIDTH 9 0
BBX 7 8 1 0
BITMAP
30
18
00
78
0C
7C
CC
76
ENDCHAR
STARTCHAR 00E1
ENCODING 225
SWIDTH 562 0
DWIDTH 9 0
BBX 7 8 1 0
BITMAP
18
30
00
78
0C
7C
CC
76
ENDCHAR
STARTCHAR 00E2
ENCODING 226
SWIDTH 562 0
DWIDTH 9 0
BBX 7 8 1 0
BITMAP
38
6C
00
78
0C
7C
CC
76
ENDCHAR
STARTCHAR 00E3
ENCODING 227
SWIDTH 562 0
DWIDTH 9 0
BBX 7 8 1 0
BITMAP
74
5C
00
78
0C
7C
CC
76
ENDCHAR
STARTCHAR 00E4
ENCODING 228
SWIDTH 562 0
DWIDTH 9 0
BBX 7 8 1 0
BITMAP
6C
6C
00
78
0C
7C
CC
76
ENDCHAR
STARTCHAR 00E5
ENCODING 229
SWIDTH 562 0
DWIDTH 9 0
BBX 7 9 1 0
BITMAP
38
28
38
00
78
0C
7C
CC
76
ENDCHAR
STARTCHAR 00E6
ENCODING 230
SWIDTH 812 0
DWIDTH 13 0
BBX 11 5 1 0
BITMAP
7BC0
0E60
7FE0
CE00
77C0
ENDCHAR
STARTCHAR 00E7
ENCODING 231
SWIDTH 500 0
DWIDTH 8 0
BBX 6 8 1 -3
BITMAP
78
CC
C0
CC
78
20
10
70
ENDCHAR
STARTCHAR 00E8
ENCODING 232
SWIDTH 500 0
DWIDTH 8 0
BBX 6 8 1 0
BITMAP
60
30
00
78
CC
FC
C0
78
ENDCHAR
STARTCHAR 00E9
ENCODING 233
SWIDTH 500 0
DWIDTH 8 0
BBX 6 8 1 0
BITMAP
18
30
00
78
CC
FC
C0
78
ENDCHAR
STARTCHAR 00EA
ENCODING 234
SWIDTH 500 0
DWIDTH 8 0
BBX 6 8 1 0
BITMAP
30
48
00
78
CC
FC
C0
78
ENDCHAR
STARTCHAR 00EB
ENCODING 235
SWIDTH 500 0
DWIDTH 8 0
BBX 6 8 1 0
BITMAP
6C
6C
00
78
CC
FC
C0
78
ENDCHAR
STARTCHAR 00EC
ENCODING 236
SWIDTH 375 0
DWIDTH 6 0
BBX 4 8 1 0
BITMAP
C0
60
00
E0
60
60
60
F0
ENDCHAR
STARTCHAR 00ED
ENCODING 237
SWIDTH 375 0
DWIDTH 6 0
BBX 4 8 1 0
BITMAP
30
60
00
E0
60
60
60
F0
ENDCHAR
STARTCHAR 00EE
ENCODING 238
SWIDTH 375 0
DWIDTH 6 0
BBX 4 8 1 0
BITMAP
60
90
00
E0
60
60
60
F0
ENDCHAR
STARTCHAR 00EF
ENCODING 239
SWIDTH 437 0
DWIDTH 7 0
BBX 5 8 1 0
BITMAP
D8
D8
00
E0
60
60
60
F0
ENDCHAR
STARTCHAR 00F0
ENCODING 240
SWIDTH 500 0
DWIDTH 8 0
BBX 6 8 1 0
BITMAP
20
78
0C
7C
CC
CC
CC
78
ENDCHAR
STARTCHAR 00F1
ENCODING 241
SWIDTH 500 0
DWIDTH 8 0
BBX 6 8 1 0
BITMAP
74
5C
00
F8
CC
CC
CC
CC
ENDCHAR
STARTCHAR 00F2
ENCODING 242
SWIDTH 500 0
DWIDTH 8 0
BBX 6 8 1 0
BITMAP
60
30
00
78
CC
CC
CC
78
ENDCHAR
STARTCHAR 00F3
ENCODING 243
SWIDTH 500 0
DWIDTH 8 0
BBX 6 8 1 0
BITMAP
18
30
00
78
CC
CC
CC
78
ENDCHAR
STARTCHAR 00F4
ENCODING 244
SWIDTH 500 0
DWIDTH 8 0
BBX 6 8 1 0
BITMAP
30
48
00
78
CC
CC
CC
78
ENDCHAR
STARTCHAR 00F5
ENCODING 245
SWIDTH 500 0
DWIDTH 8 0
BBX 6 8 1 0
BITMAP
74
5C
00
78
CC
CC
CC
78
ENDCHAR
STARTCHAR 00F6
ENCODING 246
SWIDTH 500 0
DWIDTH 8 0
BBX 6 8 1 0
BITMAP
6C
6C
00
78
CC
CC
CC
78
ENDCHAR
STARTCHAR 00F7
ENCODING 247
SWIDTH 500 0
DWIDTH 8 0
BBX 6 5 1 1
BITMAP
30
00
FC
00
30
ENDCHAR
STARTCHAR 00F8
ENCODING 248
SWIDTH 500 0
DWIDTH 8 0
BBX 6 5 1 0
BITMAP
7C
DC
EC
CC
F8
ENDCHAR
STARTCHAR 00F9
ENCODING 249
SWIDTH 500 0
DWIDTH 8 0
BBX 6 8 1 0
BITMAP
60
30
00
CC
CC
CC
CC
7C
ENDCHAR
STARTCHAR 00FA
ENCODING 250
SWIDTH 500 0
DWIDTH 8 0
BBX 6 8 1 0
BITMAP
18
30
00
CC
CC
CC
CC
7C
ENDCHAR
STARTCHAR 00FB
ENCODING 251
SWIDTH 500 0
DWIDTH 8 0
BBX 6 8 1 0
BITMAP
30
48
00
CC
CC
CC
CC
7C
ENDCHAR
STARTCHAR 00FC
ENCODING 252
SWIDTH 500 0
DWIDTH 8 0
BBX 6 8 1 0
BITMAP
6C
6C
00
CC
CC
CC
CC
7C
ENDCHAR
STARTCHAR 00FD
ENCODING 253
SWIDTH 500 0
DWIDTH 8 0
BBX 6 9 1 -1
BITMAP
18
30
00
CC
CC
CC
7C
0C
F8
ENDCHAR
STARTCHAR 00FE
ENCODING 254
SWIDTH 500 0
DWIDTH 8 0
BBX 6 8 1 -1
BITMAP
C0
C0
F8
CC
CC
F8
C0
C0
ENDCHAR
STARTCHAR 00FF
ENCODING 255
SWIDTH 500 0
DWIDTH 8 0
BBX 6 9 1 -1
BITMAP
6C
6C
00
CC
CC
CC
7C
0C
F8
ENDCHAR
STARTCHAR 0100
ENCODING 256
SWIDTH 500 0
DWIDTH 8 0
BBX 6 9 1 0
BITMAP
78
00
78
CC
CC
CC
FC
CC
CC
ENDCHAR
STARTCHAR 0101
ENCODING 257
SWIDTH 562 0
DWIDTH 9 0
BBX 7 7 1 0
BITMAP
78
00
78
0C
7C
CC
76
ENDCHAR
STARTCHAR 0102
ENCODING 258
SWIDTH 500 0
DWIDTH 8 0
BBX 6 10 1 0
BITMAP
48
30
00
78
CC
CC
CC
FC
CC
CC
ENDCHAR
STARTCHAR 0103
ENCODING 259
SWIDTH 562 0
DWIDTH 9 0
BBX 7 8 1 0
BITMAP
48
30
00
78
0C
7C
CC
76
ENDCHAR
STARTCHAR 0104
ENCODING 260
SWIDTH 500 0
DWIDTH 8 0
BBX 6 9 1 -2
BITMAP
78
CC
CC
CC
FC
CC
CC
08
0C
ENDCHAR
STARTCHAR 0105
ENCODING 261
SWIDTH 562 0
DWIDTH 9 0
BBX 7 7 1 -2
BITMAP
78
0C
7C
CC
76
04
06
ENDCHAR
STARTCHAR 0106
ENCODING 262
SWIDTH 562 0
DWIDTH 9 0
BBX 7 10 1 0
BITMAP
18
30
00
7C
C6
C0
C0
C0
C6
7C
ENDCHAR
STARTCHAR 0107
ENCODING 263
SWIDTH 500 0
DWIDTH 8 0
BBX 6 8 1 0
BITMAP
18
30
00
78
CC
C0
CC
78
ENDCHAR
STARTCHAR 0108
ENCODING 264
SWIDTH 562 0
DWIDTH 9 0
BBX 7 10 1 0
BITMAP
18
24
00
7C
C6
C0
C0
C0
C6
7C
ENDCHAR
STARTCHAR 0109
ENCODING 265
SWIDTH 500 0
DWIDTH 8 0
BBX 6 8 1 0
BITMAP
30
48
00
78
CC
C0
CC
78
ENDCHAR
STARTCHAR 010A
ENCODING 266
SWIDTH 562 0
DWIDTH 9 0
BBX 7 10 1 0
BITMAP
18
18
00
7C
C6
C0
C0
C0
C6
7C
ENDCHAR
STARTCHAR 010B
ENCODING 267
SWIDTH 500 0
DWIDTH 8 0
BBX 6 7 1 0
BITMAP
30
00
78
CC
C0
CC
78
ENDCHAR
STARTCHAR 010C
ENCODING 268
SWIDTH 562 0
DWIDTH 9 0
BBX 7 10 1 0
BITMAP
6C
38
00
7C
C6
C0
C0
C0
C6
7C
ENDCHAR
STARTCHAR 010D
ENCODING 269
SWIDTH 500 0
DWIDTH 8 0
BBX 6 8 1 0
BITMAP
6C
38
00
78
CC
C0
CC
78
ENDCHAR
STARTCHAR 010E
ENCODING 270
SWIDTH 562 0
DWIDTH 9 0
BBX 7 10 1 0
BITMAP
6C
38
00
FC
66
66
66
66
66
FC
ENDCHAR
STARTCHAR 010F
ENCODING 271
SWIDTH 687 0
DWIDTH 11 0
BBX 9 7 1 0
BITMAP
0D80
0C80
7D00
CC00
CC00
CC00
7600
ENDCHAR
STARTCHAR 0110
ENCODING 272
SWIDTH 562 0
DWIDTH 9 0
BBX 7 7 1 0
BITMAP
FC
66
66
F6
66
66
FC
ENDCHAR
STARTCHAR 0111
ENCODING 273
SWIDTH 562 0
DWIDTH 9 0
BBX 7 7 1 0
BITMAP
1E
0C
7C
CC
CC
CC
76
ENDCHAR
STARTCHAR 0112
ENCODING 274
SWIDTH 562 0
DWIDTH 9 0
BBX 7 9 1 0
BITMAP
7C
00
FE
62
68
78
68
62
FE
ENDCHAR
STARTCHAR 0113
ENCODING 275
SWIDTH 500 0
DWIDTH 8 0
BBX 6 7 1 0
BITMAP
78
00
78
CC
FC
C0
78
ENDCHAR
STARTCHAR 0114
ENCODING 276
SWIDTH 562 0
DWIDTH 9 0
BBX 7 10 1 0
BITMAP
24
18
00
FE
62
68
78
68
62
FE
ENDCHAR
STARTCHAR 0115
ENCODING 277
SWIDTH 500 0
DWIDTH 8 0
BBX 6 8 1 0
BITMAP
48
30
00
78
CC
FC
C0
78
ENDCHAR
STARTCHAR 0116
ENCODING 278
SWIDTH 562 0
DWIDTH 9 0
BBX 7 10 1 0
BITMAP
18
18
00
FE
62
68
78
68
62
FE
ENDCHAR
STARTCHAR 0117
ENCODING 279
SWIDTH 500 0
DWIDTH 8 0
BBX 6 7 1 0
BITMAP
30
00
78
CC
FC
C0
78
ENDCHAR
STARTCHAR 0118
ENCODING 280
SWIDTH 562 0
DWIDTH 9 0
BBX 7 9 1 -2
BITMAP
FE
62
68
78
68
62
FE
04
06
ENDCHAR
STARTCHAR 0119
ENCODING 281
SWIDTH 500 0
DWIDTH 8 0
BBX 6 7 1 -2
BITMAP
78
CC
FC
C0
78
08
0C
ENDCHAR
STARTCHAR 011A
ENCODING 282
SWIDTH 562 0
DWIDTH 9 0
BBX 7 10 1 0
BITMAP
6C
38
00
FE
62
68
78
68
62
FE
ENDCHAR
STARTCHAR 011B
ENCODING 283
SWIDTH 500 0
DWIDTH 8 0
BBX 6 8 1 0
BITMAP
6C
38
00
78
CC
FC
C0
78
ENDCHAR
STARTCHAR 011C
ENCODING 284
SWIDTH 562 0
DWIDTH 9 0
BBX 7 10 1 0
BITMAP
38
6C
00
7C
C6
C0
DE
C6
C6
7C
ENDCHAR
STARTCHAR 011D
ENCODING 285
SWIDTH 500 0
DWIDTH 8 0
BBX 6 9 1 -1
BITMAP
38
6C
00
78
CC
CC
7C
0C
78
ENDCHAR
STARTCHAR 011E
ENCODING 286
SWIDTH 562 0
DWIDTH 9 0
BBX 7 10 1 0
BITMAP
66
3C
00
7C
C6
C0
DE
C6
C6
7C
ENDCHAR
STARTCHAR 011F
ENCODING 287
SWIDTH 500 0
DWIDTH 8 0
BBX 6 9 1 -1
BITMAP
48
30
00
78
CC
CC
7C
0C
78
ENDCHAR
STARTCHAR 0120
ENCODING 288
SWIDTH 562 0
DWIDTH 9 0
BBX 7 9 1 0
BITMAP
18
00
7C
C6
C0
DE
C6
C6
7C
ENDCHAR
STARTCHAR 0121
ENCODING 289
SWIDTH 500 0
DWIDTH 8 0
BBX 6 8 1 -1
BITMAP
30
00
78
CC
CC
7C
0C
78
ENDCHAR
STARTCHAR 0122
ENCODING 290
SWIDTH 562 0
DWIDTH 9 0
BBX 7 10 1 -3
BITMAP
7C
C6
C0
DE
C6
C6
7C
10
08
38
ENDCHAR
STARTCHAR 0123
ENCODING 291
SWIDTH 500 0
DWIDTH 8 0
BBX 6 10 1 -1
BITMAP
10
20
30
00
78
CC
CC
7C
0C
78
ENDCHAR
STARTCHAR 0124
ENCODING 292
SWIDTH 562 0
DWIDTH 9 0
BBX 7 10 1 0
BITMAP
10
28
00
C6
C6
C6
FE
C6
C6
C6
ENDCHAR
STARTCHAR 0125
ENCODING 293
SWIDTH 500 0
DWIDTH 8 0
BBX 6 10 1 0
BITMAP
10
28
00
C0
C0
F8
CC
CC
CC
CC
ENDCHAR
STARTCHAR 0126
ENCODING 294
SWIDTH 687 0
DWIDTH 11 0
BBX 9 7 1 0
BITMAP
6300
FF80
6300
7F00
6300
6300
6300
ENDCHAR
STARTCHAR 0127
ENCODING 295
SWIDTH 562 0
DWIDTH 9 0
BBX 7 7 1 0
BITMAP
F0
60
7C
66
66
66
66
ENDCHAR
STARTCHAR 0128
ENCODING 296
SWIDTH 437 0
DWIDTH 7 0
BBX 5 10 1 0
BITMAP
E8
B8
00
F0
60
60
60
60
60
F0
ENDCHAR
STARTCHAR 0129
ENCODING 297
SWIDTH 437 0
DWIDTH 7 0
BBX 5 8 1 0
BITMAP
E8
B8
00
E0
60
60
60
F0
ENDCHAR
STARTCHAR 012A
ENCODING 298
SWIDTH 375 0
DWIDTH 6 0
BBX 4 9 1 0
BITMAP
F0
00
F0
60
60
60
60
60
F0
ENDCHAR
STARTCHAR 012B
ENCODING 299
SWIDTH 375 0
DWIDTH 6 0
BBX 4 7 1 0
BITMAP
F0
00
E0
60
60
60
F0
ENDCHAR
STARTCHAR 012C
ENCODING 300
SWIDTH 375 0
DWIDTH 6 0
BBX 4 10 1 0
BITMAP
90
60
00
F0
60
60
60
60
60
F0
ENDCHAR
STARTCHAR 012D
ENCODING 301
SWIDTH 375 0
DWIDTH 6 0
BBX 4 8 1 0
BITMAP
90
60
00
E0
60
60
60
F0
ENDCHAR
STARTCHAR 012E
ENCODING 302
SWIDTH 375 0
DWIDTH 6 0
BBX 4 9 1 -2
BITMAP
F0
60
60
60
60
60
F0
40
30
ENDCHAR
STARTCHAR 012F
ENCODING 303
SWIDTH 375 0
DWIDTH 6 0
BBX 4 9 1 -2
BITMAP
60
00
E0
60
60
60
F0
40
30
ENDCHAR
STARTCHAR 0130
ENCODING 304
SWIDTH 375 0
DWIDTH 6 0
BBX 4 9 1 0
BITMAP
60
00
F0
60
60
60
60
60
F0
ENDCHAR
STARTCHAR 0131
ENCODING 305
SWIDTH 375 0
DWIDTH 6 0
BBX 4 5 1 0
BITMAP
E0
60
60
60
F0
ENDCHAR
STARTCHAR 0132
ENCODING 306
SWIDTH 812 0
DWIDTH 13 0
BBX 11 7 1 0
BITMAP
F1E0
60C0
60C0
60C0
60C0
66C0
F380
ENDCHAR
STARTCHAR 0133
ENCODING 307
SWIDTH 625 0
DWIDTH 10 0
BBX 8 8 1 -1
BITMAP
63
00
E7
63
63
63
FB
0E
ENDCHAR
STARTCHAR 0134
ENCODING 308
SWIDTH 562 0
DWIDTH 9 0
BBX 7 10 1 0
BITMAP
0C
12
00
1E
0C
0C
0C
0C
CC
78
ENDCHAR
STARTCHAR 0135
ENCODING 309
SWIDTH 500 0
DWIDTH 8 0
BBX 6 9 1 -1
BITMAP
18
24
00
38
18
18
18
D8
70
ENDCHAR
STARTCHAR 0136
ENCODING 310
SWIDTH 562 0
DWIDTH 9 0
BBX 7 10 1 -3
BITMAP
C6
CC
D8
F0
D8
CC
C6
18
08
10
ENDCHAR
STARTCHAR 0137
ENCODING 311
SWIDTH 500 0
DWIDTH 8 0
BBX 6 10 1 -3
BITMAP
C0
CC
D8
F0
F0
D8
CC
30
10
20
ENDCHAR
STARTCHAR 0138
ENCODING 312
SWIDTH 500 0
DWIDTH 8 0
BBX 6 5 1 0
BITMAP
CC
D8
F0
D8
CC
ENDCHAR
STARTCHAR 0139
ENCODING 313
SWIDTH 562 0
DWIDTH 9 0
BBX 7 10 1 0
BITMAP
18
30
00
F0
60
60
60
60
62
FE
ENDCHAR
STARTCHAR 013A
ENCODING 314
SWIDTH 375 0
DWIDTH 6 0
BBX 4 10 1 0
BITMAP
30
60
00
E0
60
60
60
60
60
F0
ENDCHAR
STARTCHAR 013B
ENCODING 315
SWIDTH 562 0
DWIDTH 9 0
BBX 7 9 1 -2
BITMAP
F0
60
60
60
60
62
FE
18
30
ENDCHAR
STARTCHAR 013C
ENCODING 316
SWIDTH 375 0
DWIDTH 6 0
BBX 4 10 1 -3
BITMAP
E0
60
60
60
60
60
F0
60
20
40
ENDCHAR
STARTCHAR 013D
ENCODING 317
SWIDTH 562 0
DWIDTH 9 0
BBX 7 7 1 0
BITMAP
F6
62
64
60
60
62
FE
ENDCHAR
STARTCHAR 013E
ENCODING 318
SWIDTH 500 0
DWIDTH 8 0
BBX 6 7 1 0
BITMAP
EC
64
68
60
60
60
F0
ENDCHAR
STARTCHAR 013F
ENCODING 319
SWIDTH 562 0
DWIDTH 9 0
BBX 7 7 1 0
BITMAP
F0
60
6C
6C
60
62
FE
ENDCHAR
STARTCHAR 0140
ENCODING 320
SWIDTH 500 0
DWIDTH 8 0
BBX 6 7 1 0
BITMAP
E0
60
6C
6C
60
60
F0
ENDCHAR
STARTCHAR 0141
ENCODING 321
SWIDTH 562 0
DWIDTH 9 0
BBX 7 7 1 0
BITMAP
F0
60
60
70
E0
62
FE
ENDCHAR
STARTCHAR 0142
ENCODING 322
SWIDTH 375 0
DWIDTH 6 0
BBX 4 7 1 0
BITMAP
E0
60
70
E0
60
60
F0
ENDCHAR
STARTCHAR 0143
ENCODING 323
SWIDTH 500 0
DWIDTH 8 0
BBX 6 10 1 0
BITMAP
10
20
00
CC
EC
FC
DC
CC
CC
CC
ENDCHAR
STARTCHAR 0144
ENCODING 324
SWIDTH 500 0
DWIDTH 8 0
BBX 6 8 1 0
BITMAP
18
30
00
F8
CC
CC
CC
CC
ENDCHAR
STARTCHAR 0145
ENCODING 325
SWIDTH 500 0
DWIDTH 8 0
BBX 6 9 1 -2
BITMAP
CC
EC
FC
DC
CC
CC
CC
10
20
ENDCHAR
STARTCHAR 0146
ENCODING 326
SWIDTH 500 0
DWIDTH 8 0
BBX 6 7 1 -2
BITMAP
F8
CC
CC
CC
CC
30
60
ENDCHAR
STARTCHAR 0147
ENCODING 327
SWIDTH 500 0
DWIDTH 8 0
BBX 6 10 1 0
BITMAP
28
10
00
CC
EC
FC
DC
CC
CC
CC
ENDCHAR
STARTCHAR 0148
ENCODING 328
SWIDTH 500 0
DWIDTH 8 0
BBX 6 8 1 0
BITMAP
6C
38
00
F8
CC
CC
CC
CC
ENDCHAR
STARTCHAR 0149
ENCODING 329
SWIDTH 500 0
DWIDTH 8 0
BBX 6 8 1 0
BITMAP
C0
40
80
F8
CC
CC
CC
CC
ENDCHAR
STARTCHAR 014A
ENCODING 330
SWIDTH 500 0
DWIDTH 8 0
BBX 6 9 1 -2
BITMAP
CC
EC
FC
DC
CC
CC
CC
0C
18
ENDCHAR
STARTCHAR 014B
ENCODING 331
SWIDTH 500 0
DWIDTH 8 0
BBX 6 7 1 -2
BITMAP
F8
CC
CC
CC
CC
0C
78
ENDCHAR
STARTCHAR 014C
ENCODING 332
SWIDTH 562 0
DWIDTH 9 0
BBX 7 9 1 0
BITMAP
7C
00
7C
C6
C6
C6
C6
C6
7C
ENDCHAR
STARTCHAR 014D
ENCODING 333
SWIDTH 500 0
DWIDTH 8 0
BBX 6 7 1 0
BITMAP
78
00
78
CC
CC
CC
78
ENDCHAR
STARTCHAR 014E
ENCODING 334
SWIDTH 562 0
DWIDTH 9 0
BBX 7 10 1 0
BITMAP
44
38
00
7C
C6
C6
C6
C6
C6
7C
ENDCHAR
STARTCHAR 014F
ENCODING 335
SWIDTH 500 0
DWIDTH 8 0
BBX 6 8 1 0
BITMAP
48
30
00
78
CC
CC
CC
78
ENDCHAR
STARTCHAR 0150
ENCODING 336
SWIDTH 562 0
DWIDTH 9 0
BBX 7 10 1 0
BITMAP
36
6C
00
7C
C6
C6
C6
C6
C6
7C
ENDCHAR
STARTCHAR 0151
ENCODING 337
SWIDTH 500 0
DWIDTH 8 0
BBX 6 8 1 0
BITMAP
28
50
00
78
CC
CC
CC
78
ENDCHAR
STARTCHAR 0152
ENCODING 338
SWIDTH 812 0
DWIDTH 13 0
BBX 11 7 1 0
BITMAP
7FE0
C620
C680
C780
C680
C620
7FE0
ENDCHAR
STARTCHAR 0153
ENCODING 339
SWIDTH 750 0
DWIDTH 12 0
BBX 10 5 1 0
BITMAP
7F80
CCC0
CFC0
CC00
7F80
ENDCHAR
STARTCHAR 0154
ENCODING 340
SWIDTH 562 0
DWIDTH 9 0
BBX 7 10 1 0
BITMAP
18
30
00
FC
66
66
7C
66
66
E6
ENDCHAR
STARTCHAR 0155
ENCODING 341
SWIDTH 500 0
DWIDTH 8 0
BBX 6 8 1 0
BITMAP
18
30
00
DC
70
60
60
60
ENDCHAR
STARTCHAR 0156
ENCODING 342
SWIDTH 562 0
DWIDTH 9 0
BBX 7 10 1 -3
BITMAP
FC
66
66
7C
66
66
E6
10
08
30
ENDCHAR
STARTCHAR 0157
ENCODING 343
SWIDTH 500 0
DWIDTH 8 0
BBX 6 8 1 -3
BITMAP
DC
70
60
60
60
18
0C
38
ENDCHAR
STARTCHAR 0158
ENCODING 344
SWIDTH 562 0
DWIDTH 9 0
BBX 7 10 1 0
BITMAP
6C
38
00
FC
66
66
7C
66
66
E6
ENDCHAR
STARTCHAR 0159
ENCODING 345
SWIDTH 500 0
DWIDTH 8 0
BBX 6 8 1 0
BITMAP
6C
38
00
DC
70
60
60
60
ENDCHAR
STARTCHAR 015A
ENCODING 346
SWIDTH 500 0
DWIDTH 8 0
BBX 6 10 1 0
BITMAP
30
60
00
78
CC
C0
78
0C
CC
78
ENDCHAR
STARTCHAR 015B
ENCODING 347
SWIDTH 500 0
DWIDTH 8 0
BBX 6 8 1 0
BITMAP
30
60
00
7C
C0
78
0C
F8
ENDCHAR
STARTCHAR 015C
ENCODING 348
SWIDTH 500 0
DWIDTH 8 0
BBX 6 10 1 0
BITMAP
30
48
00
78
CC
C0
78
0C
CC
78
ENDCHAR
STARTCHAR 015D
ENCODING 349
SWIDTH 500 0
DWIDTH 8 0
BBX 6 8 1 0
BITMAP
30
48
00
7C
C0
78
0C
F8
ENDCHAR
STARTCHAR 015E
ENCODING 350
SWIDTH 500 0
DWIDTH 8 0
BBX 6 10 1 -3
BITMAP
78
CC
C0
78
0C
CC
78
10
08
30
ENDCHAR
STARTCHAR 015F
ENCODING 351
SWIDTH 500 0
DWIDTH 8 0
BBX 6 8 1 -3
BITMAP
7C
C0
78
0C
F8
30
18
F0
ENDCHAR
STARTCHAR 0160
ENCODING 352
SWIDTH 500 0
DWIDTH 8 0
BBX 6 10 1 0
BITMAP
6C
38
00
78
CC
C0
78
0C
CC
78
ENDCHAR
STARTCHAR 0161
ENCODING 353
SWIDTH 500 0
DWIDTH 8 0
BBX 6 8 1 0
BITMAP
6C
38
00
7C
C0
78
0C
F8
ENDCHAR
STARTCHAR 0162
ENCODING 354
SWIDTH 500 0
DWIDTH 8 0
BBX 6 10 1 -3
BITMAP
FC
B4
30
30
30
30
78
30
10
20
ENDCHAR
STARTCHAR 0163
ENCODING 355
SWIDTH 437 0
DWIDTH 7 0
BBX 5 10 1 -3
BITMAP
60
60
F0
60
60
60
30
30
18
70
ENDCHAR
STARTCHAR 0164
ENCODING 356
SWIDTH 500 0
DWIDTH 8 0
BBX 6 10 1 0
BITMAP
6C
38
00
FC
B4
30
30
30
30
78
ENDCHAR
STARTCHAR 0165
ENCODING 357
SWIDTH 500 0
DWIDTH 8 0
BBX 6 7 1 0
BITMAP
6C
64
F8
60
60
60
30
ENDCHAR
STARTCHAR 0166
ENCODING 358
SWIDTH 500 0
DWIDTH 8 0
BBX 6 7 1 0
BITMAP
FC
B4
30
78
30
30
78
ENDCHAR
STARTCHAR 0167
ENCODING 359
SWIDTH 375 0
DWIDTH 6 0
BBX 4 7 1 0
BITMAP
60
F0
60
F0
60
60
30
ENDCHAR
STARTCHAR 0168
ENCODING 360
SWIDTH 500 0
DWIDTH 8 0
BBX 6 10 1 0
BITMAP
74
5C
00
CC
CC
CC
CC
CC
CC
78
ENDCHAR
STARTCHAR 0169
ENCODING 361
SWIDTH 500 0
DWIDTH 8 0
BBX 6 8 1 0
BITMAP
74
5C
00
CC
CC
CC
CC
7C
ENDCHAR
STARTCHAR 016A
ENCODING 362
SWIDTH 500 0
DWIDTH 8 0
BBX 6 9 1 0
BITMAP
78
00
CC
CC
CC
CC
CC
CC
78
ENDCHAR
STARTCHAR 016B
ENCODING 363
SWIDTH 500 0
DWIDTH 8 0
BBX 6 7 1 0
BITMAP
78
00
CC
CC
CC
CC
7C
ENDCHAR
STARTCHAR 016C
ENCODING 364
SWIDTH 500 0
DWIDTH 8 0
BBX 6 10 1 0
BITMAP
48
30
00
CC
CC
CC
CC
CC
CC
78
ENDCHAR
STARTCHAR 016D
ENCODING 365
SWIDTH 500 0
DWIDTH 8 0
BBX 6 8 1 0
BITMAP
48
30
00
CC
CC
CC
CC
7C
ENDCHAR
STARTCHAR 016E
ENCODING 366
SWIDTH 500 0
DWIDTH 8 0
BBX 6 11 1 0
BITMAP
38
28
38
00
CC
CC
CC
CC
CC
CC
78
ENDCHAR
STARTCHAR 016F
ENCODING 367
SWIDTH 500 0
DWIDTH 8 0
BBX 6 9 1 0
BITMAP
70
50
70
00
CC
CC
CC
CC
7C
ENDCHAR
STARTCHAR 0170
ENCODING 368
SWIDTH 500 0
DWIDTH 8 0
BBX 6 10 1 0
BITMAP
3C
68
00
CC
CC
CC
CC
CC
CC
78
ENDCHAR
STARTCHAR 0171
ENCODING 369
SWIDTH 500 0
DWIDTH 8 0
BBX 6 8 1 0
BITMAP
6C
D8
00
CC
CC
CC
CC
7C
ENDCHAR
STARTCHAR 0172
ENCODING 370
SWIDTH 500 0
DWIDTH 8 0
BBX 6 9 1 -2
BITMAP
CC
CC
CC
CC
CC
CC
78
10
0C
ENDCHAR
STARTCHAR 0173
ENCODING 371
SWIDTH 500 0
DWIDTH 8 0
BBX 6 7 1 -2
BITMAP
CC
CC
CC
CC
7C
10
0C
ENDCHAR
STARTCHAR 0174
ENCODING 372
SWIDTH 562 0
DWIDTH 9 0
BBX 7 10 1 0
BITMAP
38
6C
00
C6
C6
C6
C6
D6
EE
C6
ENDCHAR
STARTCHAR 0175
ENCODING 373
SWIDTH 562 0
DWIDTH 9 0
BBX 7 8 1 0
BITMAP
38
6C
00
C6
C6
D6
FE
C6
ENDCHAR
STARTCHAR 0176
ENCODING 374
SWIDTH 500 0
DWIDTH 8 0
BBX 6 10 1 0
BITMAP
38
6C
00
CC
CC
CC
78
30
30
78
ENDCHAR
STARTCHAR 0177
ENCODING 375
SWIDTH 500 0
DWIDTH 8 0
BBX 6 9 1 -1
BITMAP
30
48
00
CC
CC
CC
7C
0C
F8
ENDCHAR
STARTCHAR 0178
ENCODING 376
SWIDTH 500 0
DWIDTH 8 0
BBX 6 9 1 0
BITMAP
6C
00
CC
CC
CC
78
30
30
78
ENDCHAR
STARTCHAR 0179
ENCODING 377
SWIDTH 500 0
DWIDTH 8 0
BBX 6 10 1 0
BITMAP
18
30
00
FC
CC
18
30
60
CC
FC
ENDCHAR
STARTCHAR 017A
ENCODING 378
SWIDTH 500 0
DWIDTH 8 0
BBX 6 8 1 0
BITMAP
30
60
00
FC
18
30
60
FC
ENDCHAR
STARTCHAR 017B
ENCODING 379
SWIDTH 500 0
DWIDTH 8 0
BBX 6 9 1 0
BITMAP
30
00
FC
CC
18
30
60
CC
FC
ENDCHAR
STARTCHAR 017C
ENCODING 380
SWIDTH 500 0
DWIDTH 8 0
BBX 6 7 1 0
BITMAP
30
00
FC
18
30
60
FC
ENDCHAR
STARTCHAR 017D
ENCODING 381
SWIDTH 500 0
DWIDTH 8 0
BBX 6 10 1 0
BITMAP
6C
38
00
FC
CC
18
30
60
CC
FC
ENDCHAR
STARTCHAR 017E
ENCODING 382
SWIDTH 500 0
DWIDTH 8 0
BBX 6 8 1 0
BITMAP
6C
38
00
FC
18
30
60
FC
ENDCHAR
STARTCHAR 017F
ENCODING 383
SWIDTH 437 0
DWIDTH 7 0
BBX 4 7 2 0
BITMAP
70
C0
C0
C0
C0
C0
C0
ENDCHAR
STARTCHAR 0180
ENCODING 384
SWIDTH 562 0
DWIDTH 9 0
BBX 7 7 1 0
BITMAP
F0
60
7C
66
66
66
7C
ENDCHAR
STARTCHAR 0181
ENCODING 385
SWIDTH 625 0
DWIDTH 10 0
BBX 8 7 1 0
BITMAP
FE
B3
33
3E
33
33
7E
ENDCHAR
STARTCHAR 0182
ENCODING 386
SWIDTH 562 0
DWIDTH 9 0
BBX 7 7 1 0
BITMAP
FE
62
60
7C
66
66
FC
ENDCHAR
STARTCHAR 0183
ENCODING 387
SWIDTH 500 0
DWIDTH 8 0
BBX 6 7 1 0
BITMAP
F8
C0
F8
CC
CC
CC
F8
ENDCHAR
STARTCHAR 0184
ENCODING 388
SWIDTH 500 0
DWIDTH 8 0
BBX 6 7 1 0
BITMAP
C0
C0
F8
CC
CC
CC
78
ENDCHAR
STARTCHAR 0185
ENCODING 389
SWIDTH 500 0
DWIDTH 8 0
BBX 6 5 1 0
BITMAP
C0
C0
F8
CC
78
ENDCHAR
STARTCHAR 0186
ENCODING 390
SWIDTH 500 0
DWIDTH 8 0
BBX 6 7 1 0
BITMAP
78
CC
0C
0C
0C
CC
78
ENDCHAR
STARTCHAR 0187
ENCODING 391
SWIDTH 562 0
DWIDTH 9 0
BBX 7 7 1 0
BITMAP
7A
CC
C0
C0
C0
CC
78
ENDCHAR
STARTCHAR 0188
ENCODING 392
SWIDTH 562 0
DWIDTH 9 0
BBX 7 6 1 0
BITMAP
06
7C
CC
C0
CC
78
ENDCHAR
STARTCHAR 0189
ENCODING 393
SWIDTH 562 0
DWIDTH 9 0
BBX 7 7 1 0
BITMAP
FC
66
66
F6
66
66
FC
ENDCHAR
STARTCHAR 018A
ENCODING 394
SWIDTH 625 0
DWIDTH 10 0
BBX 8 7 1 0
BITMAP
FE
B3
33
33
33
33
7E
ENDCHAR
STARTCHAR 018B
ENCODING 395
SWIDTH 562 0
DWIDTH 9 0
BBX 7 7 1 0
BITMAP
FE
8C
0C
7C
CC
CC
7E
ENDCHAR
STARTCHAR 018C
ENCODING 396
SWIDTH 500 0
DWIDTH 8 0
BBX 6 7 1 0
BITMAP
FC
0C
7C
CC
CC
CC
7C
ENDCHAR
STARTCHAR 018D
ENCODING 397
SWIDTH 500 0
DWIDTH 8 0
BBX 6 6 1 -1
BITMAP
78
CC
CC
78
18
FC
ENDCHAR
STARTCHAR 018E
ENCODING 398
SWIDTH 562 0
DWIDTH 9 0
BBX 7 7 1 0
BITMAP
FE
8C
2C
3C
2C
8C
FE
ENDCHAR
STARTCHAR 018F
ENCODING 399
SWIDTH 500 0
DWIDTH 8 0
BBX 6 7 1 0
BITMAP
78
CC
0C
FC
CC
CC
78
ENDCHAR
STARTCHAR 0190
ENCODING 400
SWIDTH 500 0
DWIDTH 8 0
BBX 6 7 1 0
BITMAP
78
CC
C0
70
C0
CC
78
ENDCHAR
STARTCHAR 0191
ENCODING 401
SWIDTH 625 0
DWIDTH 10 0
BBX 8 8 1 -1
BITMAP
7F
31
34
3C
34
30
60
C0
ENDCHAR
STARTCHAR 0192
ENCODING 402
SWIDTH 375 0
DWIDTH 6 0
BBX 4 8 1 -1
BITMAP
30
60
60
F0
60
60
60
C0
ENDCHAR
STARTCHAR 0193
ENCODING 403
SWIDTH 562 0
DWIDTH 9 0
BBX 7 7 1 0
BITMAP
7A
CC
C0
DC
CC
CC
78
ENDCHAR
STARTCHAR 0194
ENCODING 404
SWIDTH 562 0
DWIDTH 9 0
BBX 7 8 1 -1
BITMAP
82
C6
44
6C
28
38
28
38
ENDCHAR
STARTCHAR 0195
ENCODING 405
SWIDTH 750 0
DWIDTH 12 0
BBX 10 7 1 0
BITMAP
C000
C000
F8C0
CCC0
CCC0
CCC0
C780
ENDCHAR
STARTCHAR 0196
ENCODING 406
SWIDTH 375 0
DWIDTH 6 0
BBX 4 7 1 0
BITMAP
F0
60
60
60
60
60
F0
ENDCHAR
STARTCHAR 0197
ENCODING 407
SWIDTH 375 0
DWIDTH 6 0
BBX 4 7 1 0
BITMAP
F0
60
60
F0
60
60
F0
ENDCHAR
STARTCHAR 0198
ENCODING 408
SWIDTH 562 0
DWIDTH 9 0
BBX 7 7 1 0
BITMAP
66
CC
D8
F0
D8
CC
C6
ENDCHAR
STARTCHAR 0199
ENCODING 409
SWIDTH 500 0
DWIDTH 8 0
BBX 6 7 1 0
BITMAP
60
CC
D8
F0
F0
D8
CC
ENDCHAR
STARTCHAR 019A
ENCODING 410
SWIDTH 375 0
DWIDTH 6 0
BBX 4 7 1 0
BITMAP
E0
60
60
F0
60
60
F0
ENDCHAR
STARTCHAR 019B
ENCODING 411
SWIDTH 500 0
DWIDTH 8 0
BBX 6 6 1 0
BITMAP
20
78
0C
7C
CC
CC
ENDCHAR
STARTCHAR 019C
ENCODING 412
SWIDTH 562 0
DWIDTH 9 0
BBX 7 7 1 0
BITMAP
D6
D6
D6
D6
D6
D6
7E
ENDCHAR
STARTCHAR 019D
ENCODING 413
SWIDTH 625 0
DWIDTH 10 0
BBX 8 8 1 -1
BITMAP
63
73
7B
6F
67
63
63
C0
ENDCHAR
STARTCHAR 019E
ENCODING 414
SWIDTH 500 0
DWIDTH 8 0
BBX 6 6 1 -1
BITMAP
F8
CC
CC
CC
CC
0C
ENDCHAR
STARTCHAR 019F
ENCODING 415
SWIDTH 500 0
DWIDTH 8 0
BBX 6 7 1 0
BITMAP
78
CC
CC
FC
CC
CC
78
ENDCHAR
STARTCHAR 01A0
ENCODING 416
SWIDTH 625 0
DWIDTH 10 0
BBX 8 7 1 0
BITMAP
7B
CD
CE
CC
CC
CC
78
ENDCHAR
STARTCHAR 01A1
ENCODING 417
SWIDTH 625 0
DWIDTH 10 0
BBX 8 5 1 0
BITMAP
7B
CD
CE
CC
78
ENDCHAR
STARTCHAR 01A2
ENCODING 418
SWIDTH 562 0
DWIDTH 9 0
BBX 7 8 1 -1
BITMAP
7E
CA
CA
CA
CA
CA
7A
02
ENDCHAR
STARTCHAR 01A3
ENCODING 419
SWIDTH 562 0
DWIDTH 9 0
BBX 7 6 1 -1
BITMAP
7E
CA
CA
CA
7A
02
ENDCHAR
STARTCHAR 01A4
ENCODING 420
SWIDTH 625 0
DWIDTH 10 0
BBX 8 7 1 0
BITMAP
7E
B3
33
3E
30
30
78
ENDCHAR
STARTCHAR 01A5
ENCODING 421
SWIDTH 500 0
DWIDTH 8 0
BBX 6 8 1 -1
BITMAP
70
C0
F8
CC
CC
F8
C0
C0
ENDCHAR
STARTCHAR 01A6
ENCODING 422
SWIDTH 562 0
DWIDTH 9 0
BBX 7 8 1 -1
BITMAP
E0
7C
66
66
7C
6C
E6
06
ENDCHAR
STARTCHAR 01A7
ENCODING 423
SWIDTH 500 0
DWIDTH 8 0
BBX 6 7 1 0
BITMAP
78
CC
0C
78
C0
CC
78
ENDCHAR
STARTCHAR 01A8
ENCODING 424
SWIDTH 500 0
DWIDTH 8 0
BBX 6 5 1 0
BITMAP
F8
0C
78
C0
7C
ENDCHAR
STARTCHAR 01A9
ENCODING 425
SWIDTH 500 0
DWIDTH 8 0
BBX 6 7 1 0
BITMAP
FC
CC
60
30
60
CC
FC
ENDCHAR
STARTCHAR 01AA
ENCODING 426
SWIDTH 437 0
DWIDTH 7 0
BBX 5 8 1 -1
BITMAP
F0
B0
F0
30
30
30
30
18
ENDCHAR
STARTCHAR 01AB
ENCODING 427
SWIDTH 375 0
DWIDTH 6 0
BBX 4 9 1 -2
BITMAP
60
60
F0
60
60
60
30
10
60
ENDCHAR
STARTCHAR 01AC
ENCODING 428
SWIDTH 625 0
DWIDTH 10 0
BBX 8 7 1 0
BITMAP
FF
99
D8
18
18
18
3C
ENDCHAR
STARTCHAR 01AD
ENCODING 429
SWIDTH 375 0
DWIDTH 6 0
BBX 4 7 1 0
BITMAP
30
60
F0
60
60
60
30
ENDCHAR
STARTCHAR 01AE
ENCODING 430
SWIDTH 625 0
DWIDTH 10 0
BBX 8 8 1 -1
BITMAP
FF
99
18
18
18
18
18
1C
ENDCHAR
STARTCHAR 01AF
ENCODING 431
SWIDTH 687 0
DWIDTH 11 0
BBX 9 7 1 0
BITMAP
CF80
CC80
CD00
CC00
CC00
CC00
7800
ENDCHAR
STARTCHAR 01B0
ENCODING 432
SWIDTH 625 0
DWIDTH 10 0
BBX 8 5 1 0
BITMAP
CF
CD
CE
CC
7C
ENDCHAR
STARTCHAR 01B1
ENCODING 433
SWIDTH 500 0
DWIDTH 8 0
BBX 6 7 1 0
BITMAP
CC
48
CC
CC
CC
CC
78
ENDCHAR
STARTCHAR 01B2
ENCODING 434
SWIDTH 500 0
DWIDTH 8 0
BBX 6 7 1 0
BITMAP
D8
CC
CC
CC
CC
CC
78
ENDCHAR
STARTCHAR 01B3
ENCODING 435
SWIDTH 562 0
DWIDTH 9 0
BBX 7 7 1 0
BITMAP
C6
CC
CC
78
30
30
78
ENDCHAR
STARTCHAR 01B4
ENCODING 436
SWIDTH 562 0
DWIDTH 9 0
BBX 7 6 1 -1
BITMAP
C6
CC
CC
7C
0C
78
ENDCHAR
STARTCHAR 01B5
ENCODING 437
SWIDTH 500 0
DWIDTH 8 0
BBX 6 7 1 0
BITMAP
FC
8C
18
78
60
C4
FC
ENDCHAR
STARTCHAR 01B6
ENCODING 438
SWIDTH 437 0
DWIDTH 7 0
BBX 5 5 1 0
BITMAP
F8
18
F8
60
F8
ENDCHAR
STARTCHAR 01B7
ENCODING 439
SWIDTH 500 0
DWIDTH 8 0
BBX 6 7 1 0
BITMAP
FC
18
30
38
0C
CC
78
ENDCHAR
STARTCHAR 01B8
ENCODING 440
SWIDTH 500 0
DWIDTH 8 0
BBX 6 7 1 0
BITMAP
FC
60
30
70
C0
CC
78
ENDCHAR
STARTCHAR 01B9
ENCODING 441
SWIDTH 500 0
DWIDTH 8 0
BBX 6 6 1 -1
BITMAP
FC
60
30
60
CC
78
ENDCHAR
STARTCHAR 01BA
ENCODING 442
SWIDTH 500 0
DWIDTH 8 0
BBX 6 6 1 -1
BITMAP
FC
0C
18
0C
78
C0
ENDCHAR
STARTCHAR 01BB
ENCODING 443
SWIDTH 500 0
DWIDTH 8 0
BBX 6 7 1 0
BITMAP
78
CC
CC
18
78
60
FC
ENDCHAR
STARTCHAR 01BC
ENCODING 444
SWIDTH 500 0
DWIDTH 8 0
BBX 6 7 1 0
BITMAP
FC
60
C0
78
0C
CC
78
ENDCHAR
STARTCHAR 01BD
ENCODING 445
SWIDTH 500 0
DWIDTH 8 0
BBX 6 5 1 0
BITMAP
FC
C0
F8
0C
F8
ENDCHAR
STARTCHAR 01BE
ENCODING 446
SWIDTH 437 0
DWIDTH 7 0
BBX 5 6 1 0
BITMAP
40
E0
C0
F0
18
F0
ENDCHAR
STARTCHAR 01BF
ENCODING 447
SWIDTH 500 0
DWIDTH 8 0
BBX 6 6 1 -1
BITMAP
F8
CC
CC
D8
F0
C0
ENDCHAR
STARTCHAR 01C0
ENCODING 448
SWIDTH 250 0
DWIDTH 4 0
BBX 1 7 2 0
BITMAP
80
80
80
80
80
80
80
ENDCHAR
STARTCHAR 01C1
ENCODING 449
SWIDTH 312 0
DWIDTH 5 0
BBX 3 7 1 0
BITMAP
A0
A0
A0
A0
A0
A0
A0
ENDCHAR
STARTCHAR 01C2
ENCODING 450
SWIDTH 437 0
DWIDTH 7 0
BBX 5 7 1 0
BITMAP
20
20
F8
20
F8
20
20
ENDCHAR
STARTCHAR 01C3
ENCODING 451
SWIDTH 437 0
DWIDTH 7 0
BBX 4 7 2 0
BITMAP
60
F0
F0
60
00
60
60
ENDCHAR
STARTCHAR 01C4
ENCODING 452
SWIDTH 937 0
DWIDTH 15 0
BBX 13 10 1 0
BITMAP
0090
0060
0000
FDF8
6718
6630
6660
66C0
6788
FDF8
ENDCHAR
STARTCHAR 01C5
ENCODING 453
SWIDTH 875 0
DWIDTH 14 0
BBX 12 7 1 0
BITMAP
FC90
6660
67F0
6630
6660
66C0
FDF0
ENDCHAR
STARTCHAR 01C6
ENCODING 454
SWIDTH 812 0
DWIDTH 13 0
BBX 11 7 1 0
BITMAP
0D40
0C80
7FE0
CC60
CCC0
CD80
7FE0
ENDCHAR
STARTCHAR 01C7
ENCODING 455
SWIDTH 937 0
DWIDTH 15 0
BBX 13 7 1 0
BITMAP
F078
6030
6030
6030
6030
63B0
FEE0
ENDCHAR
STARTCHAR 01C8
ENCODING 456
SWIDTH 750 0
DWIDTH 12 0
BBX 10 8 1 -1
BITMAP
F0C0
6000
60C0
60C0
60C0
62C0
FEC0
0180
ENDCHAR
STARTCHAR 01C9
ENCODING 457
SWIDTH 562 0
DWIDTH 9 0
BBX 7 8 1 -1
BITMAP
E6
60
6E
66
66
66
F6
0C
ENDCHAR
STARTCHAR 01CA
ENCODING 458
SWIDTH 937 0
DWIDTH 15 0
BBX 13 7 1 0
BITMAP
CC78
EC30
FC30
DC30
CC30
CF30
CDE0
ENDCHAR
STARTCHAR 01CB
ENCODING 459
SWIDTH 750 0
DWIDTH 12 0
BBX 10 8 1 -1
BITMAP
C6C0
E600
F6C0
DEC0
CEC0
C6C0
C6C0
0180
ENDCHAR
STARTCHAR 01CC
ENCODING 460
SWIDTH 687 0
DWIDTH 11 0
BBX 9 8 1 -1
BITMAP
0180
0000
F980
CD80
CD80
CD80
CD80
0300
ENDCHAR
STARTCHAR 01CD
ENCODING 461
SWIDTH 500 0
DWIDTH 8 0
BBX 6 10 1 0
BITMAP
D8
6C
00
78
CC
CC
CC
FC
CC
CC
ENDCHAR
STARTCHAR 01CE
ENCODING 462
SWIDTH 500 0
DWIDTH 8 0
BBX 6 8 1 0
BITMAP
50
20
00
F8
0C
7C
CC
7C
ENDCHAR
STARTCHAR 01CF
ENCODING 463
SWIDTH 437 0
DWIDTH 7 0
BBX 4 10 2 0
BITMAP
A0
40
00
F0
60
60
60
60
60
F0
ENDCHAR
STARTCHAR 01D0
ENCODING 464
SWIDTH 437 0
DWIDTH 7 0
BBX 4 8 2 0
BITMAP
A0
40
00
E0
60
60
60
F0
ENDCHAR
STARTCHAR 01D1
ENCODING 465
SWIDTH 500 0
DWIDTH 8 0
BBX 6 10 1 0
BITMAP
50
20
00
78
CC
CC
CC
CC
CC
78
ENDCHAR
STARTCHAR 01D2
ENCODING 466
SWIDTH 500 0
DWIDTH 8 0
BBX 6 8 1 0
BITMAP
50
20
00
78
CC
CC
CC
78
ENDCHAR
STARTCHAR 01D3
ENCODING 467
SWIDTH 500 0
DWIDTH 8 0
BBX 6 10 1 0
BITMAP
50
20
00
CC
CC
CC
CC
CC
CC
78
ENDCHAR
STARTCHAR 01D4
ENCODING 468
SWIDTH 500 0
DWIDTH 8 0
BBX 6 8 1 0
BITMAP
50
20
00
CC
CC
CC
CC
7C
ENDCHAR
STARTCHAR 01D5
ENCODING 469
SWIDTH 500 0
DWIDTH 8 0
BBX 6 11 1 0
BITMAP
78
00
48
00
CC
CC
CC
CC
CC
CC
78
ENDCHAR
STARTCHAR 01D6
ENCODING 470
SWIDTH 500 0
DWIDTH 8 0
BBX 6 9 1 0
BITMAP
78
00
48
00
CC
CC
CC
CC
7C
ENDCHAR
STARTCHAR 01D7
ENCODING 471
SWIDTH 500 0
DWIDTH 8 0
BBX 6 11 1 0
BITMAP
10
20
48
00
CC
CC
CC
CC
CC
CC
78
ENDCHAR
STARTCHAR 01D8
ENCODING 472
SWIDTH 500 0
DWIDTH 8 0
BBX 6 10 1 0
BITMAP
10
20
00
48
00
CC
CC
CC
CC
7C
ENDCHAR
STARTCHAR 01D9
ENCODING 473
SWIDTH 500 0
DWIDTH 8 0
BBX 6 11 1 0
BITMAP
50
20
48
00
CC
CC
CC
CC
CC
CC
78
ENDCHAR
STARTCHAR 01DA
ENCODING 474
SWIDTH 500 0
DWIDTH 8 0
BBX 6 10 1 0
BITMAP
50
20
00
48
00
CC
CC
CC
CC
7C
ENDCHAR
STARTCHAR 01DB
ENCODING 475
SWIDTH 500 0
DWIDTH 8 0
BBX 6 11 1 0
BITMAP
20
10
48
00
CC
CC
CC
CC
CC
CC
78
ENDCHAR
STARTCHAR 01DC
ENCODING 476
SWIDTH 500 0
DWIDTH 8 0
BBX 6 10 1 0
BITMAP
20
10
00
48
00
CC
CC
CC
CC
7C
ENDCHAR
STARTCHAR 01DD
ENCODING 477
SWIDTH 500 0
DWIDTH 8 0
BBX 6 5 1 0
BITMAP
78
0C
FC
CC
78
ENDCHAR
STARTCHAR 01DE
ENCODING 478
SWIDTH 500 0
DWIDTH 8 0
BBX 6 11 1 0
BITMAP
38
00
28
00
78
CC
CC
CC
FC
CC
CC
ENDCHAR
STARTCHAR 01DF
ENCODING 479
SWIDTH 562 0
DWIDTH 9 0
BBX 7 10 1 0
BITMAP
7C
00
6C
6C
00
78
0C
7C
CC
76
ENDCHAR
STARTCHAR 01E0
ENCODING 480
SWIDTH 500 0
DWIDTH 8 0
BBX 6 11 1 0
BITMAP
78
00
30
00
78
CC
CC
CC
FC
CC
CC
ENDCHAR
STARTCHAR 01E1
ENCODING 481
SWIDTH 562 0
DWIDTH 9 0
BBX 7 10 1 0
BITMAP
78
00
30
30
00
78
0C
7C
CC
76
ENDCHAR
STARTCHAR 01E2
ENCODING 482
SWIDTH 750 0
DWIDTH 12 0
BBX 10 9 1 0
BITMAP
3F00
0000
7FC0
CC40
CD00
CF00
FD00
CC40
CFC0
ENDCHAR
STARTCHAR 01E3
ENCODING 483
SWIDTH 750 0
DWIDTH 12 0
BBX 10 7 1 0
BITMAP
3F00
0000
7F80
0CC0
7FC0
CC00
7780
ENDCHAR
STARTCHAR 01E4
ENCODING 484
SWIDTH 562 0
DWIDTH 9 0
BBX 7 7 1 0
BITMAP
78
CC
C0
DC
DE
CC
78
ENDCHAR
STARTCHAR 01E5
ENCODING 485
SWIDTH 562 0
DWIDTH 9 0
BBX 7 6 1 -1
BITMAP
78
CC
CC
7E
0C
78
ENDCHAR
STARTCHAR 01E6
ENCODING 486
SWIDTH 500 0
DWIDTH 8 0
BBX 6 10 1 0
BITMAP
58
30
00
78
CC
C0
DC
CC
CC
78
ENDCHAR
STARTCHAR 01E7
ENCODING 487
SWIDTH 500 0
DWIDTH 8 0
BBX 6 9 1 -1
BITMAP
58
30
00
78
CC
CC
7C
0C
78
ENDCHAR
STARTCHAR 01E8
ENCODING 488
SWIDTH 562 0
DWIDTH 9 0
BBX 7 10 1 0
BITMAP
28
10
00
C6
CC
D8
F0
D8
CC
C6
ENDCHAR
STARTCHAR 01E9
ENCODING 489
SWIDTH 500 0
DWIDTH 8 0
BBX 6 10 1 0
BITMAP
28
10
00
C0
CC
D8
F0
F0
D8
CC
ENDCHAR
STARTCHAR 01EA
ENCODING 490
SWIDTH 500 0
DWIDTH 8 0
BBX 6 9 1 -2
BITMAP
78
CC
CC
CC
CC
CC
78
20
30
ENDCHAR
STARTCHAR 01EB
ENCODING 491
SWIDTH 500 0
DWIDTH 8 0
BBX 6 7 1 -2
BITMAP
78
CC
CC
CC
78
20
30
ENDCHAR
STARTCHAR 01EC
ENCODING 492
SWIDTH 500 0
DWIDTH 8 0
BBX 6 11 1 -2
BITMAP
78
00
78
CC
CC
CC
CC
CC
78
20
30
ENDCHAR
STARTCHAR 01ED
ENCODING 493
SWIDTH 500 0
DWIDTH 8 0
BBX 6 9 1 -2
BITMAP
78
00
78
CC
CC
CC
78
20
30
ENDCHAR
STARTCHAR 01EE
ENCODING 494
SWIDTH 500 0
DWIDTH 8 0
BBX 6 10 1 0
BITMAP
68
30
00
FC
18
30
38
0C
CC
78
ENDCHAR
STARTCHAR 01EF
ENCODING 495
SWIDTH 500 0
DWIDTH 8 0
BBX 6 9 1 -1
BITMAP
68
30
00
FC
18
30
18
CC
78
ENDCHAR
STARTCHAR 01F0
ENCODING 496
SWIDTH 437 0
DWIDTH 7 0
BBX 4 9 2 -1
BITMAP
B0
60
00
60
60
60
60
60
C0
ENDCHAR
STARTCHAR 01F1
ENCODING 497
SWIDTH 937 0
DWIDTH 15 0
BBX 13 7 1 0
BITMAP
FDF8
6718
6630
6660
66C0
6788
FDF8
ENDCHAR
STARTCHAR 01F2
ENCODING 498
SWIDTH 875 0
DWIDTH 14 0
BBX 12 7 1 0
BITMAP
FC00
6600
67F0
6630
6660
66C0
FDF0
ENDCHAR
STARTCHAR 01F3
ENCODING 499
SWIDTH 812 0
DWIDTH 13 0
BBX 11 7 1 0
BITMAP
0C00
0C00
7FE0
CC60
CCC0
CD80
7FE0
ENDCHAR
STARTCHAR 01F4
ENCODING 500
SWIDTH 500 0
DWIDTH 8 0
BBX 6 10 1 0
BITMAP
18
30
00
78
CC
C0
DC
CC
CC
78
ENDCHAR
STARTCHAR 01F5
ENCODING 501
SWIDTH 500 0
DWIDTH 8 0
BBX 6 9 1 -1
BITMAP
18
30
00
78
CC
CC
7C
0C
78
ENDCHAR
STARTCHAR 01F6
ENCODING 502
SWIDTH 687 0
DWIDTH 11 0
BBX 9 7 1 0
BITMAP
CC00
CC00
CC00
FC00
CD80
CD80
C700
ENDCHAR
STARTCHAR 01F7
ENCODING 503
SWIDTH 500 0
DWIDTH 8 0
BBX 6 7 1 0
BITMAP
F8
CC
CC
CC
D8
F0
C0
ENDCHAR
STARTCHAR 01F8
ENCODING 504
SWIDTH 562 0
DWIDTH 9 0
BBX 7 10 1 0
BITMAP
30
18
00
C6
E6
F6
DE
CE
C6
C6
ENDCHAR
STARTCHAR 01F9
ENCODING 505
SWIDTH 500 0
DWIDTH 8 0
BBX 6 8 1 0
BITMAP
60
30
00
F8
CC
CC
CC
CC
ENDCHAR
STARTCHAR 01FA
ENCODING 506
SWIDTH 500 0
DWIDTH 8 0
BBX 6 11 1 0
BITMAP
1C
74
DC
00
78
CC
CC
CC
FC
CC
CC
ENDCHAR
STARTCHAR 01FB
ENCODING 507
SWIDTH 562 0
DWIDTH 9 0
BBX 7 9 1 0
BITMAP
1C
74
DC
00
78
0C
7C
CC
76
ENDCHAR
STARTCHAR 01FC
ENCODING 508
SWIDTH 750 0
DWIDTH 12 0
BBX 10 10 1 0
BITMAP
0C00
1800
0000
7FC0
CC40
CD00
CF00
FD00
CC40
CFC0
ENDCHAR
STARTCHAR 01FD
ENCODING 509
SWIDTH 750 0
DWIDTH 12 0
BBX 10 8 1 0
BITMAP
0600
0C00
0000
7F80
0CC0
7FC0
CC00
7780
ENDCHAR
STARTCHAR 01FE
ENCODING 510
SWIDTH 625 0
DWIDTH 10 0
BBX 9 10 0 0
BITMAP
0C00
1800
0080
3F00
6700
6B00
7300
6300
6300
BE00
ENDCHAR
STARTCHAR 01FF
ENCODING 511
SWIDTH 500 0
DWIDTH 8 0
BBX 6 8 1 0
BITMAP
18
30
00
7C
DC
EC
CC
F8
ENDCHAR
STARTCHAR 0200
ENCODING 512
SWIDTH 500 0
DWIDTH 8 0
BBX 6 10 1 0
BITMAP
D8
6C
00
78
CC
CC
CC
FC
CC
CC
ENDCHAR
STARTCHAR 0201
ENCODING 513
SWIDTH 562 0
DWIDTH 9 0
BBX 7 8 1 0
BITMAP
D8
6C
00
78
0C
7C
CC
76
ENDCHAR
STARTCHAR 0202
ENCODING 514
SWIDTH 500 0
DWIDTH 8 0
BBX 6 10 1 0
BITMAP
30
48
00
78
CC
CC
CC
FC
CC
CC
ENDCHAR
STARTCHAR 0203
ENCODING 515
SWIDTH 562 0
DWIDTH 9 0
BBX 7 8 1 0
BITMAP
30
48
00
78
0C
7C
CC
76
ENDCHAR
STARTCHAR 0204
ENCODING 516
SWIDTH 562 0
DWIDTH 9 0
BBX 7 10 1 0
BITMAP
6C
36
00
FE
62
68
78
68
62
FE
ENDCHAR
STARTCHAR 0205
ENCODING 517
SWIDTH 500 0
DWIDTH 8 0
BBX 6 8 1 0
BITMAP
D8
6C
00
78
CC
FC
C0
78
ENDCHAR
STARTCHAR 0206
ENCODING 518
SWIDTH 562 0
DWIDTH 9 0
BBX 7 10 1 0
BITMAP
18
24
00
FE
62
60
78
60
62
FE
ENDCHAR
STARTCHAR 0207
ENCODING 519
SWIDTH 500 0
DWIDTH 8 0
BBX 6 8 1 0
BITMAP
30
48
00
78
CC
FC
C0
78
ENDCHAR
STARTCHAR 0208
ENCODING 520
SWIDTH 437 0
DWIDTH 7 0
BBX 6 9 0 0
BITMAP
D8
6C
78
30
30
30
30
30
78
ENDCHAR
STARTCHAR 0209
ENCODING 521
SWIDTH 375 0
DWIDTH 6 0
BBX 5 8 0 0
BITMAP
F0
58
00
70
30
30
30
78
ENDCHAR
STARTCHAR 020A
ENCODING 522
SWIDTH 437 0
DWIDTH 7 0
BBX 6 10 0 0
BITMAP
D8
6C
00
78
30
30
30
30
30
78
ENDCHAR
STARTCHAR 020B
ENCODING 523
SWIDTH 375 0
DWIDTH 6 0
BBX 4 8 1 0
BITMAP
60
90
00
E0
60
60
60
F0
ENDCHAR
STARTCHAR 020C
ENCODING 524
SWIDTH 562 0
DWIDTH 9 0
BBX 7 10 1 0
BITMAP
6C
36
00
7C
C6
C6
C6
C6
C6
7C
ENDCHAR
STARTCHAR 020D
ENCODING 525
SWIDTH 500 0
DWIDTH 8 0
BBX 6 8 1 0
BITMAP
D8
6C
00
78
CC
CC
CC
78
ENDCHAR
STARTCHAR 020E
ENCODING 526
SWIDTH 500 0
DWIDTH 8 0
BBX 6 10 1 0
BITMAP
30
48
00
78
CC
CC
CC
CC
CC
78
ENDCHAR
STARTCHAR 020F
ENCODING 527
SWIDTH 500 0
DWIDTH 8 0
BBX 6 8 1 0
BITMAP
30
48
00
78
CC
CC
CC
78
ENDCHAR
STARTCHAR 0210
ENCODING 528
SWIDTH 562 0
DWIDTH 9 0
BBX 7 10 1 0
BITMAP
6C
36
00
FC
66
66
7C
66
66
E6
ENDCHAR
STARTCHAR 0211
ENCODING 529
SWIDTH 562 0
DWIDTH 9 0
BBX 7 8 1 0
BITMAP
6C
36
00
DC
70
60
60
60
ENDCHAR
STARTCHAR 0212
ENCODING 530
SWIDTH 562 0
DWIDTH 9 0
BBX 7 10 1 0
BITMAP
38
44
00
FC
66
66
7C
66
66
E6
ENDCHAR
STARTCHAR 0213
ENCODING 531
SWIDTH 500 0
DWIDTH 8 0
BBX 6 8 1 0
BITMAP
30
48
00
DC
70
60
60
60
ENDCHAR
STARTCHAR 0214
ENCODING 532
SWIDTH 500 0
DWIDTH 8 0
BBX 6 10 1 0
BITMAP
D8
6C
00
CC
CC
CC
CC
CC
CC
78
ENDCHAR
STARTCHAR 0215
ENCODING 533
SWIDTH 500 0
DWIDTH 8 0
BBX 6 8 1 0
BITMAP
D8
6C
00
CC
CC
CC
CC
7C
ENDCHAR
STARTCHAR 0216
ENCODING 534
SWIDTH 500 0
DWIDTH 8 0
BBX 6 10 1 0
BITMAP
30
48
00
CC
CC
CC
CC
CC
CC
78
ENDCHAR
STARTCHAR 0217
ENCODING 535
SWIDTH 500 0
DWIDTH 8 0
BBX 6 8 1 0
BITMAP
30
48
00
CC
CC
CC
CC
7C
ENDCHAR
STARTCHAR 0218
ENCODING 536
SWIDTH 500 0
DWIDTH 8 0
BBX 6 8 1 -1
BITMAP
78
CC
C0
78
0C
CC
78
30
ENDCHAR
STARTCHAR 0219
ENCODING 537
SWIDTH 500 0
DWIDTH 8 0
BBX 6 6 1 -1
BITMAP
7C
C0
78
0C
F8
30
ENDCHAR
STARTCHAR 021A
ENCODING 538
SWIDTH 500 0
DWIDTH 8 0
BBX 6 8 1 -1
BITMAP
FC
30
30
30
30
30
30
10
ENDCHAR
STARTCHAR 021B
ENCODING 539
SWIDTH 375 0
DWIDTH 6 0
BBX 4 9 1 -2
BITMAP
60
60
F0
60
60
60
30
30
20
ENDCHAR
STARTCHAR 021C
ENCODING 540
SWIDTH 500 0
DWIDTH 8 0
BBX 6 8 1 -1
BITMAP
78
CC
0C
38
0C
0C
78
C0
ENDCHAR
STARTCHAR 021D
ENCODING 541
SWIDTH 437 0
DWIDTH 7 0
BBX 5 6 1 -1
BITMAP
F0
18
70
18
30
E0
ENDCHAR
STARTCHAR 021E
ENCODING 542
SWIDTH 562 0
DWIDTH 9 0
BBX 7 10 1 0
BITMAP
68
30
00
C6
C6
C6
FE
C6
C6
C6
ENDCHAR
STARTCHAR 021F
ENCODING 543
SWIDTH 500 0
DWIDTH 8 0
BBX 6 10 1 0
BITMAP
68
30
00
C0
C0
F8
CC
CC
CC
CC
ENDCHAR
STARTCHAR 0222
ENCODING 546
SWIDTH 500 0
DWIDTH 8 0
BBX 6 6 1 0
BITMAP
E4
CC
78
CC
CC
78
ENDCHAR
STARTCHAR 0223
ENCODING 547
SWIDTH 500 0
DWIDTH 8 0
BBX 6 6 1 0
BITMAP
48
CC
78
CC
CC
78
ENDCHAR
STARTCHAR 0224
ENCODING 548
SWIDTH 500 0
DWIDTH 8 0
BBX 6 8 1 -1
BITMAP
FC
CC
18
30
60
C0
FC
0C
ENDCHAR
STARTCHAR 0225
ENCODING 549
SWIDTH 500 0
DWIDTH 8 0
BBX 6 6 1 -1
BITMAP
FC
18
30
60
F8
0C
ENDCHAR
STARTCHAR 0226
ENCODING 550
SWIDTH 500 0
DWIDTH 8 0
BBX 6 10 1 0
BITMAP
30
30
00
78
CC
CC
CC
FC
CC
CC
ENDCHAR
STARTCHAR 0227
ENCODING 551
SWIDTH 562 0
DWIDTH 9 0
BBX 7 8 1 0
BITMAP
30
30
00
78
0C
7C
CC
76
ENDCHAR
STARTCHAR 0228
ENCODING 552
SWIDTH 562 0
DWIDTH 9 0
BBX 7 10 1 -3
BITMAP
FE
62
60
78
60
62
FE
10
08
30
ENDCHAR
STARTCHAR 0229
ENCODING 553
SWIDTH 500 0
DWIDTH 8 0
BBX 6 8 1 -3
BITMAP
78
CC
FC
C0
78
20
10
60
ENDCHAR
STARTCHAR 022A
ENCODING 554
SWIDTH 500 0
DWIDTH 8 0
BBX 6 11 1 0
BITMAP
FC
00
48
00
78
CC
CC
CC
CC
CC
78
ENDCHAR
STARTCHAR 022B
ENCODING 555
SWIDTH 500 0
DWIDTH 8 0
BBX 6 9 1 0
BITMAP
78
00
48
00
78
CC
CC
CC
78
ENDCHAR
STARTCHAR 022C
ENCODING 556
SWIDTH 500 0
DWIDTH 8 0
BBX 6 11 1 0
BITMAP
78
00
48
00
78
CC
CC
CC
CC
CC
78
ENDCHAR
STARTCHAR 022D
ENCODING 557
SWIDTH 500 0
DWIDTH 8 0
BBX 6 9 1 0
BITMAP
78
00
48
00
78
CC
CC
CC
78
ENDCHAR
STARTCHAR 022E
ENCODING 558
SWIDTH 500 0
DWIDTH 8 0
BBX 6 10 1 0
BITMAP
30
30
00
78
CC
CC
CC
CC
CC
78
ENDCHAR
STARTCHAR 022F
ENCODING 559
SWIDTH 500 0
DWIDTH 8 0
BBX 6 8 1 0
BITMAP
30
30
00
78
CC
CC
CC
78
ENDCHAR
STARTCHAR 0230
ENCODING 560
SWIDTH 500 0
DWIDTH 8 0
BBX 6 12 1 0
BITMAP
78
00
30
30
00
78
CC
CC
CC
CC
CC
78
ENDCHAR
STARTCHAR 0231
ENCODING 561
SWIDTH 500 0
DWIDTH 8 0
BBX 6 10 1 0
BITMAP
78
00
30
30
00
78
CC
CC
CC
78
ENDCHAR
STARTCHAR 0232
ENCODING 562
SWIDTH 500 0
DWIDTH 8 0
BBX 6 9 1 0
BITMAP
78
00
CC
CC
CC
78
30
30
78
ENDCHAR
STARTCHAR 0233
ENCODING 563
SWIDTH 500 0
DWIDTH 8 0
BBX 6 8 1 -1
BITMAP
78
00
CC
CC
CC
7C
0C
78
ENDCHAR
STARTCHAR 0250
ENCODING 592
SWIDTH 500 0
DWIDTH 8 0
BBX 6 5 1 0
BITMAP
F8
CC
F8
C0
78
ENDCHAR
STARTCHAR 0251
ENCODING 593
SWIDTH 500 0
DWIDTH 8 0
BBX 6 5 1 0
BITMAP
7C
CC
CC
CC
74
ENDCHAR
STARTCHAR 0252
ENCODING 594
SWIDTH 500 0
DWIDTH 8 0
BBX 6 5 1 0
BITMAP
B8
CC
CC
CC
F8
ENDCHAR
STARTCHAR 0253
ENCODING 595
SWIDTH 500 0
DWIDTH 8 0
BBX 6 7 1 0
BITMAP
60
C0
F8
CC
CC
CC
F8
ENDCHAR
STARTCHAR 0254
ENCODING 596
SWIDTH 500 0
DWIDTH 8 0
BBX 6 5 1 0
BITMAP
78
CC
0C
CC
78
ENDCHAR
STARTCHAR 0255
ENCODING 597
SWIDTH 500 0
DWIDTH 8 0
BBX 6 6 1 -1
BITMAP
78
CC
C0
DC
78
20
ENDCHAR
STARTCHAR 0256
ENCODING 598
SWIDTH 500 0
DWIDTH 8 0
BBX 6 8 1 -1
BITMAP
18
18
78
D8
D8
D8
78
0C
ENDCHAR
STARTCHAR 0257
ENCODING 599
SWIDTH 562 0
DWIDTH 9 0
BBX 7 7 1 0
BITMAP
0E
0C
7C
CC
CC
CC
7C
ENDCHAR
STARTCHAR 0258
ENCODING 600
SWIDTH 500 0
DWIDTH 8 0
BBX 6 5 1 0
BITMAP
78
CC
FC
0C
78
ENDCHAR
STARTCHAR 0259
ENCODING 601
SWIDTH 500 0
DWIDTH 8 0
BBX 6 5 1 0
BITMAP
78
0C
FC
CC
78
ENDCHAR
STARTCHAR 025A
ENCODING 602
SWIDTH 687 0
DWIDTH 11 0
BBX 9 5 1 0
BITMAP
7800
0C00
FF00
CD80
7800
ENDCHAR
STARTCHAR 025B
ENCODING 603
SWIDTH 500 0
DWIDTH 8 0
BBX 6 5 1 0
BITMAP
78
CC
60
CC
78
ENDCHAR
STARTCHAR 025C
ENCODING 604
SWIDTH 500 0
DWIDTH 8 0
BBX 6 5 1 0
BITMAP
78
CC
18
CC
78
ENDCHAR
STARTCHAR 025D
ENCODING 605
SWIDTH 625 0
DWIDTH 10 0
BBX 8 5 1 0
BITMAP
78
CE
1B
CC
78
ENDCHAR
STARTCHAR 025E
ENCODING 606
SWIDTH 500 0
DWIDTH 8 0
BBX 6 5 1 0
BITMAP
78
CC
D8
CC
78
ENDCHAR
STARTCHAR 025F
ENCODING 607
SWIDTH 437 0
DWIDTH 7 0
BBX 4 6 2 -1
BITMAP
60
60
60
F0
60
C0
ENDCHAR
STARTCHAR 0260
ENCODING 608
SWIDTH 562 0
DWIDTH 9 0
BBX 7 6 1 -1
BITMAP
7E
CC
CC
7C
0C
78
ENDCHAR
STARTCHAR 0261
ENCODING 609
SWIDTH 500 0
DWIDTH 8 0
BBX 6 6 1 -1
BITMAP
7C
CC
CC
7C
0C
78
ENDCHAR
STARTCHAR 0262
ENCODING 610
SWIDTH 500 0
DWIDTH 8 0
BBX 6 5 1 0
BITMAP
78
C0
DC
CC
78
ENDCHAR
STARTCHAR 0263
ENCODING 611
SWIDTH 500 0
DWIDTH 8 0
BBX 6 6 1 -1
BITMAP
CC
CC
CC
78
30
30
ENDCHAR
STARTCHAR 0264
ENCODING 612
SWIDTH 562 0
DWIDTH 9 0
BBX 7 5 1 0
BITMAP
82
C6
7C
28
38
ENDCHAR
STARTCHAR 0265
ENCODING 613
SWIDTH 500 0
DWIDTH 8 0
BBX 6 6 1 -1
BITMAP
CC
CC
CC
7C
0C
0C
ENDCHAR
STARTCHAR 0266
ENCODING 614
SWIDTH 500 0
DWIDTH 8 0
BBX 6 7 1 0
BITMAP
7C
C0
F8
CC
CC
CC
CC
ENDCHAR
STARTCHAR 0267
ENCODING 615
SWIDTH 500 0
DWIDTH 8 0
BBX 6 7 1 -1
BITMAP
60
C0
F8
CC
CC
CC
18
ENDCHAR
STARTCHAR 0268
ENCODING 616
SWIDTH 375 0
DWIDTH 6 0
BBX 4 7 1 0
BITMAP
60
00
60
60
F0
60
60
ENDCHAR
STARTCHAR 0269
ENCODING 617
SWIDTH 312 0
DWIDTH 5 0
BBX 3 5 1 0
BITMAP
C0
C0
C0
C0
60
ENDCHAR
STARTCHAR 026A
ENCODING 618
SWIDTH 375 0
DWIDTH 6 0
BBX 4 5 1 0
BITMAP
F0
60
60
60
F0
ENDCHAR
STARTCHAR 026B
ENCODING 619
SWIDTH 375 0
DWIDTH 6 0
BBX 4 7 1 0
BITMAP
60
60
70
E0
60
60
60
ENDCHAR
STARTCHAR 026C
ENCODING 620
SWIDTH 375 0
DWIDTH 6 0
BBX 4 7 1 0
BITMAP
60
60
E0
F0
60
60
60
ENDCHAR
STARTCHAR 026D
ENCODING 621
SWIDTH 375 0
DWIDTH 6 0
BBX 3 8 2 -1
BITMAP
C0
C0
C0
C0
C0
C0
C0
60
ENDCHAR
STARTCHAR 026E
ENCODING 622
SWIDTH 500 0
DWIDTH 8 0
BBX 6 8 1 -1
BITMAP
C0
C0
FC
CC
D8
CC
CC
78
ENDCHAR
STARTCHAR 026F
ENCODING 623
SWIDTH 750 0
DWIDTH 12 0
BBX 10 5 1 0
BITMAP
CCC0
CCC0
CCC0
CCC0
7FC0
ENDCHAR
STARTCHAR 0270
ENCODING 624
SWIDTH 750 0
DWIDTH 12 0
BBX 10 6 1 -1
BITMAP
CCC0
CCC0
CCC0
CCC0
7FC0
00C0
ENDCHAR
STARTCHAR 0271
ENCODING 625
SWIDTH 562 0
DWIDTH 9 0
BBX 7 6 1 -1
BITMAP
EE
FE
D6
C6
C6
0C
ENDCHAR
STARTCHAR 0272
ENCODING 626
SWIDTH 562 0
DWIDTH 9 0
BBX 7 6 1 -1
BITMAP
7C
66
66
66
66
C0
ENDCHAR
STARTCHAR 0273
ENCODING 627
SWIDTH 562 0
DWIDTH 9 0
BBX 7 6 1 -1
BITMAP
F8
CC
CC
CC
CC
06
ENDCHAR
STARTCHAR 0274
ENCODING 628
SWIDTH 500 0
DWIDTH 8 0
BBX 6 5 1 0
BITMAP
CC
EC
FC
DC
CC
ENDCHAR
STARTCHAR 0275
ENCODING 629
SWIDTH 500 0
DWIDTH 8 0
BBX 6 5 1 0
BITMAP
78
CC
FC
CC
78
ENDCHAR
STARTCHAR 0276
ENCODING 630
SWIDTH 625 0
DWIDTH 10 0
BBX 8 5 1 0
BITMAP
7F
D8
DE
D8
7F
ENDCHAR
STARTCHAR 0277
ENCODING 631
SWIDTH 687 0
DWIDTH 11 0
BBX 9 5 1 0
BITMAP
7F00
C180
C980
C980
7700
ENDCHAR
STARTCHAR 0278
ENCODING 632
SWIDTH 562 0
DWIDTH 9 0
BBX 7 7 1 -1
BITMAP
10
7C
D6
D6
D6
7C
10
ENDCHAR
STARTCHAR 0279
ENCODING 633
SWIDTH 437 0
DWIDTH 7 0
BBX 5 5 1 0
BITMAP
18
18
18
78
D8
ENDCHAR
STARTCHAR 027A
ENCODING 634
SWIDTH 437 0
DWIDTH 7 0
BBX 5 7 1 0
BITMAP
18
18
18
18
18
78
D8
ENDCHAR
STARTCHAR 027B
ENCODING 635
SWIDTH 437 0
DWIDTH 7 0
BBX 5 6 1 -1
BITMAP
18
18
18
78
D8
18
ENDCHAR
STARTCHAR 027C
ENCODING 636
SWIDTH 500 0
DWIDTH 8 0
BBX 6 6 1 -1
BITMAP
DC
F0
C0
C0
C0
C0
ENDCHAR
STARTCHAR 027D
ENCODING 637
SWIDTH 562 0
DWIDTH 9 0
BBX 7 6 1 -1
BITMAP
DC
F6
C0
C0
C0
60
ENDCHAR
STARTCHAR 027E
ENCODING 638
SWIDTH 375 0
DWIDTH 6 0
BBX 4 5 1 0
BITMAP
70
C0
C0
C0
C0
ENDCHAR
STARTCHAR 027F
ENCODING 639
SWIDTH 375 0
DWIDTH 6 0
BBX 4 5 1 0
BITMAP
E0
30
30
30
30
ENDCHAR
STARTCHAR 0280
ENCODING 640
SWIDTH 500 0
DWIDTH 8 0
BBX 6 5 1 0
BITMAP
F8
CC
F8
D8
CC
ENDCHAR
STARTCHAR 0281
ENCODING 641
SWIDTH 500 0
DWIDTH 8 0
BBX 6 5 1 0
BITMAP
CC
D8
F8
CC
F8
ENDCHAR
STARTCHAR 0282
ENCODING 642
SWIDTH 500 0
DWIDTH 8 0
BBX 6 6 1 -1
BITMAP
7C
C0
78
0C
F8
C0
ENDCHAR
STARTCHAR 0283
ENCODING 643
SWIDTH 375 0
DWIDTH 6 0
BBX 4 8 1 -1
BITMAP
30
60
60
60
60
60
60
C0
ENDCHAR
STARTCHAR 0284
ENCODING 644
SWIDTH 375 0
DWIDTH 6 0
BBX 4 8 1 -1
BITMAP
30
60
60
60
60
F0
60
C0
ENDCHAR
STARTCHAR 0285
ENCODING 645
SWIDTH 375 0
DWIDTH 6 0
BBX 4 6 1 -1
BITMAP
C0
60
60
60
60
30
ENDCHAR
STARTCHAR 0286
ENCODING 646
SWIDTH 375 0
DWIDTH 6 0
BBX 4 8 1 -1
BITMAP
30
60
60
60
60
60
A0
C0
ENDCHAR
STARTCHAR 0287
ENCODING 647
SWIDTH 375 0
DWIDTH 6 0
BBX 4 7 1 0
BITMAP
C0
60
60
60
F0
60
20
ENDCHAR
STARTCHAR 0288
ENCODING 648
SWIDTH 375 0
DWIDTH 6 0
BBX 4 8 1 -1
BITMAP
60
60
60
F0
60
60
60
30
ENDCHAR
STARTCHAR 0289
ENCODING 649
SWIDTH 500 0
DWIDTH 8 0
BBX 6 5 1 0
BITMAP
CC
CC
FC
CC
7C
ENDCHAR
STARTCHAR 028A
ENCODING 650
SWIDTH 562 0
DWIDTH 9 0
BBX 7 5 1 0
BITMAP
EE
28
EE
C6
7C
ENDCHAR
STARTCHAR 028B
ENCODING 651
SWIDTH 500 0
DWIDTH 8 0
BBX 6 5 1 0
BITMAP
D8
CC
CC
CC
F8
ENDCHAR
STARTCHAR 028C
ENCODING 652
SWIDTH 500 0
DWIDTH 8 0
BBX 6 5 1 0
BITMAP
30
78
CC
CC
CC
ENDCHAR
STARTCHAR 028D
ENCODING 653
SWIDTH 562 0
DWIDTH 9 0
BBX 7 5 1 0
BITMAP
C6
EE
FE
D6
C6
ENDCHAR
STARTCHAR 028E
ENCODING 654
SWIDTH 500 0
DWIDTH 8 0
BBX 6 7 1 0
BITMAP
78
C0
F8
CC
CC
CC
CC
ENDCHAR
STARTCHAR 028F
ENCODING 655
SWIDTH 500 0
DWIDTH 8 0
BBX 6 5 1 0
BITMAP
CC
CC
78
30
30
ENDCHAR
STARTCHAR 0290
ENCODING 656
SWIDTH 500 0
DWIDTH 8 0
BBX 6 6 1 -1
BITMAP
FC
18
30
60
FC
0C
ENDCHAR
STARTCHAR 0291
ENCODING 657
SWIDTH 500 0
DWIDTH 8 0
BBX 6 6 1 -1
BITMAP
FC
18
30
6C
FC
08
ENDCHAR
STARTCHAR 0292
ENCODING 658
SWIDTH 500 0
DWIDTH 8 0
BBX 6 6 1 -1
BITMAP
FC
18
30
18
CC
78
ENDCHAR
STARTCHAR 0293
ENCODING 659
SWIDTH 437 0
DWIDTH 7 0
BBX 5 6 1 -1
BITMAP
F8
18
30
18
F8
F0
ENDCHAR
STARTCHAR 0294
ENCODING 660
SWIDTH 500 0
DWIDTH 8 0
BBX 6 6 1 0
BITMAP
78
CC
CC
18
30
30
ENDCHAR
STARTCHAR 0295
ENCODING 661
SWIDTH 500 0
DWIDTH 8 0
BBX 6 6 1 0
BITMAP
78
CC
C0
60
30
30
ENDCHAR
STARTCHAR 0296
ENCODING 662
SWIDTH 500 0
DWIDTH 8 0
BBX 6 6 1 0
BITMAP
30
30
18
0C
CC
78
ENDCHAR
STARTCHAR 0298
ENCODING 664
SWIDTH 562 0
DWIDTH 9 0
BBX 7 6 1 0
BITMAP
7C
C6
D6
D6
C6
7C
ENDCHAR
STARTCHAR 0299
ENCODING 665
SWIDTH 500 0
DWIDTH 8 0
BBX 6 5 1 0
BITMAP
F8
CC
F8
CC
F8
ENDCHAR
STARTCHAR 029B
ENCODING 667
SWIDTH 562 0
DWIDTH 9 0
BBX 7 6 1 0
BITMAP
0E
78
C0
DC
CC
78
ENDCHAR
STARTCHAR 029C
ENCODING 668
SWIDTH 500 0
DWIDTH 8 0
BBX 6 5 1 0
BITMAP
CC
CC
FC
CC
CC
ENDCHAR
STARTCHAR 029D
ENCODING 669
SWIDTH 500 0
DWIDTH 8 0
BBX 6 8 1 -1
BITMAP
18
00
38
18
18
3C
D8
70
ENDCHAR
STARTCHAR 029E
ENCODING 670
SWIDTH 500 0
DWIDTH 8 0
BBX 6 6 1 -1
BITMAP
CC
6C
3C
6C
CC
0C
ENDCHAR
STARTCHAR 029F
ENCODING 671
SWIDTH 437 0
DWIDTH 7 0
BBX 5 5 1 0
BITMAP
C0
C0
C0
C0
F8
ENDCHAR
STARTCHAR 02A1
ENCODING 673
SWIDTH 500 0
DWIDTH 8 0
BBX 6 6 1 0
BITMAP
78
CC
CC
18
78
30
ENDCHAR
STARTCHAR 02A2
ENCODING 674
SWIDTH 500 0
DWIDTH 8 0
BBX 6 6 1 0
BITMAP
78
CC
C0
60
78
30
ENDCHAR
STARTCHAR 02A3
ENCODING 675
SWIDTH 750 0
DWIDTH 12 0
BBX 10 7 1 0
BITMAP
0C00
0C00
7FC0
CCC0
CD80
CF00
77C0
ENDCHAR
STARTCHAR 02A4
ENCODING 676
SWIDTH 750 0
DWIDTH 12 0
BBX 10 8 1 -1
BITMAP
0C00
0C00
7FC0
CCC0
CD80
CCC0
74C0
0380
ENDCHAR
STARTCHAR 02A5
ENCODING 677
SWIDTH 812 0
DWIDTH 13 0
BBX 11 8 1 -1
BITMAP
0C00
0C00
7FC0
CCC0
CD80
CFE0
77C0
0180
ENDCHAR
STARTCHAR 02A6
ENCODING 678
SWIDTH 562 0
DWIDTH 9 0
BBX 7 6 1 0
BITMAP
60
FE
78
6C
66
3C
ENDCHAR
STARTCHAR 02A7
ENCODING 679
SWIDTH 562 0
DWIDTH 9 0
BBX 7 9 1 -2
BITMAP
26
6C
FC
6C
6C
6C
3C
0C
18
ENDCHAR
STARTCHAR 02A8
ENCODING 680
SWIDTH 625 0
DWIDTH 10 0
BBX 8 7 1 -1
BITMAP
60
60
FF
6C
6D
3F
06
ENDCHAR
STARTCHAR 02A9
ENCODING 681
SWIDTH 625 0
DWIDTH 10 0
BBX 9 8 0 -1
BITMAP
3800
6000
6F00
FD80
6D80
6D80
6180
0300
ENDCHAR
STARTCHAR 02AA
ENCODING 682
SWIDTH 562 0
DWIDTH 9 0
BBX 7 7 1 0
BITMAP
E0
60
6E
78
7C
66
FC
ENDCHAR
STARTCHAR 02AB
ENCODING 683
SWIDTH 562 0
DWIDTH 9 0
BBX 7 7 1 0
BITMAP
E0
60
7E
66
6C
78
FE
ENDCHAR
STARTCHAR 02AC
ENCODING 684
SWIDTH 562 0
DWIDTH 9 0
BBX 7 7 1 0
BITMAP
82
54
28
00
82
54
28
ENDCHAR
STARTCHAR 02AD
ENCODING 685
SWIDTH 500 0
DWIDTH 8 0
BBX 6 6 1 1
BITMAP
FC
84
00
00
FC
84
ENDCHAR
STARTCHAR 02B0
ENCODING 688
SWIDTH 437 0
DWIDTH 7 0
BBX 4 4 2 6
BITMAP
80
E0
90
90
ENDCHAR
STARTCHAR 02B2
ENCODING 690
SWIDTH 312 0
DWIDTH 5 0
BBX 2 5 2 5
BITMAP
40
00
40
40
80
ENDCHAR
STARTCHAR 02B3
ENCODING 691
SWIDTH 375 0
DWIDTH 6 0
BBX 3 3 2 5
BITMAP
A0
C0
80
ENDCHAR
STARTCHAR 02B7
ENCODING 695
SWIDTH 437 0
DWIDTH 7 0
BBX 5 3 1 6
BITMAP
A8
A8
50
ENDCHAR
STARTCHAR 02B8
ENCODING 696
SWIDTH 375 0
DWIDTH 6 0
BBX 4 5 1 4
BITMAP
90
90
70
10
E0
ENDCHAR
STARTCHAR 02B9
ENCODING 697
SWIDTH 437 0
DWIDTH 7 0
BBX 4 3 2 5
BITMAP
30
60
C0
ENDCHAR
STARTCHAR 02BA
ENCODING 698
SWIDTH 562 0
DWIDTH 9 0
BBX 7 3 1 5
BITMAP
36
6C
D8
ENDCHAR
STARTCHAR 02BE
ENCODING 702
SWIDTH 375 0
DWIDTH 6 0
BBX 3 3 2 5
BITMAP
C0
20
C0
ENDCHAR
STARTCHAR 02BF
ENCODING 703
SWIDTH 375 0
DWIDTH 6 0
BBX 3 3 2 5
BITMAP
60
80
60
ENDCHAR
STARTCHAR 02C6
ENCODING 710
SWIDTH 437 0
DWIDTH 7 0
BBX 5 2 1 6
BITMAP
70
D8
ENDCHAR
STARTCHAR 02C7
ENCODING 711
SWIDTH 437 0
DWIDTH 7 0
BBX 5 2 1 5
BITMAP
D8
70
ENDCHAR
STARTCHAR 02C8
ENCODING 712
SWIDTH 250 0
DWIDTH 4 0
BBX 1 3 2 5
BITMAP
80
80
80
ENDCHAR
STARTCHAR 02C9
ENCODING 713
SWIDTH 375 0
DWIDTH 6 0
BBX 4 1 1 6
BITMAP
F0
ENDCHAR
STARTCHAR 02CA
ENCODING 714
SWIDTH 437 0
DWIDTH 7 0
BBX 4 3 2 5
BITMAP
30
60
C0
ENDCHAR
STARTCHAR 02CB
ENCODING 715
SWIDTH 437 0
DWIDTH 7 0
BBX 4 3 2 5
BITMAP
C0
60
30
ENDCHAR
STARTCHAR 02CC
ENCODING 716
SWIDTH 312 0
DWIDTH 5 0
BBX 1 3 3 -3
BITMAP
80
80
80
ENDCHAR
STARTCHAR 02CD
ENCODING 717
SWIDTH 375 0
DWIDTH 6 0
BBX 4 1 1 -1
BITMAP
F0
ENDCHAR
STARTCHAR 02CE
ENCODING 718
SWIDTH 375 0
DWIDTH 6 0
BBX 3 2 2 -2
BITMAP
C0
60
ENDCHAR
STARTCHAR 02CF
ENCODING 719
SWIDTH 375 0
DWIDTH 6 0
BBX 3 2 2 -2
BITMAP
60
C0
ENDCHAR
STARTCHAR 02D0
ENCODING 720
SWIDTH 437 0
DWIDTH 7 0
BBX 3 5 3 2
BITMAP
E0
40
00
40
E0
ENDCHAR
STARTCHAR 02D1
ENCODING 721
SWIDTH 375 0
DWIDTH 6 0
BBX 3 2 2 5
BITMAP
E0
40
ENDCHAR
STARTCHAR 02D2
ENCODING 722
SWIDTH 312 0
DWIDTH 5 0
BBX 2 4 2 1
BITMAP
80
40
40
80
ENDCHAR
STARTCHAR 02D3
ENCODING 723
SWIDTH 312 0
DWIDTH 5 0
BBX 2 4 2 1
BITMAP
40
80
80
40
ENDCHAR
STARTCHAR 02D4
ENCODING 724
SWIDTH 375 0
DWIDTH 6 0
BBX 3 4 2 1
BITMAP
40
40
40
E0
ENDCHAR
STARTCHAR 02D5
ENCODING 725
SWIDTH 375 0
DWIDTH 6 0
BBX 3 3 2 1
BITMAP
E0
40
40
ENDCHAR
STARTCHAR 02D6
ENCODING 726
SWIDTH 375 0
DWIDTH 6 0
BBX 3 3 2 1
BITMAP
40
E0
40
ENDCHAR
STARTCHAR 02D7
ENCODING 727
SWIDTH 375 0
DWIDTH 6 0
BBX 3 1 2 2
BITMAP
E0
ENDCHAR
STARTCHAR 02D8
ENCODING 728
SWIDTH 375 0
DWIDTH 6 0
BBX 4 2 1 5
BITMAP
90
60
ENDCHAR
STARTCHAR 02D9
ENCODING 729
SWIDTH 312 0
DWIDTH 5 0
BBX 2 2 2 5
BITMAP
C0
C0
ENDCHAR
STARTCHAR 02DA
ENCODING 730
SWIDTH 375 0
DWIDTH 6 0
BBX 3 3 2 5
BITMAP
E0
A0
E0
ENDCHAR
STARTCHAR 02DB
ENCODING 731
SWIDTH 437 0
DWIDTH 7 0
BBX 4 3 2 -2
BITMAP
80
80
70
ENDCHAR
STARTCHAR 02DC
ENCODING 732
SWIDTH 437 0
DWIDTH 7 0
BBX 5 2 1 5
BITMAP
E8
B8
ENDCHAR
STARTCHAR 02DD
ENCODING 733
SWIDTH 500 0
DWIDTH 8 0
BBX 6 2 1 5
BITMAP
6C
D8
ENDCHAR
STARTCHAR 02E1
ENCODING 737
SWIDTH 250 0
DWIDTH 4 0
BBX 1 4 2 5
BITMAP
80
80
80
80
ENDCHAR
STARTCHAR 02E2
ENCODING 738
SWIDTH 375 0
DWIDTH 6 0
BBX 4 5 1 4
BITMAP
70
80
60
10
E0
ENDCHAR
STARTCHAR 02E3
ENCODING 739
SWIDTH 375 0
DWIDTH 6 0
BBX 4 4 1 5
BITMAP
90
60
60
90
ENDCHAR
STARTCHAR 02F8
ENCODING 760
SWIDTH 312 0
DWIDTH 5 0
BBX 1 6 3 1
BITMAP
80
00
00
00
00
80
ENDCHAR
STARTCHAR 0300
ENCODING 768
SWIDTH 375 0
DWIDTH 6 0
BBX 4 3 1 6
BITMAP
C0
60
30
ENDCHAR
STARTCHAR 0301
ENCODING 769
SWIDTH 375 0
DWIDTH 6 0
BBX 4 3 1 6
BITMAP
30
60
C0
ENDCHAR
STARTCHAR 0302
ENCODING 770
SWIDTH 437 0
DWIDTH 7 0
BBX 5 3 1 6
BITMAP
20
70
D8
ENDCHAR
STARTCHAR 0303
ENCODING 771
SWIDTH 437 0
DWIDTH 7 0
BBX 5 2 1 6
BITMAP
E8
B8
ENDCHAR
STARTCHAR 0304
ENCODING 772
SWIDTH 312 0
DWIDTH 5 0
BBX 3 1 1 7
BITMAP
E0
ENDCHAR
STARTCHAR 0305
ENCODING 773
SWIDTH 500 0
DWIDTH 8 0
BBX 6 1 1 7
BITMAP
FC
ENDCHAR
STARTCHAR 0306
ENCODING 774
SWIDTH 437 0
DWIDTH 7 0
BBX 5 2 1 7
BITMAP
88
70
ENDCHAR
STARTCHAR 0307
ENCODING 775
SWIDTH 312 0
DWIDTH 5 0
BBX 2 2 2 7
BITMAP
C0
C0
ENDCHAR
STARTCHAR 0308
ENCODING 776
SWIDTH 437 0
DWIDTH 7 0
BBX 5 2 1 7
BITMAP
D8
D8
ENDCHAR
STARTCHAR 0309
ENCODING 777
SWIDTH 375 0
DWIDTH 6 0
BBX 4 3 1 6
BITMAP
F0
30
60
ENDCHAR
STARTCHAR 030A
ENCODING 778
SWIDTH 312 0
DWIDTH 5 0
BBX 3 3 1 6
BITMAP
E0
A0
E0
ENDCHAR
STARTCHAR 030B
ENCODING 779
SWIDTH 500 0
DWIDTH 8 0
BBX 7 3 0 6
BITMAP
36
6C
D8
ENDCHAR
STARTCHAR 030C
ENCODING 780
SWIDTH 500 0
DWIDTH 8 0
BBX 6 3 1 6
BITMAP
CC
78
30
ENDCHAR
STARTCHAR 030D
ENCODING 781
SWIDTH 250 0
DWIDTH 4 0
BBX 1 3 2 6
BITMAP
80
80
80
ENDCHAR
STARTCHAR 030E
ENCODING 782
SWIDTH 312 0
DWIDTH 5 0
BBX 3 3 1 6
BITMAP
A0
A0
A0
ENDCHAR
STARTCHAR 030F
ENCODING 783
SWIDTH 562 0
DWIDTH 9 0
BBX 7 3 1 6
BITMAP
D8
6C
36
ENDCHAR
STARTCHAR 0310
ENCODING 784
SWIDTH 437 0
DWIDTH 7 0
BBX 5 3 1 6
BITMAP
20
88
70
ENDCHAR
STARTCHAR 0311
ENCODING 785
SWIDTH 375 0
DWIDTH 6 0
BBX 4 2 1 7
BITMAP
60
90
ENDCHAR
STARTCHAR 0312
ENCODING 786
SWIDTH 312 0
DWIDTH 5 0
BBX 2 3 2 6
BITMAP
40
80
C0
ENDCHAR
STARTCHAR 0313
ENCODING 787
SWIDTH 375 0
DWIDTH 6 0
BBX 2 3 3 6
BITMAP
C0
40
80
ENDCHAR
STARTCHAR 0315
ENCODING 789
SWIDTH 437 0
DWIDTH 7 0
BBX 2 3 4 6
BITMAP
C0
40
80
ENDCHAR
STARTCHAR 0316
ENCODING 790
SWIDTH 312 0
DWIDTH 5 0
BBX 3 2 1 -2
BITMAP
C0
60
ENDCHAR
STARTCHAR 0317
ENCODING 791
SWIDTH 312 0
DWIDTH 5 0
BBX 3 2 1 -2
BITMAP
60
C0
ENDCHAR
STARTCHAR 0318
ENCODING 792
SWIDTH 312 0
DWIDTH 5 0
BBX 3 3 1 -3
BITMAP
20
E0
20
ENDCHAR
STARTCHAR 0319
ENCODING 793
SWIDTH 312 0
DWIDTH 5 0
BBX 3 3 1 -3
BITMAP
80
E0
80
ENDCHAR
STARTCHAR 031A
ENCODING 794
SWIDTH 375 0
DWIDTH 6 0
BBX 4 4 1 6
BITMAP
F0
10
10
10
ENDCHAR
STARTCHAR 031B
ENCODING 795
SWIDTH 312 0
DWIDTH 5 0
BBX 3 4 1 5
BITMAP
60
20
40
80
ENDCHAR
STARTCHAR 031C
ENCODING 796
SWIDTH 312 0
DWIDTH 5 0
BBX 2 3 2 -3
BITMAP
40
80
40
ENDCHAR
STARTCHAR 031D
ENCODING 797
SWIDTH 312 0
DWIDTH 5 0
BBX 3 2 1 -2
BITMAP
40
E0
ENDCHAR
STARTCHAR 031E
ENCODING 798
SWIDTH 312 0
DWIDTH 5 0
BBX 3 2 1 -2
BITMAP
E0
40
ENDCHAR
STARTCHAR 031F
ENCODING 799
SWIDTH 312 0
DWIDTH 5 0
BBX 3 3 1 -3
BITMAP
40
E0
40
ENDCHAR
STARTCHAR 0320
ENCODING 800
SWIDTH 375 0
DWIDTH 6 0
BBX 4 1 1 -2
BITMAP
F0
ENDCHAR
STARTCHAR 0321
ENCODING 801
SWIDTH 312 0
DWIDTH 5 0
BBX 2 3 2 -3
BITMAP
40
40
80
ENDCHAR
STARTCHAR 0322
ENCODING 802
SWIDTH 375 0
DWIDTH 6 0
BBX 3 3 2 -3
BITMAP
80
80
60
ENDCHAR
STARTCHAR 0323
ENCODING 803
SWIDTH 312 0
DWIDTH 5 0
BBX 2 2 2 -2
BITMAP
C0
C0
ENDCHAR
STARTCHAR 0324
ENCODING 804
SWIDTH 312 0
DWIDTH 5 0
BBX 3 1 1 -2
BITMAP
A0
ENDCHAR
STARTCHAR 0325
ENCODING 805
SWIDTH 312 0
DWIDTH 5 0
BBX 3 3 1 -3
BITMAP
40
A0
40
ENDCHAR
STARTCHAR 0326
ENCODING 806
SWIDTH 250 0
DWIDTH 4 0
BBX 2 3 1 -3
BITMAP
C0
40
80
ENDCHAR
STARTCHAR 0327
ENCODING 807
SWIDTH 250 0
DWIDTH 4 0
BBX 3 3 0 -3
BITMAP
40
20
E0
ENDCHAR
STARTCHAR 0328
ENCODING 808
SWIDTH 250 0
DWIDTH 4 0
BBX 3 3 0 -3
BITMAP
40
80
E0
ENDCHAR
STARTCHAR 0329
ENCODING 809
SWIDTH 187 0
DWIDTH 3 0
BBX 1 3 1 -3
BITMAP
80
80
80
ENDCHAR
STARTCHAR 032A
ENCODING 810
SWIDTH 375 0
DWIDTH 6 0
BBX 4 2 1 -2
BITMAP
F0
90
ENDCHAR
STARTCHAR 032B
ENCODING 811
SWIDTH 562 0
DWIDTH 9 0
BBX 7 2 1 -2
BITMAP
92
FE
ENDCHAR
STARTCHAR 032C
ENCODING 812
SWIDTH 437 0
DWIDTH 7 0
BBX 4 2 2 -2
BITMAP
90
60
ENDCHAR
STARTCHAR 032E
ENCODING 814
SWIDTH 500 0
DWIDTH 8 0
BBX 5 2 2 -2
BITMAP
88
70
ENDCHAR
STARTCHAR 032F
ENCODING 815
SWIDTH 500 0
DWIDTH 8 0
BBX 5 2 2 -2
BITMAP
70
88
ENDCHAR
STARTCHAR 0330
ENCODING 816
SWIDTH 562 0
DWIDTH 9 0
BBX 6 2 2 -2
BITMAP
64
98
ENDCHAR
STARTCHAR 0331
ENCODING 817
SWIDTH 375 0
DWIDTH 6 0
BBX 4 1 1 -2
BITMAP
F0
ENDCHAR
STARTCHAR 0332
ENCODING 818
SWIDTH 437 0
DWIDTH 7 0
BBX 6 1 0 -2
BITMAP
FC
ENDCHAR
STARTCHAR 0333
ENCODING 819
SWIDTH 500 0
DWIDTH 8 0
BBX 7 3 0 -3
BITMAP
FE
00
FE
ENDCHAR
STARTCHAR 0334
ENCODING 820
SWIDTH 500 0
DWIDTH 8 0
BBX 6 2 1 4
BITMAP
64
98
ENDCHAR
STARTCHAR 0335
ENCODING 821
SWIDTH 375 0
DWIDTH 6 0
BBX 5 1 0 4
BITMAP
F8
ENDCHAR
STARTCHAR 0336
ENCODING 822
SWIDTH 437 0
DWIDTH 7 0
BBX 6 1 0 3
BITMAP
FC
ENDCHAR
STARTCHAR 0337
ENCODING 823
SWIDTH 437 0
DWIDTH 7 0
BBX 6 6 0 1
BITMAP
04
08
10
20
40
80
ENDCHAR
STARTCHAR 0339
ENCODING 825
SWIDTH 312 0
DWIDTH 5 0
BBX 2 3 2 -3
BITMAP
80
40
80
ENDCHAR
STARTCHAR 033A
ENCODING 826
SWIDTH 437 0
DWIDTH 7 0
BBX 5 2 1 -2
BITMAP
88
F8
ENDCHAR
STARTCHAR 033B
ENCODING 827
SWIDTH 312 0
DWIDTH 5 0
BBX 3 3 1 -3
BITMAP
E0
A0
E0
ENDCHAR
STARTCHAR 033C
ENCODING 828
SWIDTH 437 0
DWIDTH 7 0
BBX 5 2 1 -2
BITMAP
F8
20
ENDCHAR
STARTCHAR 033D
ENCODING 829
SWIDTH 312 0
DWIDTH 5 0
BBX 3 3 1 9
BITMAP
A0
40
A0
ENDCHAR
STARTCHAR 033E
ENCODING 830
SWIDTH 312 0
DWIDTH 5 0
BBX 2 4 2 8
BITMAP
40
80
40
80
ENDCHAR
STARTCHAR 033F
ENCODING 831
SWIDTH 500 0
DWIDTH 8 0
BBX 7 3 0 8
BITMAP
FE
00
FE
ENDCHAR
STARTCHAR 0341
ENCODING 833
SWIDTH 375 0
DWIDTH 6 0
BBX 3 3 2 9
BITMAP
20
40
80
ENDCHAR
STARTCHAR 0342
ENCODING 834
SWIDTH 500 0
DWIDTH 8 0
BBX 7 2 0 9
BITMAP
72
8C
ENDCHAR
STARTCHAR 0343
ENCODING 835
SWIDTH 312 0
DWIDTH 5 0
BBX 2 3 2 8
BITMAP
C0
40
80
ENDCHAR
STARTCHAR 0344
ENCODING 836
SWIDTH 500 0
DWIDTH 8 0
BBX 6 3 1 8
BITMAP
08
94
20
ENDCHAR
STARTCHAR 0345
ENCODING 837
SWIDTH 187 0
DWIDTH 3 0
BBX 1 2 1 -2
BITMAP
80
80
ENDCHAR
STARTCHAR 0346
ENCODING 838
SWIDTH 375 0
DWIDTH 6 0
BBX 5 2 0 10
BITMAP
F8
88
ENDCHAR
STARTCHAR 0347
ENCODING 839
SWIDTH 375 0
DWIDTH 6 0
BBX 5 3 0 -3
BITMAP
F8
00
F8
ENDCHAR
STARTCHAR 0348
ENCODING 840
SWIDTH 312 0
DWIDTH 5 0
BBX 3 2 1 -2
BITMAP
A0
A0
ENDCHAR
STARTCHAR 0349
ENCODING 841
SWIDTH 250 0
DWIDTH 4 0
BBX 3 2 0 -2
BITMAP
E0
20
ENDCHAR
STARTCHAR 034A
ENCODING 842
SWIDTH 500 0
DWIDTH 8 0
BBX 6 3 1 9
BITMAP
10
F4
BC
ENDCHAR
STARTCHAR 034B
ENCODING 843
SWIDTH 500 0
DWIDTH 8 0
BBX 6 4 1 8
BITMAP
10
64
98
20
ENDCHAR
STARTCHAR 034C
ENCODING 844
SWIDTH 562 0
DWIDTH 9 0
BBX 7 4 1 7
BITMAP
72
8C
72
8C
ENDCHAR
STARTCHAR 034D
ENCODING 845
SWIDTH 437 0
DWIDTH 7 0
BBX 6 3 0 -3
BITMAP
48
FC
48
ENDCHAR
STARTCHAR 034E
ENCODING 846
SWIDTH 312 0
DWIDTH 5 0
BBX 3 4 1 -3
BITMAP
40
E0
40
40
ENDCHAR
STARTCHAR 0360
ENCODING 864
SWIDTH 750 0
DWIDTH 12 0
BBX 10 2 1 6
BITMAP
7840
8780
ENDCHAR
STARTCHAR 0362
ENCODING 866
SWIDTH 625 0
DWIDTH 10 0
BBX 9 3 0 -2
BITMAP
0100
FF80
0100
ENDCHAR
STARTCHAR 0384
ENCODING 900
SWIDTH 375 0
DWIDTH 6 0
BBX 3 2 2 5
BITMAP
60
C0
ENDCHAR
STARTCHAR 0385
ENCODING 901
SWIDTH 562 0
DWIDTH 9 0
BBX 7 2 1 5
BITMAP
98
32
ENDCHAR
STARTCHAR 0386
ENCODING 902
SWIDTH 500 0
DWIDTH 8 0
BBX 6 10 1 0
BITMAP
18
30
00
78
CC
CC
CC
FC
CC
CC
ENDCHAR
STARTCHAR 0387
ENCODING 903
SWIDTH 375 0
DWIDTH 6 0
BBX 2 2 3 3
BITMAP
C0
C0
ENDCHAR
STARTCHAR 0388
ENCODING 904
SWIDTH 562 0
DWIDTH 9 0
BBX 7 10 1 0
BITMAP
18
30
00
FE
62
68
78
68
62
FE
ENDCHAR
STARTCHAR 0389
ENCODING 905
SWIDTH 562 0
DWIDTH 9 0
BBX 7 10 1 0
BITMAP
18
30
00
C6
C6
C6
FE
C6
C6
C6
ENDCHAR
STARTCHAR 038A
ENCODING 906
SWIDTH 562 0
DWIDTH 9 0
BBX 7 7 1 0
BITMAP
6E
CC
0C
0C
0C
0C
1E
ENDCHAR
STARTCHAR 038C
ENCODING 908
SWIDTH 562 0
DWIDTH 9 0
BBX 7 10 1 0
BITMAP
18
30
00
7C
C6
C6
C6
C6
C6
7C
ENDCHAR
STARTCHAR 038E
ENCODING 910
SWIDTH 500 0
DWIDTH 8 0
BBX 6 10 1 0
BITMAP
18
30
00
CC
CC
CC
78
30
30
78
ENDCHAR
STARTCHAR 038F
ENCODING 911
SWIDTH 562 0
DWIDTH 9 0
BBX 7 10 1 0
BITMAP
18
30
00
7C
C6
C6
C6
C6
6C
C6
ENDCHAR
STARTCHAR 0390
ENCODING 912
SWIDTH 437 0
DWIDTH 7 0
BBX 5 8 1 0
BITMAP
B0
68
00
E0
60
60
60
70
ENDCHAR
STARTCHAR 0391
ENCODING 913
SWIDTH 500 0
DWIDTH 8 0
BBX 6 7 1 0
BITMAP
78
CC
CC
CC
FC
CC
CC
ENDCHAR
STARTCHAR 0392
ENCODING 914
SWIDTH 562 0
DWIDTH 9 0
BBX 7 7 1 0
BITMAP
FC
66
66
7C
66
66
FC
ENDCHAR
STARTCHAR 0393
ENCODING 915
SWIDTH 562 0
DWIDTH 9 0
BBX 7 7 1 0
BITMAP
FE
62
60
60
60
60
F0
ENDCHAR
STARTCHAR 0394
ENCODING 916
SWIDTH 500 0
DWIDTH 8 0
BBX 6 7 1 0
BITMAP
78
CC
CC
CC
CC
CC
FC
ENDCHAR
STARTCHAR 0395
ENCODING 917
SWIDTH 562 0
DWIDTH 9 0
BBX 7 7 1 0
BITMAP
FE
62
68
78
68
62
FE
ENDCHAR
STARTCHAR 0396
ENCODING 918
SWIDTH 500 0
DWIDTH 8 0
BBX 6 7 1 0
BITMAP
FC
CC
18
30
60
CC
FC
ENDCHAR
STARTCHAR 0397
ENCODING 919
SWIDTH 562 0
DWIDTH 9 0
BBX 7 7 1 0
BITMAP
C6
C6
C6
FE
C6
C6
C6
ENDCHAR
STARTCHAR 0398
ENCODING 920
SWIDTH 562 0
DWIDTH 9 0
BBX 7 7 1 0
BITMAP
7C
C6
C6
D6
C6
C6
7C
ENDCHAR
STARTCHAR 0399
ENCODING 921
SWIDTH 375 0
DWIDTH 6 0
BBX 4 7 1 0
BITMAP
F0
60
60
60
60
60
F0
ENDCHAR
STARTCHAR 039A
ENCODING 922
SWIDTH 562 0
DWIDTH 9 0
BBX 7 7 1 0
BITMAP
C6
CC
D8
F0
D8
CC
C6
ENDCHAR
STARTCHAR 039B
ENCODING 923
SWIDTH 500 0
DWIDTH 8 0
BBX 6 7 1 0
BITMAP
78
CC
CC
CC
CC
CC
CC
ENDCHAR
STARTCHAR 039C
ENCODING 924
SWIDTH 562 0
DWIDTH 9 0
BBX 7 7 1 0
BITMAP
C6
EE
FE
D6
C6
C6
C6
ENDCHAR
STARTCHAR 039D
ENCODING 925
SWIDTH 500 0
DWIDTH 8 0
BBX 6 7 1 0
BITMAP
CC
EC
FC
DC
CC
CC
CC
ENDCHAR
STARTCHAR 039E
ENCODING 926
SWIDTH 562 0
DWIDTH 9 0
BBX 7 7 1 0
BITMAP
FE
C6
00
7C
00
C6
FE
ENDCHAR
STARTCHAR 039F
ENCODING 927
SWIDTH 562 0
DWIDTH 9 0
BBX 7 7 1 0
BITMAP
7C
C6
C6
C6
C6
C6
7C
ENDCHAR
STARTCHAR 03A0
ENCODING 928
SWIDTH 562 0
DWIDTH 9 0
BBX 7 7 1 0
BITMAP
FE
C6
C6
C6
C6
C6
C6
ENDCHAR
STARTCHAR 03A1
ENCODING 929
SWIDTH 562 0
DWIDTH 9 0
BBX 7 7 1 0
BITMAP
FC
66
66
7C
60
60
F0
ENDCHAR
STARTCHAR 03A3
ENCODING 931
SWIDTH 500 0
DWIDTH 8 0
BBX 6 7 1 0
BITMAP
FC
CC
60
30
60
CC
FC
ENDCHAR
STARTCHAR 03A4
ENCODING 932
SWIDTH 500 0
DWIDTH 8 0
BBX 6 7 1 0
BITMAP
FC
B4
30
30
30
30
78
ENDCHAR
STARTCHAR 03A5
ENCODING 933
SWIDTH 500 0
DWIDTH 8 0
BBX 6 7 1 0
BITMAP
CC
CC
CC
78
30
30
78
ENDCHAR
STARTCHAR 03A6
ENCODING 934
SWIDTH 625 0
DWIDTH 10 0
BBX 8 7 1 0
BITMAP
3C
18
7E
DB
7E
18
3C
ENDCHAR
STARTCHAR 03A7
ENCODING 935
SWIDTH 562 0
DWIDTH 9 0
BBX 7 7 1 0
BITMAP
C6
6C
38
38
38
6C
C6
ENDCHAR
STARTCHAR 03A8
ENCODING 936
SWIDTH 625 0
DWIDTH 10 0
BBX 8 7 1 0
BITMAP
DB
DB
DB
DB
7E
18
3C
ENDCHAR
STARTCHAR 03A9
ENCODING 937
SWIDTH 562 0
DWIDTH 9 0
BBX 7 7 1 0
BITMAP
7C
C6
C6
C6
C6
6C
C6
ENDCHAR
STARTCHAR 03AA
ENCODING 938
SWIDTH 375 0
DWIDTH 6 0
BBX 4 9 1 0
BITMAP
90
00
F0
60
60
60
60
60
F0
ENDCHAR
STARTCHAR 03AB
ENCODING 939
SWIDTH 500 0
DWIDTH 8 0
BBX 6 9 1 0
BITMAP
48
00
CC
CC
CC
78
30
30
78
ENDCHAR
STARTCHAR 03AC
ENCODING 940
SWIDTH 562 0
DWIDTH 9 0
BBX 7 8 1 0
BITMAP
18
30
00
78
CC
CC
CC
76
ENDCHAR
STARTCHAR 03AD
ENCODING 941
SWIDTH 500 0
DWIDTH 8 0
BBX 6 8 1 0
BITMAP
18
30
00
78
CC
60
CC
78
ENDCHAR
STARTCHAR 03AE
ENCODING 942
SWIDTH 500 0
DWIDTH 8 0
BBX 6 9 1 -1
BITMAP
18
30
00
F8
CC
CC
CC
CC
0C
ENDCHAR
STARTCHAR 03AF
ENCODING 943
SWIDTH 375 0
DWIDTH 6 0
BBX 4 8 1 0
BITMAP
30
60
00
E0
60
60
60
70
ENDCHAR
STARTCHAR 03B0
ENCODING 944
SWIDTH 500 0
DWIDTH 8 0
BBX 6 8 1 0
BITMAP
B0
68
00
CC
CC
CC
CC
78
ENDCHAR
STARTCHAR 03B1
ENCODING 945
SWIDTH 562 0
DWIDTH 9 0
BBX 7 5 1 0
BITMAP
78
CC
CC
CC
76
ENDCHAR
STARTCHAR 03B2
ENCODING 946
SWIDTH 500 0
DWIDTH 8 0
BBX 6 8 1 -1
BITMAP
78
CC
CC
F8
CC
CC
F8
C0
ENDCHAR
STARTCHAR 03B3
ENCODING 947
SWIDTH 500 0
DWIDTH 8 0
BBX 6 6 1 -1
BITMAP
CC
CC
CC
78
30
30
ENDCHAR
STARTCHAR 03B4
ENCODING 948
SWIDTH 500 0
DWIDTH 8 0
BBX 6 7 1 0
BITMAP
FC
C0
78
CC
CC
CC
78
ENDCHAR
STARTCHAR 03B5
ENCODING 949
SWIDTH 500 0
DWIDTH 8 0
BBX 6 5 1 0
BITMAP
78
CC
60
CC
78
ENDCHAR
STARTCHAR 03B6
ENCODING 950
SWIDTH 500 0
DWIDTH 8 0
BBX 6 8 1 -1
BITMAP
FC
0C
78
C0
C0
7C
0C
F8
ENDCHAR
STARTCHAR 03B7
ENCODING 951
SWIDTH 500 0
DWIDTH 8 0
BBX 6 6 1 -1
BITMAP
F8
CC
CC
CC
CC
0C
ENDCHAR
STARTCHAR 03B8
ENCODING 952
SWIDTH 500 0
DWIDTH 8 0
BBX 6 5 1 0
BITMAP
78
CC
FC
CC
78
ENDCHAR
STARTCHAR 03B9
ENCODING 953
SWIDTH 375 0
DWIDTH 6 0
BBX 4 5 1 0
BITMAP
E0
60
60
60
70
ENDCHAR
STARTCHAR 03BA
ENCODING 954
SWIDTH 500 0
DWIDTH 8 0
BBX 6 5 1 0
BITMAP
CC
D8
F0
D8
CC
ENDCHAR
STARTCHAR 03BB
ENCODING 955
SWIDTH 500 0
DWIDTH 8 0
BBX 6 7 1 0
BITMAP
78
0C
7C
CC
CC
CC
CC
ENDCHAR
STARTCHAR 03BC
ENCODING 956
SWIDTH 500 0
DWIDTH 8 0
BBX 6 6 1 -1
BITMAP
CC
CC
CC
CC
F8
C0
ENDCHAR
STARTCHAR 03BD
ENCODING 957
SWIDTH 500 0
DWIDTH 8 0
BBX 6 5 1 0
BITMAP
CC
CC
CC
78
30
ENDCHAR
STARTCHAR 03BE
ENCODING 958
SWIDTH 500 0
DWIDTH 8 0
BBX 6 8 1 -1
BITMAP
7C
C0
78
C0
C0
7C
0C
F8
ENDCHAR
STARTCHAR 03BF
ENCODING 959
SWIDTH 500 0
DWIDTH 8 0
BBX 6 5 1 0
BITMAP
78
CC
CC
CC
78
ENDCHAR
STARTCHAR 03C0
ENCODING 960
SWIDTH 562 0
DWIDTH 9 0
BBX 7 5 1 0
BITMAP
FE
68
68
6A
64
ENDCHAR
STARTCHAR 03C1
ENCODING 961
SWIDTH 500 0
DWIDTH 8 0
BBX 6 6 1 -1
BITMAP
78
CC
CC
F8
C0
C0
ENDCHAR
STARTCHAR 03C2
ENCODING 962
SWIDTH 500 0
DWIDTH 8 0
BBX 6 6 1 -1
BITMAP
7C
C0
C0
7C
0C
F8
ENDCHAR
STARTCHAR 03C3
ENCODING 963
SWIDTH 562 0
DWIDTH 9 0
BBX 7 5 1 0
BITMAP
7E
CC
CC
CC
78
ENDCHAR
STARTCHAR 03C4
ENCODING 964
SWIDTH 500 0
DWIDTH 8 0
BBX 6 5 1 0
BITMAP
FC
B0
30
30
18
ENDCHAR
STARTCHAR 03C5
ENCODING 965
SWIDTH 500 0
DWIDTH 8 0
BBX 6 5 1 0
BITMAP
CC
CC
CC
CC
78
ENDCHAR
STARTCHAR 03C6
ENCODING 966
SWIDTH 687 0
DWIDTH 11 0
BBX 9 6 1 -1
BITMAP
6F00
C980
C980
C980
7F00
0800
ENDCHAR
STARTCHAR 03C7
ENCODING 967
SWIDTH 562 0
DWIDTH 9 0
BBX 7 6 1 -1
BITMAP
C6
6C
38
6C
C6
C6
ENDCHAR
STARTCHAR 03C8
ENCODING 968
SWIDTH 625 0
DWIDTH 10 0
BBX 8 6 1 -1
BITMAP
DB
DB
DB
DB
7E
18
ENDCHAR
STARTCHAR 03C9
ENCODING 969
SWIDTH 687 0
DWIDTH 11 0
BBX 9 5 1 0
BITMAP
6300
C180
C980
C980
7700
ENDCHAR
STARTCHAR 03CA
ENCODING 970
SWIDTH 375 0
DWIDTH 6 0
BBX 4 7 1 0
BITMAP
90
00
E0
60
60
60
70
ENDCHAR
STARTCHAR 03CB
ENCODING 971
SWIDTH 500 0
DWIDTH 8 0
BBX 6 8 1 0
BITMAP
6C
6C
00
CC
CC
CC
CC
78
ENDCHAR
STARTCHAR 03CC
ENCODING 972
SWIDTH 500 0
DWIDTH 8 0
BBX 6 8 1 0
BITMAP
18
30
00
78
CC
CC
CC
78
ENDCHAR
STARTCHAR 03CD
ENCODING 973
SWIDTH 500 0
DWIDTH 8 0
BBX 6 8 1 0
BITMAP
18
30
00
CC
CC
CC
CC
78
ENDCHAR
STARTCHAR 03CE
ENCODING 974
SWIDTH 687 0
DWIDTH 11 0
BBX 9 8 1 0
BITMAP
0C00
1800
0000
6300
C180
C980
C980
7700
ENDCHAR
STARTCHAR 0401
ENCODING 1025
SWIDTH 562 0
DWIDTH 9 0
BBX 7 9 1 0
BITMAP
6C
00
FE
62
68
78
68
62
FE
ENDCHAR
STARTCHAR 0402
ENCODING 1026
SWIDTH 625 0
DWIDTH 10 0
BBX 8 7 1 0
BITMAP
FC
B4
30
3E
33
33
76
ENDCHAR
STARTCHAR 0403
ENCODING 1027
SWIDTH 562 0
DWIDTH 9 0
BBX 7 10 1 0
BITMAP
18
30
00
FE
62
60
60
60
60
F0
ENDCHAR
STARTCHAR 0404
ENCODING 1028
SWIDTH 562 0
DWIDTH 9 0
BBX 7 7 1 0
BITMAP
7C
C6
D0
F0
D0
C6
7C
ENDCHAR
STARTCHAR 0405
ENCODING 1029
SWIDTH 500 0
DWIDTH 8 0
BBX 6 7 1 0
BITMAP
78
CC
C0
78
0C
CC
78
ENDCHAR
STARTCHAR 0406
ENCODING 1030
SWIDTH 375 0
DWIDTH 6 0
BBX 4 7 1 0
BITMAP
F0
60
60
60
60
60
F0
ENDCHAR
STARTCHAR 0407
ENCODING 1031
SWIDTH 437 0
DWIDTH 7 0
BBX 5 10 1 0
BITMAP
D8
D8
00
F0
60
60
60
60
60
F0
ENDCHAR
STARTCHAR 0408
ENCODING 1032
SWIDTH 562 0
DWIDTH 9 0
BBX 7 7 1 0
BITMAP
1E
0C
0C
0C
0C
CC
78
ENDCHAR
STARTCHAR 0409
ENCODING 1033
SWIDTH 687 0
DWIDTH 11 0
BBX 9 7 1 0
BITMAP
7E00
3400
3700
3580
3580
B580
E700
ENDCHAR
STARTCHAR 040A
ENCODING 1034
SWIDTH 625 0
DWIDTH 10 0
BBX 8 7 1 0
BITMAP
EC
68
7E
6B
6B
6B
EE
ENDCHAR
STARTCHAR 040B
ENCODING 1035
SWIDTH 625 0
DWIDTH 10 0
BBX 8 7 1 0
BITMAP
FC
B4
30
3E
33
33
7B
ENDCHAR
STARTCHAR 040C
ENCODING 1036
SWIDTH 562 0
DWIDTH 9 0
BBX 7 10 1 0
BITMAP
18
30
00
CE
DA
D8
F0
D8
CC
C6
ENDCHAR
STARTCHAR 040D
ENCODING 1037
SWIDTH 562 0
DWIDTH 9 0
BBX 7 9 1 0
BITMAP
30
18
C6
C6
CE
DE
F6
E6
C6
ENDCHAR
STARTCHAR 040E
ENCODING 1038
SWIDTH 500 0
DWIDTH 8 0
BBX 6 10 1 0
BITMAP
48
30
00
CC
CC
CC
7C
0C
CC
78
ENDCHAR
STARTCHAR 040F
ENCODING 1039
SWIDTH 562 0
DWIDTH 9 0
BBX 7 9 1 -2
BITMAP
C6
C6
C6
C6
C6
C6
FE
10
10
ENDCHAR
STARTCHAR 0410
ENCODING 1040
SWIDTH 500 0
DWIDTH 8 0
BBX 6 7 1 0
BITMAP
78
CC
CC
CC
FC
CC
CC
ENDCHAR
STARTCHAR 0411
ENCODING 1041
SWIDTH 562 0
DWIDTH 9 0
BBX 7 7 1 0
BITMAP
FE
62
60
7C
66
66
FC
ENDCHAR
STARTCHAR 0412
ENCODING 1042
SWIDTH 562 0
DWIDTH 9 0
BBX 7 7 1 0
BITMAP
FC
66
66
7C
66
66
FC
ENDCHAR
STARTCHAR 0413
ENCODING 1043
SWIDTH 562 0
DWIDTH 9 0
BBX 7 7 1 0
BITMAP
FE
62
60
60
60
60
F0
ENDCHAR
STARTCHAR 0414
ENCODING 1044
SWIDTH 625 0
DWIDTH 10 0
BBX 8 8 1 -1
BITMAP
7E
66
66
66
66
C6
FF
C3
ENDCHAR
STARTCHAR 0415
ENCODING 1045
SWIDTH 562 0
DWIDTH 9 0
BBX 7 7 1 0
BITMAP
FE
62
68
78
68
62
FE
ENDCHAR
STARTCHAR 0416
ENCODING 1046
SWIDTH 562 0
DWIDTH 9 0
BBX 7 7 1 0
BITMAP
D6
D6
7C
38
7C
D6
D6
ENDCHAR
STARTCHAR 0417
ENCODING 1047
SWIDTH 500 0
DWIDTH 8 0
BBX 6 7 1 0
BITMAP
F8
8C
0C
38
0C
CC
78
ENDCHAR
STARTCHAR 0418
ENCODING 1048
SWIDTH 500 0
DWIDTH 8 0
BBX 6 7 1 0
BITMAP
CC
DC
FC
EC
CC
CC
CC
ENDCHAR
STARTCHAR 0419
ENCODING 1049
SWIDTH 500 0
DWIDTH 8 0
BBX 6 10 1 0
BITMAP
48
30
00
CC
DC
FC
EC
CC
CC
CC
ENDCHAR
STARTCHAR 041A
ENCODING 1050
SWIDTH 562 0
DWIDTH 9 0
BBX 7 7 1 0
BITMAP
CE
DA
D8
F0
D8
CC
C6
ENDCHAR
STARTCHAR 041B
ENCODING 1051
SWIDTH 562 0
DWIDTH 9 0
BBX 7 7 1 0
BITMAP
7E
66
66
66
66
66
C6
ENDCHAR
STARTCHAR 041C
ENCODING 1052
SWIDTH 562 0
DWIDTH 9 0
BBX 7 7 1 0
BITMAP
C6
EE
FE
D6
C6
C6
C6
ENDCHAR
STARTCHAR 041D
ENCODING 1053
SWIDTH 562 0
DWIDTH 9 0
BBX 7 7 1 0
BITMAP
C6
C6
C6
FE
C6
C6
C6
ENDCHAR
STARTCHAR 041E
ENCODING 1054
SWIDTH 562 0
DWIDTH 9 0
BBX 7 7 1 0
BITMAP
7C
C6
C6
C6
C6
C6
7C
ENDCHAR
STARTCHAR 041F
ENCODING 1055
SWIDTH 562 0
DWIDTH 9 0
BBX 7 7 1 0
BITMAP
FE
C6
C6
C6
C6
C6
C6
ENDCHAR
STARTCHAR 0420
ENCODING 1056
SWIDTH 562 0
DWIDTH 9 0
BBX 7 7 1 0
BITMAP
FC
66
66
7C
60
60
F0
ENDCHAR
STARTCHAR 0421
ENCODING 1057
SWIDTH 562 0
DWIDTH 9 0
BBX 7 7 1 0
BITMAP
7C
C6
C0
C0
C0
C6
7C
ENDCHAR
STARTCHAR 0422
ENCODING 1058
SWIDTH 500 0
DWIDTH 8 0
BBX 6 7 1 0
BITMAP
FC
B4
30
30
30
30
78
ENDCHAR
STARTCHAR 0423
ENCODING 1059
SWIDTH 500 0
DWIDTH 8 0
BBX 6 7 1 0
BITMAP
CC
CC
CC
7C
0C
CC
78
ENDCHAR
STARTCHAR 0424
ENCODING 1060
SWIDTH 625 0
DWIDTH 10 0
BBX 8 7 1 0
BITMAP
3C
18
7E
DB
7E
18
3C
ENDCHAR
STARTCHAR 0425
ENCODING 1061
SWIDTH 562 0
DWIDTH 9 0
BBX 7 7 1 0
BITMAP
C6
6C
38
38
38
6C
C6
ENDCHAR
STARTCHAR 0426
ENCODING 1062
SWIDTH 625 0
DWIDTH 10 0
BBX 8 8 1 -1
BITMAP
C6
C6
C6
C6
C6
C6
FF
03
ENDCHAR
STARTCHAR 0427
ENCODING 1063
SWIDTH 500 0
DWIDTH 8 0
BBX 6 7 1 0
BITMAP
CC
CC
CC
7C
0C
0C
0C
ENDCHAR
STARTCHAR 0428
ENCODING 1064
SWIDTH 562 0
DWIDTH 9 0
BBX 7 7 1 0
BITMAP
D6
D6
D6
D6
D6
D6
FE
ENDCHAR
STARTCHAR 0429
ENCODING 1065
SWIDTH 625 0
DWIDTH 10 0
BBX 8 8 1 -1
BITMAP
D6
D6
D6
D6
D6
D6
FF
03
ENDCHAR
STARTCHAR 042A
ENCODING 1066
SWIDTH 687 0
DWIDTH 11 0
BBX 9 7 1 0
BITMAP
FC00
9800
1800
1F00
1980
1980
3F00
ENDCHAR
STARTCHAR 042B
ENCODING 1067
SWIDTH 812 0
DWIDTH 13 0
BBX 11 7 1 0
BITMAP
F1E0
60C0
60C0
7CC0
66C0
66C0
FDE0
ENDCHAR
STARTCHAR 042C
ENCODING 1068
SWIDTH 562 0
DWIDTH 9 0
BBX 7 7 1 0
BITMAP
F0
60
60
7C
66
66
FC
ENDCHAR
STARTCHAR 042D
ENCODING 1069
SWIDTH 562 0
DWIDTH 9 0
BBX 7 7 1 0
BITMAP
7C
C6
06
1E
06
C6
7C
ENDCHAR
STARTCHAR 042E
ENCODING 1070
SWIDTH 812 0
DWIDTH 13 0
BBX 11 7 1 0
BITMAP
E7C0
6C60
6C60
7C60
6C60
6C60
E7C0
ENDCHAR
STARTCHAR 042F
ENCODING 1071
SWIDTH 562 0
DWIDTH 9 0
BBX 7 7 1 0
BITMAP
7E
CC
CC
7C
6C
CC
DE
ENDCHAR
STARTCHAR 0430
ENCODING 1072
SWIDTH 562 0
DWIDTH 9 0
BBX 7 5 1 0
BITMAP
78
0C
7C
CC
76
ENDCHAR
STARTCHAR 0431
ENCODING 1073
SWIDTH 500 0
DWIDTH 8 0
BBX 6 8 1 0
BITMAP
0C
78
C0
F8
CC
CC
CC
78
ENDCHAR
STARTCHAR 0432
ENCODING 1074
SWIDTH 500 0
DWIDTH 8 0
BBX 6 5 1 0
BITMAP
F8
CC
F8
CC
F8
ENDCHAR
STARTCHAR 0433
ENCODING 1075
SWIDTH 437 0
DWIDTH 7 0
BBX 5 5 1 0
BITMAP
F8
C8
C0
C0
C0
ENDCHAR
STARTCHAR 0434
ENCODING 1076
SWIDTH 562 0
DWIDTH 9 0
BBX 7 6 1 -1
BITMAP
3C
2C
2C
4C
FE
C6
ENDCHAR
STARTCHAR 0435
ENCODING 1077
SWIDTH 500 0
DWIDTH 8 0
BBX 6 5 1 0
BITMAP
78
CC
FC
C0
78
ENDCHAR
STARTCHAR 0436
ENCODING 1078
SWIDTH 625 0
DWIDTH 10 0
BBX 8 5 1 0
BITMAP
DB
DB
7E
DB
DB
ENDCHAR
STARTCHAR 0437
ENCODING 1079
SWIDTH 500 0
DWIDTH 8 0
BBX 6 5 1 0
BITMAP
F8
8C
38
8C
78
ENDCHAR
STARTCHAR 0438
ENCODING 1080
SWIDTH 500 0
DWIDTH 8 0
BBX 6 5 1 0
BITMAP
CC
DC
FC
EC
CC
ENDCHAR
STARTCHAR 0439
ENCODING 1081
SWIDTH 500 0
DWIDTH 8 0
BBX 6 8 1 0
BITMAP
48
30
00
CC
DC
FC
EC
CC
ENDCHAR
STARTCHAR 043A
ENCODING 1082
SWIDTH 500 0
DWIDTH 8 0
BBX 6 5 1 0
BITMAP
CC
D4
F0
D8
CC
ENDCHAR
STARTCHAR 043B
ENCODING 1083
SWIDTH 500 0
DWIDTH 8 0
BBX 6 5 1 0
BITMAP
7C
6C
6C
6C
CC
ENDCHAR
STARTCHAR 043C
ENCODING 1084
SWIDTH 562 0
DWIDTH 9 0
BBX 7 5 1 0
BITMAP
C6
EE
FE
D6
C6
ENDCHAR
STARTCHAR 043D
ENCODING 1085
SWIDTH 500 0
DWIDTH 8 0
BBX 6 5 1 0
BITMAP
CC
CC
FC
CC
CC
ENDCHAR
STARTCHAR 043E
ENCODING 1086
SWIDTH 500 0
DWIDTH 8 0
BBX 6 5 1 0
BITMAP
78
CC
CC
CC
78
ENDCHAR
STARTCHAR 043F
ENCODING 1087
SWIDTH 500 0
DWIDTH 8 0
BBX 6 5 1 0
BITMAP
FC
CC
CC
CC
CC
ENDCHAR
STARTCHAR 0440
ENCODING 1088
SWIDTH 500 0
DWIDTH 8 0
BBX 6 6 1 -1
BITMAP
F8
CC
CC
F8
C0
C0
ENDCHAR
STARTCHAR 0441
ENCODING 1089
SWIDTH 500 0
DWIDTH 8 0
BBX 6 5 1 0
BITMAP
78
CC
C0
CC
78
ENDCHAR
STARTCHAR 0442
ENCODING 1090
SWIDTH 500 0
DWIDTH 8 0
BBX 6 5 1 0
BITMAP
FC
B4
30
30
78
ENDCHAR
STARTCHAR 0443
ENCODING 1091
SWIDTH 500 0
DWIDTH 8 0
BBX 6 6 1 -1
BITMAP
CC
CC
CC
7C
0C
F8
ENDCHAR
STARTCHAR 0444
ENCODING 1092
SWIDTH 625 0
DWIDTH 10 0
BBX 8 8 1 -1
BITMAP
18
18
7E
DB
DB
7E
18
18
ENDCHAR
STARTCHAR 0445
ENCODING 1093
SWIDTH 500 0
DWIDTH 8 0
BBX 6 5 1 0
BITMAP
CC
78
30
78
CC
ENDCHAR
STARTCHAR 0446
ENCODING 1094
SWIDTH 562 0
DWIDTH 9 0
BBX 7 6 1 -1
BITMAP
CC
CC
CC
CC
FE
06
ENDCHAR
STARTCHAR 0447
ENCODING 1095
SWIDTH 500 0
DWIDTH 8 0
BBX 6 5 1 0
BITMAP
CC
CC
7C
0C
0C
ENDCHAR
STARTCHAR 0448
ENCODING 1096
SWIDTH 562 0
DWIDTH 9 0
BBX 7 5 1 0
BITMAP
D6
D6
D6
D6
FE
ENDCHAR
STARTCHAR 0449
ENCODING 1097
SWIDTH 625 0
DWIDTH 10 0
BBX 8 6 1 -1
BITMAP
D6
D6
D6
D6
FF
03
ENDCHAR
STARTCHAR 044A
ENCODING 1098
SWIDTH 625 0
DWIDTH 10 0
BBX 8 5 1 0
BITMAP
F0
B0
3E
33
3E
ENDCHAR
STARTCHAR 044B
ENCODING 1099
SWIDTH 750 0
DWIDTH 12 0
BBX 10 5 1 0
BITMAP
C1C0
C180
F980
CD80
F9C0
ENDCHAR
STARTCHAR 044C
ENCODING 1100
SWIDTH 500 0
DWIDTH 8 0
BBX 6 5 1 0
BITMAP
C0
C0
F8
CC
F8
ENDCHAR
STARTCHAR 044D
ENCODING 1101
SWIDTH 500 0
DWIDTH 8 0
BBX 6 5 1 0
BITMAP
78
CC
1C
CC
78
ENDCHAR
STARTCHAR 044E
ENCODING 1102
SWIDTH 687 0
DWIDTH 11 0
BBX 10 5 0 0
BITMAP
E780
6CC0
7CC0
6CC0
E780
ENDCHAR
STARTCHAR 044F
ENCODING 1103
SWIDTH 562 0
DWIDTH 9 0
BBX 7 5 1 0
BITMAP
7E
CC
7C
6C
DE
ENDCHAR
STARTCHAR 0451
ENCODING 1105
SWIDTH 500 0
DWIDTH 8 0
BBX 6 8 1 0
BITMAP
CC
CC
00
78
CC
FC
C0
78
ENDCHAR
STARTCHAR 0452
ENCODING 1106
SWIDTH 562 0
DWIDTH 9 0
BBX 7 8 1 -1
BITMAP
F0
60
7C
66
66
66
66
0C
ENDCHAR
STARTCHAR 0453
ENCODING 1107
SWIDTH 437 0
DWIDTH 7 0
BBX 5 8 1 0
BITMAP
30
60
00
F8
C8
C0
C0
C0
ENDCHAR
STARTCHAR 0454
ENCODING 1108
SWIDTH 500 0
DWIDTH 8 0
BBX 6 5 1 0
BITMAP
78
CC
E0
CC
78
ENDCHAR
STARTCHAR 0455
ENCODING 1109
SWIDTH 500 0
DWIDTH 8 0
BBX 6 5 1 0
BITMAP
7C
C0
78
0C
F8
ENDCHAR
STARTCHAR 0456
ENCODING 1110
SWIDTH 375 0
DWIDTH 6 0
BBX 4 7 1 0
BITMAP
60
00
E0
60
60
60
F0
ENDCHAR
STARTCHAR 0457
ENCODING 1111
SWIDTH 437 0
DWIDTH 7 0
BBX 5 8 1 0
BITMAP
D8
D8
00
E0
60
60
60
F0
ENDCHAR
STARTCHAR 0458
ENCODING 1112
SWIDTH 437 0
DWIDTH 7 0
BBX 5 8 1 -1
BITMAP
18
00
38
18
18
18
D8
70
ENDCHAR
STARTCHAR 0459
ENCODING 1113
SWIDTH 625 0
DWIDTH 10 0
BBX 8 5 1 0
BITMAP
78
6E
6B
6B
CE
ENDCHAR
STARTCHAR 045A
ENCODING 1114
SWIDTH 625 0
DWIDTH 10 0
BBX 8 5 1 0
BITMAP
C8
CE
FB
CB
CE
ENDCHAR
STARTCHAR 045B
ENCODING 1115
SWIDTH 562 0
DWIDTH 9 0
BBX 7 7 1 0
BITMAP
F0
60
7C
66
66
66
66
ENDCHAR
STARTCHAR 045C
ENCODING 1116
SWIDTH 500 0
DWIDTH 8 0
BBX 6 8 1 0
BITMAP
18
30
00
CC
D4
F0
D8
CC
ENDCHAR
STARTCHAR 045D
ENCODING 1117
SWIDTH 500 0
DWIDTH 8 0
BBX 6 8 1 0
BITMAP
60
30
00
CC
DC
FC
EC
CC
ENDCHAR
STARTCHAR 045E
ENCODING 1118
SWIDTH 500 0
DWIDTH 8 0
BBX 6 9 1 -1
BITMAP
48
30
00
CC
CC
CC
7C
0C
F8
ENDCHAR
STARTCHAR 045F
ENCODING 1119
SWIDTH 500 0
DWIDTH 8 0
BBX 6 6 1 -1
BITMAP
CC
CC
CC
CC
FC
30
ENDCHAR
STARTCHAR 0462
ENCODING 1122
SWIDTH 562 0
DWIDTH 9 0
BBX 7 7 1 0
BITMAP
60
F0
60
7C
66
66
7C
ENDCHAR
STARTCHAR 0463
ENCODING 1123
SWIDTH 562 0
DWIDTH 9 0
BBX 7 7 1 0
BITMAP
60
F0
60
7C
66
66
7C
ENDCHAR
STARTCHAR 046A
ENCODING 1130
SWIDTH 625 0
DWIDTH 10 0
BBX 8 7 1 0
BITMAP
FF
C3
66
3C
7E
DB
DB
ENDCHAR
STARTCHAR 046B
ENCODING 1131
SWIDTH 562 0
DWIDTH 9 0
BBX 7 5 1 0
BITMAP
FE
44
7C
D6
D6
ENDCHAR
STARTCHAR 0472
ENCODING 1138
SWIDTH 500 0
DWIDTH 8 0
BBX 6 7 1 0
BITMAP
78
CC
CC
FC
CC
CC
78
ENDCHAR
STARTCHAR 0473
ENCODING 1139
SWIDTH 500 0
DWIDTH 8 0
BBX 6 5 1 0
BITMAP
78
CC
FC
CC
78
ENDCHAR
STARTCHAR 0474
ENCODING 1140
SWIDTH 562 0
DWIDTH 9 0
BBX 7 7 1 0
BITMAP
C6
C6
CC
D8
D8
70
30
ENDCHAR
STARTCHAR 0475
ENCODING 1141
SWIDTH 500 0
DWIDTH 8 0
BBX 6 5 1 0
BITMAP
CC
CC
C8
D8
70
ENDCHAR
STARTCHAR 0478
ENCODING 1144
SWIDTH 812 0
DWIDTH 13 0
BBX 11 9 1 -2
BITMAP
7000
D800
DB60
DB60
DB60
DB60
71E0
0060
01C0
ENDCHAR
STARTCHAR 0479
ENCODING 1145
SWIDTH 812 0
DWIDTH 13 0
BBX 11 7 1 -1
BITMAP
7360
DB60
DB60
DB60
D9E0
7060
03C0
ENDCHAR
STARTCHAR 047C
ENCODING 1148
SWIDTH 687 0
DWIDTH 11 0
BBX 9 10 1 0
BITMAP
1000
7C00
4600
1300
0000
6300
C180
C980
C980
7700
ENDCHAR
STARTCHAR 047D
ENCODING 1149
SWIDTH 687 0
DWIDTH 11 0
BBX 9 10 1 0
BITMAP
1000
7C00
4600
1300
0000
6300
C180
C980
C980
7700
ENDCHAR
STARTCHAR 0487
ENCODING 1159
SWIDTH 0 0
DWIDTH 0 0
BBX 6 2 1 6
BITMAP
60
9C
ENDCHAR
STARTCHAR 0490
ENCODING 1168
SWIDTH 562 0
DWIDTH 9 0
BBX 7 9 1 0
BITMAP
02
02
FE
60
60
60
60
60
F0
ENDCHAR
STARTCHAR 0491
ENCODING 1169
SWIDTH 437 0
DWIDTH 7 0
BBX 5 6 1 0
BITMAP
08
F8
C0
C0
C0
C0
ENDCHAR
STARTCHAR 0492
ENCODING 1170
SWIDTH 562 0
DWIDTH 9 0
BBX 7 7 1 0
BITMAP
FE
62
60
F0
60
60
F0
ENDCHAR
STARTCHAR 0493
ENCODING 1171
SWIDTH 437 0
DWIDTH 7 0
BBX 5 5 1 0
BITMAP
F8
C8
E0
C0
C0
ENDCHAR
STARTCHAR 0496
ENCODING 1174
SWIDTH 562 0
DWIDTH 9 0
BBX 7 9 1 -2
BITMAP
D6
D6
7C
38
7C
D6
D6
06
02
ENDCHAR
STARTCHAR 0497
ENCODING 1175
SWIDTH 625 0
DWIDTH 10 0
BBX 8 6 1 -1
BITMAP
DB
DB
7E
DB
DB
01
ENDCHAR
STARTCHAR 049A
ENCODING 1178
SWIDTH 562 0
DWIDTH 9 0
BBX 7 8 1 -1
BITMAP
CE
DA
D8
F0
D8
CC
C6
02
ENDCHAR
STARTCHAR 049B
ENCODING 1179
SWIDTH 500 0
DWIDTH 8 0
BBX 6 6 1 -1
BITMAP
CC
D4
F0
D8
CC
04
ENDCHAR
STARTCHAR 049C
ENCODING 1180
SWIDTH 625 0
DWIDTH 10 0
BBX 8 7 1 0
BITMAP
C7
CD
EC
F8
EC
C6
C3
ENDCHAR
STARTCHAR 049D
ENCODING 1181
SWIDTH 500 0
DWIDTH 8 0
BBX 6 5 1 0
BITMAP
CC
F4
F0
F8
CC
ENDCHAR
STARTCHAR 04A2
ENCODING 1186
SWIDTH 562 0
DWIDTH 9 0
BBX 7 8 1 -1
BITMAP
C6
C6
C6
FE
C6
C6
C6
02
ENDCHAR
STARTCHAR 04A3
ENCODING 1187
SWIDTH 500 0
DWIDTH 8 0
BBX 6 6 1 -1
BITMAP
CC
CC
FC
CC
CC
04
ENDCHAR
STARTCHAR 04A8
ENCODING 1192
SWIDTH 562 0
DWIDTH 9 0
BBX 7 7 1 0
BITMAP
78
C0
C0
CC
D4
D4
7E
ENDCHAR
STARTCHAR 04A9
ENCODING 1193
SWIDTH 562 0
DWIDTH 9 0
BBX 7 5 1 0
BITMAP
78
C0
CE
CA
7E
ENDCHAR
STARTCHAR 04AE
ENCODING 1198
SWIDTH 500 0
DWIDTH 8 0
BBX 6 7 1 0
BITMAP
CC
CC
CC
78
30
30
78
ENDCHAR
STARTCHAR 04AF
ENCODING 1199
SWIDTH 500 0
DWIDTH 8 0
BBX 6 6 1 -1
BITMAP
CC
CC
CC
78
30
30
ENDCHAR
STARTCHAR 04B0
ENCODING 1200
SWIDTH 500 0
DWIDTH 8 0
BBX 6 7 1 0
BITMAP
CC
CC
CC
78
78
30
78
ENDCHAR
STARTCHAR 04B1
ENCODING 1201
SWIDTH 500 0
DWIDTH 8 0
BBX 6 6 1 -1
BITMAP
CC
CC
CC
78
78
30
ENDCHAR
STARTCHAR 04B2
ENCODING 1202
SWIDTH 562 0
DWIDTH 9 0
BBX 7 8 1 -1
BITMAP
C6
6C
38
38
38
6C
C6
02
ENDCHAR
STARTCHAR 04B3
ENCODING 1203
SWIDTH 500 0
DWIDTH 8 0
BBX 6 6 1 -1
BITMAP
CC
78
30
78
CC
04
ENDCHAR
STARTCHAR 04B8
ENCODING 1208
SWIDTH 562 0
DWIDTH 9 0
BBX 7 7 1 0
BITMAP
C6
C6
C6
D6
7E
16
06
ENDCHAR
STARTCHAR 04B9
ENCODING 1209
SWIDTH 562 0
DWIDTH 9 0
BBX 7 5 1 0
BITMAP
C6
D6
7E
16
06
ENDCHAR
STARTCHAR 04BA
ENCODING 1210
SWIDTH 500 0
DWIDTH 8 0
BBX 6 7 1 0
BITMAP
C0
C0
F8
CC
CC
CC
CC
ENDCHAR
STARTCHAR 04BB
ENCODING 1211
SWIDTH 500 0
DWIDTH 8 0
BBX 6 7 1 0
BITMAP
C0
C0
F8
CC
CC
CC
CC
ENDCHAR
STARTCHAR 04BC
ENCODING 1212
SWIDTH 625 0
DWIDTH 10 0
BBX 8 7 1 0
BITMAP
1E
33
B3
FF
30
33
1E
ENDCHAR
STARTCHAR 04BD
ENCODING 1213
SWIDTH 625 0
DWIDTH 10 0
BBX 8 5 1 0
BITMAP
1E
B3
FF
30
1E
ENDCHAR
STARTCHAR 04BE
ENCODING 1214
SWIDTH 625 0
DWIDTH 10 0
BBX 8 8 1 -1
BITMAP
1E
33
B3
FF
30
33
1E
04
ENDCHAR
STARTCHAR 04BF
ENCODING 1215
SWIDTH 625 0
DWIDTH 10 0
BBX 8 6 1 -1
BITMAP
1E
B3
FF
30
1E
04
ENDCHAR
STARTCHAR 04C1
ENCODING 1217
SWIDTH 562 0
DWIDTH 9 0
BBX 7 10 1 0
BITMAP
44
38
00
D6
D6
7C
38
7C
D6
D6
ENDCHAR
STARTCHAR 04C2
ENCODING 1218
SWIDTH 625 0
DWIDTH 10 0
BBX 8 8 1 0
BITMAP
42
3C
00
DB
DB
7E
DB
DB
ENDCHAR
STARTCHAR 04D8
ENCODING 1240
SWIDTH 500 0
DWIDTH 8 0
BBX 6 7 1 0
BITMAP
78
CC
0C
FC
CC
CC
78
ENDCHAR
STARTCHAR 04D9
ENCODING 1241
SWIDTH 500 0
DWIDTH 8 0
BBX 6 5 1 0
BITMAP
78
0C
FC
CC
78
ENDCHAR
STARTCHAR 04E8
ENCODING 1256
SWIDTH 500 0
DWIDTH 8 0
BBX 6 7 1 0
BITMAP
78
CC
CC
FC
CC
CC
78
ENDCHAR
STARTCHAR 04E9
ENCODING 1257
SWIDTH 500 0
DWIDTH 8 0
BBX 6 5 1 0
BITMAP
78
CC
FC
CC
78
ENDCHAR
STARTCHAR 051A
ENCODING 1306
SWIDTH 562 0
DWIDTH 9 0
BBX 7 8 1 -1
BITMAP
7C
C6
C6
C6
C6
CE
7C
06
ENDCHAR
STARTCHAR 051B
ENCODING 1307
SWIDTH 500 0
DWIDTH 8 0
BBX 6 6 1 -1
BITMAP
7C
CC
CC
7C
0C
0C
ENDCHAR
STARTCHAR 051C
ENCODING 1308
SWIDTH 562 0
DWIDTH 9 0
BBX 7 7 1 0
BITMAP
C6
C6
C6
D6
FE
EE
C6
ENDCHAR
STARTCHAR 051D
ENCODING 1309
SWIDTH 562 0
DWIDTH 9 0
BBX 7 5 1 0
BITMAP
C6
C6
D6
FE
C6
ENDCHAR
STARTCHAR 0531
ENCODING 1329
SWIDTH 562 0
DWIDTH 9 0
BBX 7 7 1 0
BITMAP
CC
CC
CC
CC
CC
CE
7A
ENDCHAR
STARTCHAR 0532
ENCODING 1330
SWIDTH 500 0
DWIDTH 8 0
BBX 6 7 1 0
BITMAP
78
CC
C0
F8
CC
C0
C0
ENDCHAR
STARTCHAR 0533
ENCODING 1331
SWIDTH 562 0
DWIDTH 9 0
BBX 7 7 1 0
BITMAP
78
CC
CC
CC
7E
0C
1E
ENDCHAR
STARTCHAR 0534
ENCODING 1332
SWIDTH 625 0
DWIDTH 10 0
BBX 8 7 1 0
BITMAP
7C
C6
C6
0F
06
06
0F
ENDCHAR
STARTCHAR 0535
ENCODING 1333
SWIDTH 562 0
DWIDTH 9 0
BBX 7 7 1 0
BITMAP
C0
FC
C6
C0
C6
C6
7C
ENDCHAR
STARTCHAR 0536
ENCODING 1334
SWIDTH 562 0
DWIDTH 9 0
BBX 7 7 1 0
BITMAP
78
CC
D8
70
60
FC
C6
ENDCHAR
STARTCHAR 0537
ENCODING 1335
SWIDTH 500 0
DWIDTH 8 0
BBX 6 7 1 -1
BITMAP
C0
C0
F8
CC
C0
7C
0C
ENDCHAR
STARTCHAR 0538
ENCODING 1336
SWIDTH 500 0
DWIDTH 8 0
BBX 6 7 1 -1
BITMAP
78
CC
CC
C0
C0
F8
0C
ENDCHAR
STARTCHAR 0539
ENCODING 1337
SWIDTH 562 0
DWIDTH 9 0
BBX 7 6 1 0
BITMAP
7C
C4
DE
D4
DC
C0
ENDCHAR
STARTCHAR 053A
ENCODING 1338
SWIDTH 625 0
DWIDTH 10 0
BBX 8 6 1 0
BITMAP
0C
0C
7F
CD
CC
78
ENDCHAR
STARTCHAR 053B
ENCODING 1339
SWIDTH 500 0
DWIDTH 8 0
BBX 6 7 1 0
BITMAP
C0
C0
F8
CC
CC
C0
C0
ENDCHAR
STARTCHAR 053C
ENCODING 1340
SWIDTH 437 0
DWIDTH 7 0
BBX 5 7 1 -1
BITMAP
C0
C0
C0
C0
C0
F8
18
ENDCHAR
STARTCHAR 053D
ENCODING 1341
SWIDTH 625 0
DWIDTH 10 0
BBX 8 7 1 0
BITMAP
C0
C0
F3
DB
DB
CE
C0
ENDCHAR
STARTCHAR 053E
ENCODING 1342
SWIDTH 562 0
DWIDTH 9 0
BBX 7 7 1 0
BITMAP
FE
62
D8
CC
CC
CC
78
ENDCHAR
STARTCHAR 053F
ENCODING 1343
SWIDTH 500 0
DWIDTH 8 0
BBX 6 7 1 0
BITMAP
C0
C0
CC
CC
7C
0C
0C
ENDCHAR
STARTCHAR 0540
ENCODING 1344
SWIDTH 500 0
DWIDTH 8 0
BBX 6 8 1 -1
BITMAP
38
18
30
60
C0
C0
FC
04
ENDCHAR
STARTCHAR 0541
ENCODING 1345
SWIDTH 500 0
DWIDTH 8 0
BBX 6 7 1 0
BITMAP
78
CC
0C
18
F0
90
FC
ENDCHAR
STARTCHAR 0542
ENCODING 1346
SWIDTH 562 0
DWIDTH 9 0
BBX 7 7 1 -1
BITMAP
7C
CC
CC
0C
0C
0E
06
ENDCHAR
STARTCHAR 0543
ENCODING 1347
SWIDTH 562 0
DWIDTH 9 0
BBX 7 7 1 0
BITMAP
98
70
78
58
4C
8C
FE
ENDCHAR
STARTCHAR 0544
ENCODING 1348
SWIDTH 625 0
DWIDTH 10 0
BBX 8 6 1 0
BITMAP
CF
CD
CC
CC
CC
78
ENDCHAR
STARTCHAR 0545
ENCODING 1349
SWIDTH 500 0
DWIDTH 8 0
BBX 6 7 1 0
BITMAP
78
CC
2C
38
2C
CC
78
ENDCHAR
STARTCHAR 0546
ENCODING 1350
SWIDTH 625 0
DWIDTH 10 0
BBX 8 7 1 0
BITMAP
C0
E0
30
30
33
33
1E
ENDCHAR
STARTCHAR 0547
ENCODING 1351
SWIDTH 562 0
DWIDTH 9 0
BBX 7 7 1 0
BITMAP
FC
60
C0
C0
C6
C6
7C
ENDCHAR
STARTCHAR 0548
ENCODING 1352
SWIDTH 500 0
DWIDTH 8 0
BBX 6 7 1 0
BITMAP
78
CC
CC
CC
CC
CC
CC
ENDCHAR
STARTCHAR 0549
ENCODING 1353
SWIDTH 500 0
DWIDTH 8 0
BBX 6 7 1 0
BITMAP
78
CC
CC
1C
70
E0
38
ENDCHAR
STARTCHAR 054A
ENCODING 1354
SWIDTH 562 0
DWIDTH 9 0
BBX 7 7 1 0
BITMAP
7C
D6
D6
D6
16
06
06
ENDCHAR
STARTCHAR 054B
ENCODING 1355
SWIDTH 562 0
DWIDTH 9 0
BBX 7 7 1 0
BITMAP
78
CC
CC
6C
18
FC
86
ENDCHAR
STARTCHAR 054C
ENCODING 1356
SWIDTH 625 0
DWIDTH 10 0
BBX 8 7 1 0
BITMAP
78
CC
CC
CF
CD
CC
CC
ENDCHAR
STARTCHAR 054D
ENCODING 1357
SWIDTH 500 0
DWIDTH 8 0
BBX 6 7 1 0
BITMAP
CC
CC
CC
CC
CC
CC
78
ENDCHAR
STARTCHAR 054E
ENCODING 1358
SWIDTH 562 0
DWIDTH 9 0
BBX 7 7 1 -1
BITMAP
0C
CC
CC
7C
0C
0E
06
ENDCHAR
STARTCHAR 054F
ENCODING 1359
SWIDTH 500 0
DWIDTH 8 0
BBX 6 7 1 0
BITMAP
78
CC
C0
78
0C
CC
78
ENDCHAR
STARTCHAR 0550
ENCODING 1360
SWIDTH 500 0
DWIDTH 8 0
BBX 6 7 1 0
BITMAP
78
CC
CC
C0
C0
C0
C0
ENDCHAR
STARTCHAR 0551
ENCODING 1361
SWIDTH 562 0
DWIDTH 9 0
BBX 7 7 1 0
BITMAP
38
6C
38
0C
06
C6
7C
ENDCHAR
STARTCHAR 0552
ENCODING 1362
SWIDTH 500 0
DWIDTH 8 0
BBX 6 7 1 0
BITMAP
C0
F8
CC
CC
CC
C0
C0
ENDCHAR
STARTCHAR 0553
ENCODING 1363
SWIDTH 625 0
DWIDTH 10 0
BBX 8 7 1 0
BITMAP
18
7E
DB
DB
DB
7E
18
ENDCHAR
STARTCHAR 0554
ENCODING 1364
SWIDTH 562 0
DWIDTH 9 0
BBX 7 7 1 0
BITMAP
3C
66
66
7C
60
F8
60
ENDCHAR
STARTCHAR 0555
ENCODING 1365
SWIDTH 500 0
DWIDTH 8 0
BBX 6 7 1 0
BITMAP
78
CC
CC
CC
CC
CC
78
ENDCHAR
STARTCHAR 0556
ENCODING 1366
SWIDTH 625 0
DWIDTH 10 0
BBX 8 7 1 0
BITMAP
7C
D8
D8
7E
1B
DB
7E
ENDCHAR
STARTCHAR 0559
ENCODING 1369
SWIDTH 250 0
DWIDTH 4 0
BBX 2 3 1 7
BITMAP
40
C0
C0
ENDCHAR
STARTCHAR 055A
ENCODING 1370
SWIDTH 312 0
DWIDTH 5 0
BBX 2 4 2 6
BITMAP
80
C0
80
C0
ENDCHAR
STARTCHAR 055B
ENCODING 1371
SWIDTH 375 0
DWIDTH 6 0
BBX 4 3 1 7
BITMAP
30
60
C0
ENDCHAR
STARTCHAR 055C
ENCODING 1372
SWIDTH 375 0
DWIDTH 6 0
BBX 4 3 1 7
BITMAP
10
F0
80
ENDCHAR
STARTCHAR 055D
ENCODING 1373
SWIDTH 437 0
DWIDTH 7 0
BBX 5 3 1 6
BITMAP
E0
38
08
ENDCHAR
STARTCHAR 055E
ENCODING 1374
SWIDTH 500 0
DWIDTH 8 0
BBX 6 3 1 7
BITMAP
78
EC
9C
ENDCHAR
STARTCHAR 055F
ENCODING 1375
SWIDTH 437 0
DWIDTH 7 0
BBX 5 2 1 7
BITMAP
80
78
ENDCHAR
STARTCHAR 0561
ENCODING 1377
SWIDTH 750 0
DWIDTH 12 0
BBX 10 5 1 0
BITMAP
CCC0
CCC0
CCC0
CCC0
7FC0
ENDCHAR
STARTCHAR 0562
ENCODING 1378
SWIDTH 500 0
DWIDTH 8 0
BBX 6 6 1 -1
BITMAP
F8
CC
CC
C0
F8
C0
ENDCHAR
STARTCHAR 0563
ENCODING 1379
SWIDTH 562 0
DWIDTH 9 0
BBX 7 6 1 -1
BITMAP
7C
CC
CC
7C
0E
0C
ENDCHAR
STARTCHAR 0564
ENCODING 1380
SWIDTH 562 0
DWIDTH 9 0
BBX 7 6 1 -1
BITMAP
F8
CC
CC
CE
CC
0C
ENDCHAR
STARTCHAR 0565
ENCODING 1381
SWIDTH 500 0
DWIDTH 8 0
BBX 6 7 1 0
BITMAP
C0
C0
F8
C0
CC
CC
7C
ENDCHAR
STARTCHAR 0566
ENCODING 1382
SWIDTH 500 0
DWIDTH 8 0
BBX 6 6 1 -1
BITMAP
7C
CC
CC
7C
0C
0C
ENDCHAR
STARTCHAR 0567
ENCODING 1383
SWIDTH 437 0
DWIDTH 7 0
BBX 5 7 1 -1
BITMAP
C0
F8
C0
C0
C0
F0
18
ENDCHAR
STARTCHAR 0568
ENCODING 1384
SWIDTH 500 0
DWIDTH 8 0
BBX 6 6 1 -1
BITMAP
F8
CC
CC
CC
C0
F8
ENDCHAR
STARTCHAR 0569
ENCODING 1385
SWIDTH 625 0
DWIDTH 10 0
BBX 8 6 1 -1
BITMAP
FC
C6
CF
D6
DC
C0
ENDCHAR
STARTCHAR 056A
ENCODING 1386
SWIDTH 562 0
DWIDTH 9 0
BBX 7 7 1 0
BITMAP
0C
0C
7E
CC
CC
CC
78
ENDCHAR
STARTCHAR 056B
ENCODING 1387
SWIDTH 500 0
DWIDTH 8 0
BBX 6 8 1 -1
BITMAP
C0
C0
C0
F8
CC
CC
CC
C0
ENDCHAR
STARTCHAR 056C
ENCODING 1388
SWIDTH 437 0
DWIDTH 7 0
BBX 5 6 1 -1
BITMAP
C0
C0
C0
C0
C0
F8
ENDCHAR
STARTCHAR 056D
ENCODING 1389
SWIDTH 750 0
DWIDTH 12 0
BBX 10 8 1 -1
BITMAP
C000
C000
F8C0
CCC0
CCC0
CCC0
C7C0
C000
ENDCHAR
STARTCHAR 056E
ENCODING 1390
SWIDTH 500 0
DWIDTH 8 0
BBX 6 7 1 0
BITMAP
8C
F8
7C
CC
CC
CC
78
ENDCHAR
STARTCHAR 056F
ENCODING 1391
SWIDTH 500 0
DWIDTH 8 0
BBX 6 8 1 -1
BITMAP
C0
C0
C0
CC
CC
7C
0C
0C
ENDCHAR
STARTCHAR 0570
ENCODING 1392
SWIDTH 500 0
DWIDTH 8 0
BBX 6 7 1 0
BITMAP
C0
C0
F8
CC
CC
CC
CC
ENDCHAR
STARTCHAR 0571
ENCODING 1393
SWIDTH 562 0
DWIDTH 9 0
BBX 7 7 1 0
BITMAP
30
30
78
CC
CC
DC
76
ENDCHAR
STARTCHAR 0572
ENCODING 1394
SWIDTH 500 0
DWIDTH 8 0
BBX 6 6 1 -1
BITMAP
F8
CC
CC
CC
CC
0C
ENDCHAR
STARTCHAR 0573
ENCODING 1395
SWIDTH 562 0
DWIDTH 9 0
BBX 7 7 1 0
BITMAP
0C
78
30
78
4C
CC
FE
ENDCHAR
STARTCHAR 0574
ENCODING 1396
SWIDTH 500 0
DWIDTH 8 0
BBX 6 7 1 0
BITMAP
0C
08
CC
CC
CC
CC
7C
ENDCHAR
STARTCHAR 0575
ENCODING 1397
SWIDTH 375 0
DWIDTH 6 0
BBX 3 6 2 -1
BITMAP
60
60
60
60
60
C0
ENDCHAR
STARTCHAR 0576
ENCODING 1398
SWIDTH 562 0
DWIDTH 9 0
BBX 7 6 1 0
BITMAP
C0
66
66
66
66
3E
ENDCHAR
STARTCHAR 0577
ENCODING 1399
SWIDTH 500 0
DWIDTH 8 0
BBX 6 7 1 -1
BITMAP
78
CC
0C
18
30
60
FC
ENDCHAR
STARTCHAR 0578
ENCODING 1400
SWIDTH 500 0
DWIDTH 8 0
BBX 6 5 1 0
BITMAP
F8
CC
CC
CC
CC
ENDCHAR
STARTCHAR 0579
ENCODING 1401
SWIDTH 500 0
DWIDTH 8 0
BBX 6 7 1 -1
BITMAP
C0
60
30
60
C0
C0
FC
ENDCHAR
STARTCHAR 057A
ENCODING 1402
SWIDTH 750 0
DWIDTH 12 0
BBX 10 6 1 -1
BITMAP
CCC0
CCC0
CCC0
CCC0
7FC0
00C0
ENDCHAR
STARTCHAR 057B
ENCODING 1403
SWIDTH 500 0
DWIDTH 8 0
BBX 6 6 1 -1
BITMAP
78
CC
6C
38
30
FC
ENDCHAR
STARTCHAR 057C
ENCODING 1404
SWIDTH 500 0
DWIDTH 8 0
BBX 6 5 1 0
BITMAP
F8
CC
CC
D8
DC
ENDCHAR
STARTCHAR 057D
ENCODING 1405
SWIDTH 500 0
DWIDTH 8 0
BBX 6 5 1 0
BITMAP
CC
CC
CC
CC
7C
ENDCHAR
STARTCHAR 057E
ENCODING 1406
SWIDTH 500 0
DWIDTH 8 0
BBX 6 8 1 -1
BITMAP
0C
0C
CC
CC
CC
CC
7C
0C
ENDCHAR
STARTCHAR 057F
ENCODING 1407
SWIDTH 750 0
DWIDTH 12 0
BBX 10 5 1 0
BITMAP
CF80
CCC0
CCC0
CCC0
7CC0
ENDCHAR
STARTCHAR 0580
ENCODING 1408
SWIDTH 500 0
DWIDTH 8 0
BBX 6 6 1 -1
BITMAP
F8
CC
CC
CC
CC
C0
ENDCHAR
STARTCHAR 0581
ENCODING 1409
SWIDTH 500 0
DWIDTH 8 0
BBX 6 6 1 -1
BITMAP
7C
CC
CC
7C
0C
F8
ENDCHAR
STARTCHAR 0582
ENCODING 1410
SWIDTH 437 0
DWIDTH 7 0
BBX 5 5 1 0
BITMAP
E0
60
60
60
78
ENDCHAR
STARTCHAR 0583
ENCODING 1411
SWIDTH 750 0
DWIDTH 12 0
BBX 10 8 1 -1
BITMAP
0C00
0C00
CF80
CCC0
CCC0
CCC0
7CC0
0C00
ENDCHAR
STARTCHAR 0584
ENCODING 1412
SWIDTH 562 0
DWIDTH 9 0
BBX 7 6 1 -1
BITMAP
FC
66
66
7C
F0
60
ENDCHAR
STARTCHAR 0585
ENCODING 1413
SWIDTH 500 0
DWIDTH 8 0
BBX 6 5 1 0
BITMAP
78
CC
CC
CC
78
ENDCHAR
STARTCHAR 0586
ENCODING 1414
SWIDTH 625 0
DWIDTH 10 0
BBX 8 8 1 -1
BITMAP
78
D8
D8
7E
1B
DB
7E
18
ENDCHAR
STARTCHAR 0587
ENCODING 1415
SWIDTH 500 0
DWIDTH 8 0
BBX 6 7 1 0
BITMAP
C0
C0
CC
CC
CC
CC
7C
ENDCHAR
STARTCHAR 0589
ENCODING 1417
SWIDTH 250 0
DWIDTH 4 0
BBX 1 5 2 1
BITMAP
80
00
00
00
80
ENDCHAR
STARTCHAR 058A
ENCODING 1418
SWIDTH 437 0
DWIDTH 7 0
BBX 5 2 1 -1
BITMAP
80
78
ENDCHAR
STARTCHAR 0591
ENCODING 1425
SWIDTH 312 0
DWIDTH 5 0
BBX 3 2 1 -2
BITMAP
40
A0
ENDCHAR
STARTCHAR 0592
ENCODING 1426
SWIDTH 562 0
DWIDTH 9 0
BBX 7 2 1 7
BITMAP
10
82
ENDCHAR
STARTCHAR 0593
ENCODING 1427
SWIDTH 437 0
DWIDTH 7 0
BBX 4 4 2 5
BITMAP
F0
30
10
F0
ENDCHAR
STARTCHAR 0600
ENCODING 1536
SWIDTH 500 0
DWIDTH 8 0
BBX 7 3 0 -2
BITMAP
02
04
FE
ENDCHAR
STARTCHAR 0601
ENCODING 1537
SWIDTH 812 0
DWIDTH 13 0
BBX 12 2 0 -2
BITMAP
92F0
FFF0
ENDCHAR
STARTCHAR 0603
ENCODING 1539
SWIDTH 687 0
DWIDTH 11 0
BBX 10 3 0 -2
BITMAP
03C0
1EC0
FF00
ENDCHAR
STARTCHAR 060C
ENCODING 1548
SWIDTH 312 0
DWIDTH 5 0
BBX 2 4 2 1
BITMAP
40
80
C0
C0
ENDCHAR
STARTCHAR 060D
ENCODING 1549
SWIDTH 375 0
DWIDTH 6 0
BBX 4 3 1 0
BITMAP
30
40
80
ENDCHAR
STARTCHAR 060E
ENCODING 1550
SWIDTH 625 0
DWIDTH 10 0
BBX 8 4 1 0
BITMAP
E0
A0
E0
3F
ENDCHAR
STARTCHAR 060F
ENCODING 1551
SWIDTH 562 0
DWIDTH 9 0
BBX 9 9 -1 -1
BITMAP
0600
1800
1000
1E00
1800
3700
3D80
7300
FE00
ENDCHAR
STARTCHAR 0610
ENCODING 1552
SWIDTH 562 0
DWIDTH 9 0
BBX 6 4 2 6
BITMAP
0C
74
7C
C0
ENDCHAR
STARTCHAR 0611
ENCODING 1553
SWIDTH 500 0
DWIDTH 8 0
BBX 6 4 1 6
BITMAP
0C
58
70
C0
ENDCHAR
STARTCHAR 0612
ENCODING 1554
SWIDTH 500 0
DWIDTH 8 0
BBX 6 4 1 6
BITMAP
14
F4
CC
18
ENDCHAR
STARTCHAR 0613
ENCODING 1555
SWIDTH 562 0
DWIDTH 9 0
BBX 7 5 1 6
BITMAP
18
3A
7C
CC
08
ENDCHAR
STARTCHAR 0614
ENCODING 1556
SWIDTH 562 0
DWIDTH 9 0
BBX 7 3 1 8
BITMAP
06
16
FC
ENDCHAR
STARTCHAR 0615
ENCODING 1557
SWIDTH 500 0
DWIDTH 8 0
BBX 5 4 2 5
BITMAP
40
70
48
F0
ENDCHAR
STARTCHAR 061B
ENCODING 1563
SWIDTH 312 0
DWIDTH 5 0
BBX 2 7 2 0
BITMAP
40
80
C0
C0
00
C0
C0
ENDCHAR
STARTCHAR 061F
ENCODING 1567
SWIDTH 500 0
DWIDTH 8 0
BBX 6 7 1 0
BITMAP
78
CC
C0
70
30
00
30
ENDCHAR
STARTCHAR 0621
ENCODING 1569
SWIDTH 437 0
DWIDTH 7 0
BBX 5 4 1 1
BITMAP
38
40
40
F8
ENDCHAR
STARTCHAR 0622
ENCODING 1570
SWIDTH 375 0
DWIDTH 6 0
BBX 3 9 2 0
BITMAP
E0
00
40
40
40
40
40
40
40
ENDCHAR
STARTCHAR 0623
ENCODING 1571
SWIDTH 375 0
DWIDTH 6 0
BBX 3 11 2 0
BITMAP
60
40
E0
00
40
40
40
40
40
40
40
ENDCHAR
STARTCHAR 0624
ENCODING 1572
SWIDTH 500 0
DWIDTH 8 0
BBX 5 10 2 -1
BITMAP
18
10
38
00
38
28
38
08
08
F8
ENDCHAR
STARTCHAR 0625
ENCODING 1573
SWIDTH 312 0
DWIDTH 5 0
BBX 3 12 1 -3
BITMAP
20
20
20
20
20
20
20
20
00
60
40
E0
ENDCHAR
STARTCHAR 0626
ENCODING 1574
SWIDTH 562 0
DWIDTH 9 0
BBX 7 9 1 -1
BITMAP
30
20
70
0E
08
0E
82
82
FE
ENDCHAR
STARTCHAR 0627
ENCODING 1575
SWIDTH 312 0
DWIDTH 5 0
BBX 1 9 3 0
BITMAP
80
80
80
80
80
80
80
80
80
ENDCHAR
STARTCHAR 0628
ENCODING 1576
SWIDTH 562 0
DWIDTH 9 0
BBX 7 5 1 -2
BITMAP
82
82
FE
00
10
ENDCHAR
STARTCHAR 0629
ENCODING 1577
SWIDTH 375 0
DWIDTH 6 0
BBX 4 6 1 0
BITMAP
90
00
70
90
90
F0
ENDCHAR
STARTCHAR 062A
ENCODING 1578
SWIDTH 562 0
DWIDTH 9 0
BBX 7 5 1 0
BITMAP
28
00
82
82
FE
ENDCHAR
STARTCHAR 062B
ENCODING 1579
SWIDTH 562 0
DWIDTH 9 0
BBX 7 7 1 0
BITMAP
10
00
28
00
82
82
FE
ENDCHAR
STARTCHAR 062C
ENCODING 1580
SWIDTH 500 0
DWIDTH 8 0
BBX 6 7 1 -2
BITMAP
FC
0C
30
40
90
80
7C
ENDCHAR
STARTCHAR 062D
ENCODING 1581
SWIDTH 500 0
DWIDTH 8 0
BBX 6 7 1 -2
BITMAP
FC
0C
30
40
80
80
7C
ENDCHAR
STARTCHAR 062E
ENCODING 1582
SWIDTH 500 0
DWIDTH 8 0
BBX 6 9 1 -2
BITMAP
20
00
FC
0C
30
40
90
80
7C
ENDCHAR
STARTCHAR 062F
ENCODING 1583
SWIDTH 375 0
DWIDTH 6 0
BBX 3 5 2 0
BITMAP
20
20
20
20
E0
ENDCHAR
STARTCHAR 0630
ENCODING 1584
SWIDTH 375 0
DWIDTH 6 0
BBX 3 7 2 0
BITMAP
20
00
20
20
20
20
E0
ENDCHAR
STARTCHAR 0631
ENCODING 1585
SWIDTH 437 0
DWIDTH 7 0
BBX 5 6 1 -2
BITMAP
18
08
08
08
88
F8
ENDCHAR
STARTCHAR 0632
ENCODING 1586
SWIDTH 437 0
DWIDTH 7 0
BBX 5 8 1 -2
BITMAP
10
00
18
08
08
08
88
F8
ENDCHAR
STARTCHAR 0633
ENCODING 1587
SWIDTH 750 0
DWIDTH 12 0
BBX 10 5 1 -1
BITMAP
8940
8940
8FC0
8800
F800
ENDCHAR
STARTCHAR 0634
ENCODING 1588
SWIDTH 750 0
DWIDTH 12 0
BBX 10 9 1 -1
BITMAP
0200
0000
0500
0000
8940
8940
8FC0
8800
F800
ENDCHAR
STARTCHAR 0635
ENCODING 1589
SWIDTH 750 0
DWIDTH 12 0
BBX 10 5 1 -1
BITMAP
89C0
8A40
8FC0
8800
F800
ENDCHAR
STARTCHAR 0636
ENCODING 1590
SWIDTH 750 0
DWIDTH 12 0
BBX 10 8 1 -1
BITMAP
0200
0000
0000
89C0
8A40
8FC0
8800
F800
ENDCHAR
STARTCHAR 0637
ENCODING 1591
SWIDTH 625 0
DWIDTH 10 0
BBX 8 7 1 0
BITMAP
40
40
40
4E
71
41
FF
ENDCHAR
STARTCHAR 0638
ENCODING 1592
SWIDTH 625 0
DWIDTH 10 0
BBX 8 7 1 0
BITMAP
40
48
40
4E
71
41
FF
ENDCHAR
STARTCHAR 0639
ENCODING 1593
SWIDTH 437 0
DWIDTH 7 0
BBX 5 8 1 -2
BITMAP
38
40
78
80
80
80
80
78
ENDCHAR
STARTCHAR 063A
ENCODING 1594
SWIDTH 437 0
DWIDTH 7 0
BBX 5 10 1 -2
BITMAP
10
00
38
40
78
80
80
80
80
78
ENDCHAR
STARTCHAR 0640
ENCODING 1600
SWIDTH 375 0
DWIDTH 6 0
BBX 4 1 1 2
BITMAP
F0
ENDCHAR
STARTCHAR 0641
ENCODING 1601
SWIDTH 562 0
DWIDTH 9 0
BBX 7 6 1 0
BITMAP
04
00
04
8A
86
7E
ENDCHAR
STARTCHAR 0642
ENCODING 1602
SWIDTH 562 0
DWIDTH 9 0
BBX 7 8 1 -2
BITMAP
0A
00
0E
0A
0E
82
82
FE
ENDCHAR
STARTCHAR 0643
ENCODING 1603
SWIDTH 687 0
DWIDTH 11 0
BBX 9 8 1 0
BITMAP
0180
0700
2C00
4800
2C00
4600
8200
FE00
ENDCHAR
STARTCHAR 0644
ENCODING 1604
SWIDTH 500 0
DWIDTH 8 0
BBX 6 9 1 -1
BITMAP
04
04
04
04
04
04
84
84
FC
ENDCHAR
STARTCHAR 0645
ENCODING 1605
SWIDTH 437 0
DWIDTH 7 0
BBX 5 6 1 -2
BITMAP
78
48
48
F8
80
80
ENDCHAR
STARTCHAR 0646
ENCODING 1606
SWIDTH 500 0
DWIDTH 8 0
BBX 6 7 1 -2
BITMAP
30
00
84
84
84
84
78
ENDCHAR
STARTCHAR 0647
ENCODING 1607
SWIDTH 375 0
DWIDTH 6 0
BBX 4 4 1 0
BITMAP
70
90
90
F0
ENDCHAR
STARTCHAR 0648
ENCODING 1608
SWIDTH 500 0
DWIDTH 8 0
BBX 5 6 2 -1
BITMAP
38
28
38
08
08
F8
ENDCHAR
STARTCHAR 0649
ENCODING 1609
SWIDTH 562 0
DWIDTH 9 0
BBX 7 6 1 -1
BITMAP
0E
08
0E
82
82
FE
ENDCHAR
STARTCHAR 064A
ENCODING 1610
SWIDTH 562 0
DWIDTH 9 0
BBX 7 8 1 -3
BITMAP
0E
08
0E
82
82
FE
00
28
ENDCHAR
STARTCHAR 064B
ENCODING 1611
SWIDTH 437 0
DWIDTH 7 0
BBX 5 3 1 6
BITMAP
F8
00
F8
ENDCHAR
STARTCHAR 064C
ENCODING 1612
SWIDTH 500 0
DWIDTH 8 0
BBX 6 3 1 6
BITMAP
18
9C
F8
ENDCHAR
STARTCHAR 064D
ENCODING 1613
SWIDTH 437 0
DWIDTH 7 0
BBX 5 3 1 -2
BITMAP
F8
00
F8
ENDCHAR
STARTCHAR 064E
ENCODING 1614
SWIDTH 437 0
DWIDTH 7 0
BBX 5 1 1 7
BITMAP
F8
ENDCHAR
STARTCHAR 064F
ENCODING 1615
SWIDTH 437 0
DWIDTH 7 0
BBX 5 3 1 6
BITMAP
30
28
F0
ENDCHAR
STARTCHAR 0650
ENCODING 1616
SWIDTH 437 0
DWIDTH 7 0
BBX 5 1 1 -1
BITMAP
F8
ENDCHAR
STARTCHAR 0651
ENCODING 1617
SWIDTH 437 0
DWIDTH 7 0
BBX 5 3 1 6
BITMAP
A8
A8
F8
ENDCHAR
STARTCHAR 0652
ENCODING 1618
SWIDTH 312 0
DWIDTH 5 0
BBX 3 3 1 6
BITMAP
E0
A0
E0
ENDCHAR
STARTCHAR 0653
ENCODING 1619
SWIDTH 437 0
DWIDTH 7 0
BBX 5 3 1 6
BITMAP
08
70
80
ENDCHAR
STARTCHAR 0654
ENCODING 1620
SWIDTH 312 0
DWIDTH 5 0
BBX 3 3 1 7
BITMAP
20
40
E0
ENDCHAR
STARTCHAR 0655
ENCODING 1621
SWIDTH 312 0
DWIDTH 5 0
BBX 3 3 1 -2
BITMAP
20
40
E0
ENDCHAR
STARTCHAR 0656
ENCODING 1622
SWIDTH 250 0
DWIDTH 4 0
BBX 1 3 2 -2
BITMAP
80
80
80
ENDCHAR
STARTCHAR 0657
ENCODING 1623
SWIDTH 437 0
DWIDTH 7 0
BBX 4 5 2 5
BITMAP
10
A0
40
A0
E0
ENDCHAR
STARTCHAR 0658
ENCODING 1624
SWIDTH 437 0
DWIDTH 7 0
BBX 4 2 2 6
BITMAP
90
60
ENDCHAR
STARTCHAR 0660
ENCODING 1632
SWIDTH 375 0
DWIDTH 6 0
BBX 2 2 3 3
BITMAP
C0
C0
ENDCHAR
STARTCHAR 0661
ENCODING 1633
SWIDTH 375 0
DWIDTH 6 0
BBX 3 6 2 0
BITMAP
C0
C0
C0
60
60
60
ENDCHAR
STARTCHAR 0662
ENCODING 1634
SWIDTH 500 0
DWIDTH 8 0
BBX 5 6 2 0
BITMAP
C8
F8
C0
60
60
60
ENDCHAR
STARTCHAR 0663
ENCODING 1635
SWIDTH 562 0
DWIDTH 9 0
BBX 6 6 2 0
BITMAP
D4
FC
C0
60
60
60
ENDCHAR
STARTCHAR 0664
ENCODING 1636
SWIDTH 437 0
DWIDTH 7 0
BBX 4 6 2 0
BITMAP
70
C0
C0
60
C0
70
ENDCHAR
STARTCHAR 0665
ENCODING 1637
SWIDTH 562 0
DWIDTH 9 0
BBX 6 6 2 0
BITMAP
78
CC
CC
CC
CC
78
ENDCHAR
STARTCHAR 0666
ENCODING 1638
SWIDTH 500 0
DWIDTH 8 0
BBX 5 6 2 0
BITMAP
F0
18
18
18
18
18
ENDCHAR
STARTCHAR 0667
ENCODING 1639
SWIDTH 562 0
DWIDTH 9 0
BBX 7 6 1 0
BITMAP
86
44
64
2C
38
18
ENDCHAR
STARTCHAR 0668
ENCODING 1640
SWIDTH 562 0
DWIDTH 9 0
BBX 7 6 1 0
BITMAP
08
18
34
24
42
C2
ENDCHAR
STARTCHAR 0669
ENCODING 1641
SWIDTH 500 0
DWIDTH 8 0
BBX 5 6 2 0
BITMAP
70
D8
D8
78
18
18
ENDCHAR
STARTCHAR 066A
ENCODING 1642
SWIDTH 625 0
DWIDTH 10 0
BBX 8 7 1 0
BITMAP
C3
C6
0C
18
30
63
C3
ENDCHAR
STARTCHAR 066B
ENCODING 1643
SWIDTH 312 0
DWIDTH 5 0
BBX 2 4 2 -1
BITMAP
C0
C0
40
80
ENDCHAR
STARTCHAR 066C
ENCODING 1644
SWIDTH 375 0
DWIDTH 6 0
BBX 3 5 2 2
BITMAP
20
40
C0
E0
E0
ENDCHAR
STARTCHAR 066D
ENCODING 1645
SWIDTH 437 0
DWIDTH 7 0
BBX 5 5 1 3
BITMAP
20
A8
70
A8
20
ENDCHAR
STARTCHAR 066E
ENCODING 1646
SWIDTH 562 0
DWIDTH 9 0
BBX 7 3 1 0
BITMAP
82
82
FE
ENDCHAR
STARTCHAR 066F
ENCODING 1647
SWIDTH 562 0
DWIDTH 9 0
BBX 7 6 1 -2
BITMAP
0E
0A
0E
82
82
FE
ENDCHAR
STARTCHAR 0670
ENCODING 1648
SWIDTH 250 0
DWIDTH 4 0
BBX 1 3 2 8
BITMAP
80
80
80
ENDCHAR
STARTCHAR 0671
ENCODING 1649
SWIDTH 437 0
DWIDTH 7 0
BBX 5 11 1 0
BITMAP
78
F8
00
20
20
20
20
20
20
20
20
ENDCHAR
STARTCHAR 0672
ENCODING 1650
SWIDTH 437 0
DWIDTH 7 0
BBX 4 12 2 0
BITMAP
30
F0
00
40
40
40
40
40
40
40
40
40
ENDCHAR
STARTCHAR 0673
ENCODING 1651
SWIDTH 375 0
DWIDTH 6 0
BBX 4 12 1 -3
BITMAP
20
20
20
20
20
20
20
20
20
00
30
F0
ENDCHAR
STARTCHAR 0674
ENCODING 1652
SWIDTH 375 0
DWIDTH 6 0
BBX 4 2 1 9
BITMAP
70
F0
ENDCHAR
STARTCHAR 0675
ENCODING 1653
SWIDTH 562 0
DWIDTH 9 0
BBX 5 9 3 0
BITMAP
98
90
B8
80
80
80
80
80
80
ENDCHAR
STARTCHAR 0676
ENCODING 1654
SWIDTH 687 0
DWIDTH 11 0
BBX 8 10 2 -1
BITMAP
03
02
07
00
38
28
38
08
08
F8
ENDCHAR
STARTCHAR 0677
ENCODING 1655
SWIDTH 687 0
DWIDTH 11 0
BBX 8 10 2 -1
BITMAP
33
1A
77
00
38
28
38
08
08
F8
ENDCHAR
STARTCHAR 0678
ENCODING 1656
SWIDTH 562 0
DWIDTH 9 0
BBX 7 11 1 -1
BITMAP
06
04
0E
00
00
0E
08
0E
82
82
FE
ENDCHAR
STARTCHAR 0679
ENCODING 1657
SWIDTH 562 0
DWIDTH 9 0
BBX 7 8 1 0
BITMAP
20
20
38
78
00
82
82
FE
ENDCHAR
STARTCHAR 067A
ENCODING 1658
SWIDTH 562 0
DWIDTH 9 0
BBX 7 6 1 0
BITMAP
10
00
10
82
82
FE
ENDCHAR
STARTCHAR 067B
ENCODING 1659
SWIDTH 562 0
DWIDTH 9 0
BBX 7 6 1 -3
BITMAP
82
82
FE
10
00
10
ENDCHAR
STARTCHAR 067C
ENCODING 1660
SWIDTH 562 0
DWIDTH 9 0
BBX 7 6 1 -2
BITMAP
28
82
82
FE
28
38
ENDCHAR
STARTCHAR 067D
ENCODING 1661
SWIDTH 562 0
DWIDTH 9 0
BBX 7 6 1 0
BITMAP
28
00
10
82
82
FE
ENDCHAR
STARTCHAR 067E
ENCODING 1662
SWIDTH 562 0
DWIDTH 9 0
BBX 7 6 1 -3
BITMAP
82
82
FE
28
00
10
ENDCHAR
STARTCHAR 067F
ENCODING 1663
SWIDTH 562 0
DWIDTH 9 0
BBX 7 6 1 0
BITMAP
28
00
28
82
82
FE
ENDCHAR
STARTCHAR 0680
ENCODING 1664
SWIDTH 562 0
DWIDTH 9 0
BBX 7 6 1 -3
BITMAP
82
82
FE
28
00
28
ENDCHAR
STARTCHAR 0681
ENCODING 1665
SWIDTH 500 0
DWIDTH 8 0
BBX 6 11 1 -2
BITMAP
18
10
38
00
FC
0C
30
40
80
80
7C
ENDCHAR
STARTCHAR 0682
ENCODING 1666
SWIDTH 500 0
DWIDTH 8 0
BBX 6 11 1 -2
BITMAP
10
00
10
00
FC
0C
30
40
80
80
7C
ENDCHAR
STARTCHAR 0683
ENCODING 1667
SWIDTH 500 0
DWIDTH 8 0
BBX 6 7 1 -2
BITMAP
FC
0C
30
40
94
80
7C
ENDCHAR
STARTCHAR 0684
ENCODING 1668
SWIDTH 500 0
DWIDTH 8 0
BBX 6 7 1 -2
BITMAP
FC
0C
30
48
80
88
7C
ENDCHAR
STARTCHAR 0685
ENCODING 1669
SWIDTH 500 0
DWIDTH 8 0
BBX 6 11 1 -2
BITMAP
20
00
50
00
FC
0C
30
40
80
80
7C
ENDCHAR
STARTCHAR 0686
ENCODING 1670
SWIDTH 500 0
DWIDTH 8 0
BBX 6 7 1 -2
BITMAP
FC
0C
30
54
80
88
7C
ENDCHAR
STARTCHAR 0687
ENCODING 1671
SWIDTH 500 0
DWIDTH 8 0
BBX 6 7 1 -2
BITMAP
FC
0C
30
54
80
94
7C
ENDCHAR
STARTCHAR 0688
ENCODING 1672
SWIDTH 437 0
DWIDTH 7 0
BBX 4 9 2 0
BITMAP
40
70
F0
00
20
20
20
20
E0
ENDCHAR
STARTCHAR 0689
ENCODING 1673
SWIDTH 375 0
DWIDTH 6 0
BBX 3 7 2 -2
BITMAP
20
20
20
20
E0
60
60
ENDCHAR
STARTCHAR 068A
ENCODING 1674
SWIDTH 375 0
DWIDTH 6 0
BBX 3 7 2 -2
BITMAP
20
20
20
20
E0
00
20
ENDCHAR
STARTCHAR 068B
ENCODING 1675
SWIDTH 500 0
DWIDTH 8 0
BBX 5 11 2 -2
BITMAP
20
38
78
00
20
20
20
20
E0
00
20
ENDCHAR
STARTCHAR 068C
ENCODING 1676
SWIDTH 437 0
DWIDTH 7 0
BBX 4 7 2 0
BITMAP
50
00
20
20
20
20
E0
ENDCHAR
STARTCHAR 068D
ENCODING 1677
SWIDTH 437 0
DWIDTH 7 0
BBX 4 7 2 -2
BITMAP
20
20
20
20
E0
00
50
ENDCHAR
STARTCHAR 068E
ENCODING 1678
SWIDTH 437 0
DWIDTH 7 0
BBX 4 9 2 0
BITMAP
20
00
50
00
20
20
20
20
E0
ENDCHAR
STARTCHAR 068F
ENCODING 1679
SWIDTH 437 0
DWIDTH 7 0
BBX 4 9 2 0
BITMAP
50
00
20
00
20
20
20
20
E0
ENDCHAR
STARTCHAR 0690
ENCODING 1680
SWIDTH 437 0
DWIDTH 7 0
BBX 4 9 2 0
BITMAP
50
00
50
00
20
20
20
20
E0
ENDCHAR
STARTCHAR 0691
ENCODING 1681
SWIDTH 500 0
DWIDTH 8 0
BBX 6 10 1 -2
BITMAP
10
1C
3C
00
18
08
08
08
88
F8
ENDCHAR
STARTCHAR 0692
ENCODING 1682
SWIDTH 437 0
DWIDTH 7 0
BBX 5 9 1 -2
BITMAP
28
10
00
18
08
08
08
88
F8
ENDCHAR
STARTCHAR 0694
ENCODING 1684
SWIDTH 562 0
DWIDTH 9 0
BBX 7 6 1 -2
BITMAP
18
08
08
08
88
FA
ENDCHAR
STARTCHAR 0695
ENCODING 1685
SWIDTH 625 0
DWIDTH 10 0
BBX 8 6 1 -2
BITMAP
18
08
08
08
8D
FA
ENDCHAR
STARTCHAR 0696
ENCODING 1686
SWIDTH 562 0
DWIDTH 9 0
BBX 7 6 1 -2
BITMAP
18
08
08
28
88
FA
ENDCHAR
STARTCHAR 0698
ENCODING 1688
SWIDTH 500 0
DWIDTH 8 0
BBX 6 10 1 -2
BITMAP
08
00
14
00
18
08
08
08
88
F8
ENDCHAR
STARTCHAR 069A
ENCODING 1690
SWIDTH 750 0
DWIDTH 12 0
BBX 10 8 1 -1
BITMAP
0100
0000
0000
8940
8940
8FC0
8800
F900
ENDCHAR
STARTCHAR 069B
ENCODING 1691
SWIDTH 750 0
DWIDTH 12 0
BBX 10 7 1 -3
BITMAP
8940
8940
8FC0
8800
FA80
0000
0100
ENDCHAR
STARTCHAR 069C
ENCODING 1692
SWIDTH 750 0
DWIDTH 12 0
BBX 10 9 1 -2
BITMAP
0100
0280
0000
8940
8940
8FC0
8800
FA80
0100
ENDCHAR
STARTCHAR 069D
ENCODING 1693
SWIDTH 750 0
DWIDTH 12 0
BBX 10 5 1 -1
BITMAP
89C0
8A40
8FC0
8800
FA80
ENDCHAR
STARTCHAR 069E
ENCODING 1694
SWIDTH 750 0
DWIDTH 12 0
BBX 10 9 1 -1
BITMAP
0100
0000
0280
0000
89C0
8A40
8FC0
8800
F800
ENDCHAR
STARTCHAR 069F
ENCODING 1695
SWIDTH 625 0
DWIDTH 10 0
BBX 8 8 1 0
BITMAP
08
40
52
40
4E
71
41
FF
ENDCHAR
STARTCHAR 06A1
ENCODING 1697
SWIDTH 562 0
DWIDTH 9 0
BBX 7 4 1 0
BITMAP
04
8A
86
7E
ENDCHAR
STARTCHAR 06A2
ENCODING 1698
SWIDTH 562 0
DWIDTH 9 0
BBX 7 6 1 -2
BITMAP
04
8A
86
7E
00
02
ENDCHAR
STARTCHAR 06A3
ENCODING 1699
SWIDTH 562 0
DWIDTH 9 0
BBX 7 8 1 -2
BITMAP
04
00
04
8A
86
7E
00
04
ENDCHAR
STARTCHAR 06A4
ENCODING 1700
SWIDTH 562 0
DWIDTH 9 0
BBX 7 8 1 0
BITMAP
04
00
0A
00
04
8A
86
7E
ENDCHAR
STARTCHAR 06A5
ENCODING 1701
SWIDTH 562 0
DWIDTH 9 0
BBX 7 8 1 -4
BITMAP
04
8A
86
7E
00
0A
00
04
ENDCHAR
STARTCHAR 06A6
ENCODING 1702
SWIDTH 562 0
DWIDTH 9 0
BBX 7 8 1 0
BITMAP
0A
00
0A
00
04
8A
86
7E
ENDCHAR
STARTCHAR 06A7
ENCODING 1703
SWIDTH 562 0
DWIDTH 9 0
BBX 7 8 1 -2
BITMAP
04
00
0E
0A
0E
82
82
FE
ENDCHAR
STARTCHAR 06A8
ENCODING 1704
SWIDTH 562 0
DWIDTH 9 0
BBX 7 10 1 -2
BITMAP
04
00
0A
00
0E
0A
0E
82
82
FE
ENDCHAR
STARTCHAR 06A9
ENCODING 1705
SWIDTH 687 0
DWIDTH 11 0
BBX 9 8 1 0
BITMAP
0180
0700
0C00
0800
0C00
0600
8200
FE00
ENDCHAR
STARTCHAR 06AA
ENCODING 1706
SWIDTH 812 0
DWIDTH 13 0
BBX 11 5 1 1
BITMAP
1F00
1000
1FE0
0020
FFE0
ENDCHAR
STARTCHAR 06AB
ENCODING 1707
SWIDTH 750 0
DWIDTH 12 0
BBX 10 8 1 0
BITMAP
0180
0740
0D40
09C0
0C00
0600
8200
FE00
ENDCHAR
STARTCHAR 06AC
ENCODING 1708
SWIDTH 687 0
DWIDTH 11 0
BBX 9 9 1 0
BITMAP
1000
0180
0700
2C00
4800
2C00
4600
8200
FE00
ENDCHAR
STARTCHAR 06AD
ENCODING 1709
SWIDTH 687 0
DWIDTH 11 0
BBX 9 10 1 0
BITMAP
4000
0000
A180
0700
2C00
4800
2C00
4600
8200
FE00
ENDCHAR
STARTCHAR 06AE
ENCODING 1710
SWIDTH 687 0
DWIDTH 11 0
BBX 9 12 1 -4
BITMAP
0180
0700
2C00
4800
2C00
4600
8200
FE00
0000
2800
0000
1000
ENDCHAR
STARTCHAR 06AF
ENCODING 1711
SWIDTH 687 0
DWIDTH 11 0
BBX 9 8 1 0
BITMAP
0180
0700
0C80
0B00
0C00
0600
8200
FE00
ENDCHAR
STARTCHAR 06B0
ENCODING 1712
SWIDTH 750 0
DWIDTH 12 0
BBX 10 8 1 0
BITMAP
0180
0700
0C80
0BC0
0D40
07C0
8200
FE00
ENDCHAR
STARTCHAR 06B1
ENCODING 1713
SWIDTH 687 0
DWIDTH 11 0
BBX 9 8 1 0
BITMAP
1580
0700
0C80
0B00
0C00
0600
8200
FE00
ENDCHAR
STARTCHAR 06B2
ENCODING 1714
SWIDTH 687 0
DWIDTH 11 0
BBX 9 10 1 -2
BITMAP
0180
0700
0C80
0B00
0C00
0600
8200
FE00
0000
2800
ENDCHAR
STARTCHAR 06B3
ENCODING 1715
SWIDTH 687 0
DWIDTH 11 0
BBX 9 11 1 -3
BITMAP
0180
0700
0C80
0B00
0C00
0600
8200
FE00
1000
0000
1000
ENDCHAR
STARTCHAR 06B4
ENCODING 1716
SWIDTH 687 0
DWIDTH 11 0
BBX 9 8 1 0
BITMAP
1180
2F00
0C80
0B00
0C00
0600
8200
FE00
ENDCHAR
STARTCHAR 06B5
ENCODING 1717
SWIDTH 562 0
DWIDTH 9 0
BBX 7 12 1 -1
BITMAP
0A
04
00
04
04
04
04
04
04
84
84
FC
ENDCHAR
STARTCHAR 06B6
ENCODING 1718
SWIDTH 500 0
DWIDTH 8 0
BBX 6 11 1 -1
BITMAP
04
00
04
04
04
04
04
04
84
84
FC
ENDCHAR
STARTCHAR 06B7
ENCODING 1719
SWIDTH 562 0
DWIDTH 9 0
BBX 7 12 1 -1
BITMAP
04
0A
00
04
04
04
04
04
04
84
84
FC
ENDCHAR
STARTCHAR 06B8
ENCODING 1720
SWIDTH 500 0
DWIDTH 8 0
BBX 6 11 1 -3
BITMAP
04
04
04
04
04
04
84
84
FC
28
10
ENDCHAR
STARTCHAR 06B9
ENCODING 1721
SWIDTH 500 0
DWIDTH 8 0
BBX 6 7 1 -3
BITMAP
10
84
84
84
84
78
10
ENDCHAR
STARTCHAR 06BA
ENCODING 1722
SWIDTH 500 0
DWIDTH 8 0
BBX 6 5 1 -2
BITMAP
84
84
84
84
78
ENDCHAR
STARTCHAR 06BB
ENCODING 1723
SWIDTH 500 0
DWIDTH 8 0
BBX 6 9 1 -2
BITMAP
20
38
78
00
84
84
84
84
78
ENDCHAR
STARTCHAR 06BC
ENCODING 1724
SWIDTH 500 0
DWIDTH 8 0
BBX 6 8 1 -3
BITMAP
30
00
84
84
84
84
78
30
ENDCHAR
STARTCHAR 06BD
ENCODING 1725
SWIDTH 500 0
DWIDTH 8 0
BBX 6 9 1 -2
BITMAP
20
00
50
00
84
84
84
84
78
ENDCHAR
STARTCHAR 06BE
ENCODING 1726
SWIDTH 562 0
DWIDTH 9 0
BBX 7 5 1 0
BITMAP
7C
02
3A
2A
FE
ENDCHAR
STARTCHAR 06BF
ENCODING 1727
SWIDTH 500 0
DWIDTH 8 0
BBX 6 9 1 -2
BITMAP
10
00
FC
0C
30
54
80
88
7C
ENDCHAR
STARTCHAR 06C0
ENCODING 1728
SWIDTH 375 0
DWIDTH 6 0
BBX 4 8 1 0
BITMAP
30
40
F0
00
70
90
90
F0
ENDCHAR
STARTCHAR 06C1
ENCODING 1729
SWIDTH 375 0
DWIDTH 6 0
BBX 4 4 1 0
BITMAP
70
90
90
F0
ENDCHAR
STARTCHAR 06C2
ENCODING 1730
SWIDTH 375 0
DWIDTH 6 0
BBX 4 8 1 0
BITMAP
30
40
F0
00
70
90
90
F0
ENDCHAR
STARTCHAR 06C3
ENCODING 1731
SWIDTH 375 0
DWIDTH 6 0
BBX 4 6 1 0
BITMAP
90
00
70
90
90
F0
ENDCHAR
STARTCHAR 06C4
ENCODING 1732
SWIDTH 500 0
DWIDTH 8 0
BBX 5 6 2 -1
BITMAP
38
28
38
38
28
F8
ENDCHAR
STARTCHAR 06C5
ENCODING 1733
SWIDTH 500 0
DWIDTH 8 0
BBX 5 6 2 -1
BITMAP
38
28
38
38
08
F8
ENDCHAR
STARTCHAR 06C6
ENCODING 1734
SWIDTH 500 0
DWIDTH 8 0
BBX 5 9 2 -1
BITMAP
28
10
00
38
28
38
08
08
F8
ENDCHAR
STARTCHAR 06C7
ENCODING 1735
SWIDTH 562 0
DWIDTH 9 0
BBX 6 10 2 -1
BITMAP
18
18
3C
00
38
28
38
08
08
F8
ENDCHAR
STARTCHAR 06C8
ENCODING 1736
SWIDTH 500 0
DWIDTH 8 0
BBX 5 10 2 -1
BITMAP
10
10
10
00
38
28
38
08
08
F8
ENDCHAR
STARTCHAR 06C9
ENCODING 1737
SWIDTH 500 0
DWIDTH 8 0
BBX 5 9 2 -1
BITMAP
10
28
00
38
28
38
08
08
F8
ENDCHAR
STARTCHAR 06CA
ENCODING 1738
SWIDTH 500 0
DWIDTH 8 0
BBX 5 8 2 -1
BITMAP
28
00
38
28
38
08
08
F8
ENDCHAR
STARTCHAR 06CB
ENCODING 1739
SWIDTH 500 0
DWIDTH 8 0
BBX 5 10 2 -1
BITMAP
10
00
28
00
38
28
38
08
08
F8
ENDCHAR
STARTCHAR 06CC
ENCODING 1740
SWIDTH 562 0
DWIDTH 9 0
BBX 7 6 1 -1
BITMAP
0E
08
0E
82
82
FE
ENDCHAR
STARTCHAR 06CD
ENCODING 1741
SWIDTH 625 0
DWIDTH 10 0
BBX 8 6 1 -1
BITMAP
07
04
07
C1
41
7F
ENDCHAR
STARTCHAR 06CE
ENCODING 1742
SWIDTH 562 0
DWIDTH 9 0
BBX 7 6 1 -1
BITMAP
5E
28
0E
82
82
FE
ENDCHAR
STARTCHAR 06CF
ENCODING 1743
SWIDTH 500 0
DWIDTH 8 0
BBX 5 8 2 -1
BITMAP
10
00
38
28
38
08
08
F8
ENDCHAR
STARTCHAR 06D0
ENCODING 1744
SWIDTH 562 0
DWIDTH 9 0
BBX 7 9 1 -4
BITMAP
0E
08
0E
82
82
FE
08
00
08
ENDCHAR
STARTCHAR 06D1
ENCODING 1745
SWIDTH 562 0
DWIDTH 9 0
BBX 7 9 1 -4
BITMAP
0E
08
0E
82
82
FE
28
00
10
ENDCHAR
STARTCHAR 06D2
ENCODING 1746
SWIDTH 625 0
DWIDTH 10 0
BBX 9 4 0 -1
BITMAP
0800
7000
8000
FF80
ENDCHAR
STARTCHAR 06D3
ENCODING 1747
SWIDTH 625 0
DWIDTH 10 0
BBX 9 8 0 -1
BITMAP
0400
0800
1C00
0000
0800
7000
8000
FF80
ENDCHAR
STARTCHAR 06D4
ENCODING 1748
SWIDTH 312 0
DWIDTH 5 0
BBX 3 1 1 2
BITMAP
E0
ENDCHAR
STARTCHAR 06D5
ENCODING 1749
SWIDTH 375 0
DWIDTH 6 0
BBX 4 4 1 0
BITMAP
70
90
90
F0
ENDCHAR
STARTCHAR 06D6
ENCODING 1750
SWIDTH 625 0
DWIDTH 10 0
BBX 9 6 0 6
BITMAP
1000
1300
1480
7F80
8000
F000
ENDCHAR
STARTCHAR 06D7
ENCODING 1751
SWIDTH 562 0
DWIDTH 9 0
BBX 7 6 1 6
BITMAP
16
16
12
FE
80
F0
ENDCHAR
STARTCHAR 06D8
ENCODING 1752
SWIDTH 375 0
DWIDTH 6 0
BBX 5 3 0 8
BITMAP
38
28
F8
ENDCHAR
STARTCHAR 06D9
ENCODING 1753
SWIDTH 437 0
DWIDTH 7 0
BBX 4 4 2 7
BITMAP
90
50
30
F0
ENDCHAR
STARTCHAR 06DA
ENCODING 1754
SWIDTH 375 0
DWIDTH 6 0
BBX 3 5 2 7
BITMAP
E0
40
A0
80
60
ENDCHAR
STARTCHAR 06DB
ENCODING 1755
SWIDTH 312 0
DWIDTH 5 0
BBX 3 3 1 8
BITMAP
40
00
A0
ENDCHAR
STARTCHAR 06DC
ENCODING 1756
SWIDTH 625 0
DWIDTH 10 0
BBX 8 4 1 7
BITMAP
95
9F
90
F0
ENDCHAR
STARTCHAR 06DD
ENCODING 1757
SWIDTH 812 0
DWIDTH 13 0
BBX 11 11 1 -1
BITMAP
1F00
3180
5140
A0A0
8020
8020
8020
A0A0
5140
3180
1F00
ENDCHAR
STARTCHAR 06DE
ENCODING 1758
SWIDTH 937 0
DWIDTH 15 0
BBX 13 13 1 -1
BITMAP
0200
7DF0
4890
5050
6730
4890
8888
4890
6730
5050
4890
7DF0
0200
ENDCHAR
STARTCHAR 06DF
ENCODING 1759
SWIDTH 312 0
DWIDTH 5 0
BBX 1 1 3 9
BITMAP
80
ENDCHAR
STARTCHAR 06E0
ENCODING 1760
SWIDTH 250 0
DWIDTH 4 0
BBX 2 2 1 8
BITMAP
C0
C0
ENDCHAR
STARTCHAR 06E1
ENCODING 1761
SWIDTH 375 0
DWIDTH 6 0
BBX 4 3 1 8
BITMAP
60
10
F0
ENDCHAR
STARTCHAR 06E2
ENCODING 1762
SWIDTH 375 0
DWIDTH 6 0
BBX 4 4 1 7
BITMAP
70
50
F0
80
ENDCHAR
STARTCHAR 06E3
ENCODING 1763
SWIDTH 625 0
DWIDTH 10 0
BBX 8 4 1 -3
BITMAP
95
9F
90
F0
ENDCHAR
STARTCHAR 06E4
ENCODING 1764
SWIDTH 375 0
DWIDTH 6 0
BBX 3 1 2 9
BITMAP
E0
ENDCHAR
STARTCHAR 06E5
ENCODING 1765
SWIDTH 375 0
DWIDTH 6 0
BBX 4 4 1 8
BITMAP
30
30
10
F0
ENDCHAR
STARTCHAR 06E6
ENCODING 1766
SWIDTH 437 0
DWIDTH 7 0
BBX 5 3 1 7
BITMAP
60
80
F8
ENDCHAR
STARTCHAR 06E7
ENCODING 1767
SWIDTH 437 0
DWIDTH 7 0
BBX 5 3 1 7
BITMAP
60
80
F8
ENDCHAR
STARTCHAR 06E8
ENCODING 1768
SWIDTH 437 0
DWIDTH 7 0
BBX 5 4 1 7
BITMAP
88
88
88
70
ENDCHAR
STARTCHAR 06E9
ENCODING 1769
SWIDTH 625 0
DWIDTH 10 0
BBX 9 12 0 0
BITMAP
0800
1E00
3300
7D80
DF80
DF00
2A00
2A00
2A00
2A00
6300
7F80
ENDCHAR
STARTCHAR 06EA
ENCODING 1770
SWIDTH 375 0
DWIDTH 6 0
BBX 3 3 2 -3
BITMAP
40
A0
40
ENDCHAR
STARTCHAR 06EB
ENCODING 1771
SWIDTH 375 0
DWIDTH 6 0
BBX 3 3 2 8
BITMAP
40
A0
40
ENDCHAR
STARTCHAR 06EC
ENCODING 1772
SWIDTH 250 0
DWIDTH 4 0
BBX 1 1 2 8
BITMAP
80
ENDCHAR
STARTCHAR 06ED
ENCODING 1773
SWIDTH 250 0
DWIDTH 4 0
BBX 3 3 0 -2
BITMAP
60
E0
80
ENDCHAR
STARTCHAR 06EE
ENCODING 1774
SWIDTH 437 0
DWIDTH 7 0
BBX 4 8 2 0
BITMAP
20
50
00
20
20
20
20
E0
ENDCHAR
STARTCHAR 06EF
ENCODING 1775
SWIDTH 500 0
DWIDTH 8 0
BBX 6 9 1 -2
BITMAP
08
14
00
18
08
08
08
88
F8
ENDCHAR
STARTCHAR 06F0
ENCODING 1776
SWIDTH 375 0
DWIDTH 6 0
BBX 2 2 3 3
BITMAP
C0
C0
ENDCHAR
STARTCHAR 06F1
ENCODING 1777
SWIDTH 375 0
DWIDTH 6 0
BBX 3 6 2 0
BITMAP
C0
C0
C0
60
60
60
ENDCHAR
STARTCHAR 06F2
ENCODING 1778
SWIDTH 500 0
DWIDTH 8 0
BBX 5 6 2 0
BITMAP
C8
F8
C0
60
60
60
ENDCHAR
STARTCHAR 06F3
ENCODING 1779
SWIDTH 562 0
DWIDTH 9 0
BBX 6 6 2 0
BITMAP
D4
FC
C0
60
60
60
ENDCHAR
STARTCHAR 06F4
ENCODING 1780
SWIDTH 562 0
DWIDTH 9 0
BBX 6 6 2 0
BITMAP
DC
FC
C0
60
60
60
ENDCHAR
STARTCHAR 06F5
ENCODING 1781
SWIDTH 562 0
DWIDTH 9 0
BBX 7 6 1 0
BITMAP
7C
C6
C6
C6
D6
7E
ENDCHAR
STARTCHAR 06F6
ENCODING 1782
SWIDTH 437 0
DWIDTH 7 0
BBX 4 6 2 0
BITMAP
70
C0
C0
70
C0
C0
ENDCHAR
STARTCHAR 06F7
ENCODING 1783
SWIDTH 562 0
DWIDTH 9 0
BBX 7 6 1 0
BITMAP
86
44
64
2C
38
18
ENDCHAR
STARTCHAR 06F8
ENCODING 1784
SWIDTH 562 0
DWIDTH 9 0
BBX 7 6 1 0
BITMAP
08
18
34
24
42
C2
ENDCHAR
STARTCHAR 06F9
ENCODING 1785
SWIDTH 500 0
DWIDTH 8 0
BBX 5 6 2 0
BITMAP
70
D8
D8
78
18
18
ENDCHAR
STARTCHAR 06FA
ENCODING 1786
SWIDTH 750 0
DWIDTH 12 0
BBX 10 9 1 -1
BITMAP
0100
0000
0280
0000
8940
8940
8FC0
8800
F900
ENDCHAR
STARTCHAR 06FB
ENCODING 1787
SWIDTH 750 0
DWIDTH 12 0
BBX 10 7 1 -1
BITMAP
0100
0000
89C0
8A40
8FC0
8800
F900
ENDCHAR
STARTCHAR 06FC
ENCODING 1788
SWIDTH 437 0
DWIDTH 7 0
BBX 5 10 1 -2
BITMAP
10
00
38
40
78
80
90
80
80
78
ENDCHAR
STARTCHAR 06FD
ENCODING 1789
SWIDTH 437 0
DWIDTH 7 0
BBX 5 7 1 -3
BITMAP
30
40
40
F0
00
28
28
ENDCHAR
STARTCHAR 06FE
ENCODING 1790
SWIDTH 500 0
DWIDTH 8 0
BBX 6 7 1 -3
BITMAP
78
48
48
F8
80
94
14
ENDCHAR
STARTCHAR 06FF
ENCODING 1791
SWIDTH 562 0
DWIDTH 9 0
BBX 7 8 1 0
BITMAP
10
28
00
7C
02
3A
2A
FE
ENDCHAR
STARTCHAR 09F2
ENCODING 2546
SWIDTH 562 0
DWIDTH 9 0
BBX 7 7 1 0
BITMAP
C0
60
30
18
0C
06
02
ENDCHAR
STARTCHAR 09F3
ENCODING 2547
SWIDTH 437 0
DWIDTH 7 0
BBX 6 9 0 0
BITMAP
60
20
FC
20
20
28
24
24
18
ENDCHAR
STARTCHAR 0E3F
ENCODING 3647
SWIDTH 500 0
DWIDTH 8 0
BBX 6 9 1 -1
BITMAP
20
F8
EC
EC
F8
EC
EC
F8
20
ENDCHAR
STARTCHAR 10D0
ENCODING 4304
SWIDTH 500 0
DWIDTH 8 0
BBX 6 5 1 0
BITMAP
30
18
0C
CC
78
ENDCHAR
STARTCHAR 10D1
ENCODING 4305
SWIDTH 562 0
DWIDTH 9 0
BBX 7 7 1 0
BITMAP
70
D8
18
7C
C6
C6
7C
ENDCHAR
STARTCHAR 10D2
ENCODING 4306
SWIDTH 562 0
DWIDTH 9 0
BBX 7 6 1 -1
BITMAP
F0
98
3C
66
66
3C
ENDCHAR
STARTCHAR 10D3
ENCODING 4307
SWIDTH 687 0
DWIDTH 11 0
BBX 9 6 1 -1
BITMAP
7F00
CD80
CD80
CD80
C700
7000
ENDCHAR
STARTCHAR 10D4
ENCODING 4308
SWIDTH 500 0
DWIDTH 8 0
BBX 6 6 1 -1
BITMAP
78
CC
0C
0C
CC
78
ENDCHAR
STARTCHAR 10D5
ENCODING 4309
SWIDTH 500 0
DWIDTH 8 0
BBX 6 6 1 -1
BITMAP
78
CC
18
0C
CC
78
ENDCHAR
STARTCHAR 10D6
ENCODING 4310
SWIDTH 625 0
DWIDTH 10 0
BBX 8 6 1 0
BITMAP
76
DC
DE
73
33
3E
ENDCHAR
STARTCHAR 10D7
ENCODING 4311
SWIDTH 750 0
DWIDTH 12 0
BBX 10 5 1 0
BITMAP
7B80
CEC0
CCC0
CCC0
7980
ENDCHAR
STARTCHAR 10D8
ENCODING 4312
SWIDTH 562 0
DWIDTH 9 0
BBX 7 5 1 0
BITMAP
7C
C6
C6
C6
6C
ENDCHAR
STARTCHAR 10D9
ENCODING 4313
SWIDTH 500 0
DWIDTH 8 0
BBX 6 6 1 -1
BITMAP
78
0C
38
0C
CC
78
ENDCHAR
STARTCHAR 10DA
ENCODING 4314
SWIDTH 750 0
DWIDTH 12 0
BBX 10 6 1 -1
BITMAP
77C0
DCC0
CCC0
C180
C000
7C00
ENDCHAR
STARTCHAR 10DB
ENCODING 4315
SWIDTH 500 0
DWIDTH 8 0
BBX 6 7 1 0
BITMAP
78
CC
0C
7C
CC
CC
78
ENDCHAR
STARTCHAR 10DC
ENCODING 4316
SWIDTH 500 0
DWIDTH 8 0
BBX 6 7 1 0
BITMAP
78
C0
F8
CC
CC
CC
78
ENDCHAR
STARTCHAR 10DD
ENCODING 4317
SWIDTH 687 0
DWIDTH 11 0
BBX 9 5 1 0
BITMAP
7E00
DB00
C300
C600
6780
ENDCHAR
STARTCHAR 10DE
ENCODING 4318
SWIDTH 500 0
DWIDTH 8 0
BBX 6 7 1 0
BITMAP
30
18
0C
18
0C
CC
78
ENDCHAR
STARTCHAR 10DF
ENCODING 4319
SWIDTH 500 0
DWIDTH 8 0
BBX 6 7 1 -1
BITMAP
1C
3C
AC
EC
0C
CC
78
ENDCHAR
STARTCHAR 10E0
ENCODING 4320
SWIDTH 687 0
DWIDTH 11 0
BBX 9 7 1 0
BITMAP
3800
6000
7700
D980
D980
C300
6600
ENDCHAR
STARTCHAR 10E1
ENCODING 4321
SWIDTH 500 0
DWIDTH 8 0
BBX 6 8 1 0
BITMAP
80
C0
D8
CC
CC
CC
CC
78
ENDCHAR
STARTCHAR 10E2
ENCODING 4322
SWIDTH 625 0
DWIDTH 10 0
BBX 8 8 1 -1
BITMAP
18
14
7E
EB
DB
C3
C3
7E
ENDCHAR
STARTCHAR 10E3
ENCODING 4323
SWIDTH 625 0
DWIDTH 10 0
BBX 8 6 1 -1
BITMAP
BE
AB
EB
03
C3
7E
ENDCHAR
STARTCHAR 10E4
ENCODING 4324
SWIDTH 625 0
DWIDTH 10 0
BBX 8 7 1 -1
BITMAP
7E
D3
D3
76
03
63
3E
ENDCHAR
STARTCHAR 10E5
ENCODING 4325
SWIDTH 500 0
DWIDTH 8 0
BBX 6 8 1 -1
BITMAP
18
0C
7C
4C
0C
0C
CC
78
ENDCHAR
STARTCHAR 10E6
ENCODING 4326
SWIDTH 687 0
DWIDTH 11 0
BBX 10 6 0 -1
BITMAP
7B80
CCC0
CCC0
C080
6000
3E00
ENDCHAR
STARTCHAR 10E7
ENCODING 4327
SWIDTH 500 0
DWIDTH 8 0
BBX 6 6 1 -1
BITMAP
6C
CC
7C
0C
CC
78
ENDCHAR
STARTCHAR 10E8
ENCODING 4328
SWIDTH 562 0
DWIDTH 9 0
BBX 7 8 1 0
BITMAP
7C
D6
66
06
7E
C6
C6
7C
ENDCHAR
STARTCHAR 10E9
ENCODING 4329
SWIDTH 500 0
DWIDTH 8 0
BBX 6 7 1 0
BITMAP
70
D8
D8
F0
D8
CC
D8
ENDCHAR
STARTCHAR 10EA
ENCODING 4330
SWIDTH 562 0
DWIDTH 9 0
BBX 7 6 1 -1
BITMAP
6C
C6
DC
C6
C6
7C
ENDCHAR
STARTCHAR 10EB
ENCODING 4331
SWIDTH 500 0
DWIDTH 8 0
BBX 6 6 1 0
BITMAP
38
0C
7C
CC
CC
78
ENDCHAR
STARTCHAR 10EC
ENCODING 4332
SWIDTH 562 0
DWIDTH 9 0
BBX 7 7 1 -1
BITMAP
7C
D6
C0
FE
CC
D8
70
ENDCHAR
STARTCHAR 10ED
ENCODING 4333
SWIDTH 562 0
DWIDTH 9 0
BBX 7 7 1 -1
BITMAP
78
4C
3E
2C
3E
CC
78
ENDCHAR
STARTCHAR 10EE
ENCODING 4334
SWIDTH 562 0
DWIDTH 9 0
BBX 6 7 2 0
BITMAP
D0
E0
F8
CC
CC
CC
78
ENDCHAR
STARTCHAR 10EF
ENCODING 4335
SWIDTH 625 0
DWIDTH 10 0
BBX 8 7 1 -1
BITMAP
E3
B2
36
3C
38
6D
C7
ENDCHAR
STARTCHAR 10F0
ENCODING 4336
SWIDTH 500 0
DWIDTH 8 0
BBX 6 9 1 0
BITMAP
20
18
0C
38
0C
38
0C
CC
78
ENDCHAR
STARTCHAR 10F1
ENCODING 4337
SWIDTH 625 0
DWIDTH 10 0
BBX 8 6 1 0
BITMAP
76
D3
F6
C3
C6
7C
ENDCHAR
STARTCHAR 10F2
ENCODING 4338
SWIDTH 500 0
DWIDTH 8 0
BBX 6 5 1 0
BITMAP
78
CC
CC
78
FC
ENDCHAR
STARTCHAR 10F3
ENCODING 4339
SWIDTH 500 0
DWIDTH 8 0
BBX 6 6 1 -1
BITMAP
FC
0C
38
0C
CC
78
ENDCHAR
STARTCHAR 10F4
ENCODING 4340
SWIDTH 500 0
DWIDTH 8 0
BBX 6 8 1 0
BITMAP
30
20
38
0C
38
0C
CC
78
ENDCHAR
STARTCHAR 10F5
ENCODING 4341
SWIDTH 500 0
DWIDTH 8 0
BBX 6 7 1 0
BITMAP
70
D8
7C
18
7C
D8
70
ENDCHAR
STARTCHAR 10F6
ENCODING 4342
SWIDTH 625 0
DWIDTH 10 0
BBX 8 8 1 -1
BITMAP
38
18
7E
DB
DB
7E
18
1C
ENDCHAR
STARTCHAR 10F7
ENCODING 4343
SWIDTH 500 0
DWIDTH 8 0
BBX 6 7 1 -1
BITMAP
78
CC
0C
78
C0
CC
78
ENDCHAR
STARTCHAR 10F8
ENCODING 4344
SWIDTH 500 0
DWIDTH 8 0
BBX 6 6 1 -1
BITMAP
CC
CC
F8
C0
CC
78
ENDCHAR
STARTCHAR 10F9
ENCODING 4345
SWIDTH 500 0
DWIDTH 8 0
BBX 6 6 1 -1
BITMAP
78
CC
CC
78
34
1C
ENDCHAR
STARTCHAR 10FA
ENCODING 4346
SWIDTH 500 0
DWIDTH 8 0
BBX 6 5 1 0
BITMAP
3C
6C
60
60
FC
ENDCHAR
STARTCHAR 10FB
ENCODING 4347
SWIDTH 437 0
DWIDTH 7 0
BBX 4 5 2 0
BITMAP
80
00
10
00
80
ENDCHAR
STARTCHAR 10FC
ENCODING 4348
SWIDTH 375 0
DWIDTH 6 0
BBX 4 6 1 3
BITMAP
F0
80
E0
90
90
60
ENDCHAR
STARTCHAR 17DB
ENCODING 6107
SWIDTH 375 0
DWIDTH 6 0
BBX 4 7 1 0
BITMAP
D0
F0
80
E0
30
A0
E0
ENDCHAR
STARTCHAR 1D2C
ENCODING 7468
SWIDTH 437 0
DWIDTH 7 0
BBX 5 5 1 4
BITMAP
20
50
88
F8
88
ENDCHAR
STARTCHAR 1D2E
ENCODING 7470
SWIDTH 437 0
DWIDTH 7 0
BBX 5 5 1 4
BITMAP
F0
88
F0
88
F0
ENDCHAR
STARTCHAR 1D30
ENCODING 7472
SWIDTH 437 0
DWIDTH 7 0
BBX 5 5 1 4
BITMAP
F0
88
88
88
F0
ENDCHAR
STARTCHAR 1D31
ENCODING 7473
SWIDTH 437 0
DWIDTH 7 0
BBX 5 5 1 4
BITMAP
F8
80
F0
80
F8
ENDCHAR
STARTCHAR 1D33
ENCODING 7475
SWIDTH 437 0
DWIDTH 7 0
BBX 5 5 1 4
BITMAP
78
80
B8
88
70
ENDCHAR
STARTCHAR 1D34
ENCODING 7476
SWIDTH 437 0
DWIDTH 7 0
BBX 5 5 1 4
BITMAP
88
88
F8
88
88
ENDCHAR
STARTCHAR 1D35
ENCODING 7477
SWIDTH 437 0
DWIDTH 7 0
BBX 5 5 1 4
BITMAP
F8
20
20
20
F8
ENDCHAR
STARTCHAR 1D36
ENCODING 7478
SWIDTH 500 0
DWIDTH 8 0
BBX 6 5 1 4
BITMAP
04
04
04
84
78
ENDCHAR
STARTCHAR 1D37
ENCODING 7479
SWIDTH 375 0
DWIDTH 6 0
BBX 4 5 1 4
BITMAP
90
A0
C0
A0
90
ENDCHAR
STARTCHAR 1D38
ENCODING 7480
SWIDTH 375 0
DWIDTH 6 0
BBX 4 5 1 4
BITMAP
80
80
80
80
F0
ENDCHAR
STARTCHAR 1D39
ENCODING 7481
SWIDTH 562 0
DWIDTH 9 0
BBX 7 5 1 4
BITMAP
82
C6
AA
92
82
ENDCHAR
STARTCHAR 1D3A
ENCODING 7482
SWIDTH 437 0
DWIDTH 7 0
BBX 5 5 1 4
BITMAP
88
C8
A8
98
88
ENDCHAR
STARTCHAR 1D3C
ENCODING 7484
SWIDTH 437 0
DWIDTH 7 0
BBX 5 4 1 5
BITMAP
70
88
88
70
ENDCHAR
STARTCHAR 1D3E
ENCODING 7486
SWIDTH 437 0
DWIDTH 7 0
BBX 5 5 1 4
BITMAP
F0
88
F0
80
80
ENDCHAR
STARTCHAR 1D3F
ENCODING 7487
SWIDTH 437 0
DWIDTH 7 0
BBX 5 5 1 4
BITMAP
F0
88
F0
A0
98
ENDCHAR
STARTCHAR 1D40
ENCODING 7488
SWIDTH 437 0
DWIDTH 7 0
BBX 5 5 1 5
BITMAP
F8
20
20
20
20
ENDCHAR
STARTCHAR 1D41
ENCODING 7489
SWIDTH 437 0
DWIDTH 7 0
BBX 5 5 1 5
BITMAP
88
88
88
88
70
ENDCHAR
STARTCHAR 1D42
ENCODING 7490
SWIDTH 687 0
DWIDTH 11 0
BBX 9 5 1 5
BITMAP
8880
8880
8880
5500
2200
ENDCHAR
STARTCHAR 1D43
ENCODING 7491
SWIDTH 375 0
DWIDTH 6 0
BBX 4 4 1 6
BITMAP
70
90
B0
50
ENDCHAR
STARTCHAR 1D47
ENCODING 7495
SWIDTH 375 0
DWIDTH 6 0
BBX 4 5 1 5
BITMAP
80
E0
90
90
E0
ENDCHAR
STARTCHAR 1D48
ENCODING 7496
SWIDTH 375 0
DWIDTH 6 0
BBX 4 5 1 5
BITMAP
10
70
90
90
70
ENDCHAR
STARTCHAR 1D49
ENCODING 7497
SWIDTH 375 0
DWIDTH 6 0
BBX 4 5 1 4
BITMAP
60
90
F0
80
70
ENDCHAR
STARTCHAR 1D4D
ENCODING 7501
SWIDTH 375 0
DWIDTH 6 0
BBX 4 6 1 3
BITMAP
70
90
90
70
10
E0
ENDCHAR
STARTCHAR 1D4F
ENCODING 7503
SWIDTH 312 0
DWIDTH 5 0
BBX 3 5 1 5
BITMAP
80
A0
A0
C0
A0
ENDCHAR
STARTCHAR 1D50
ENCODING 7504
SWIDTH 437 0
DWIDTH 7 0
BBX 5 3 1 5
BITMAP
F8
A8
A8
ENDCHAR
STARTCHAR 1D52
ENCODING 7506
SWIDTH 312 0
DWIDTH 5 0
BBX 3 3 1 5
BITMAP
E0
A0
E0
ENDCHAR
STARTCHAR 1D56
ENCODING 7510
SWIDTH 312 0
DWIDTH 5 0
BBX 3 4 1 4
BITMAP
E0
A0
E0
80
ENDCHAR
STARTCHAR 1D57
ENCODING 7511
SWIDTH 312 0
DWIDTH 5 0
BBX 3 5 1 5
BITMAP
40
E0
40
40
20
ENDCHAR
STARTCHAR 1D58
ENCODING 7512
SWIDTH 375 0
DWIDTH 6 0
BBX 4 3 1 5
BITMAP
90
90
70
ENDCHAR
STARTCHAR 1D5B
ENCODING 7515
SWIDTH 437 0
DWIDTH 7 0
BBX 5 3 1 5
BITMAP
88
50
20
ENDCHAR
STARTCHAR 1D5D
ENCODING 7517
SWIDTH 437 0
DWIDTH 7 0
BBX 5 6 1 4
BITMAP
70
88
B0
88
F0
80
ENDCHAR
STARTCHAR 1D60
ENCODING 7520
SWIDTH 437 0
DWIDTH 7 0
BBX 5 5 1 4
BITMAP
B0
A8
A8
70
20
ENDCHAR
STARTCHAR 1D9C
ENCODING 7580
SWIDTH 375 0
DWIDTH 6 0
BBX 4 4 1 5
BITMAP
70
80
80
70
ENDCHAR
STARTCHAR 1DA0
ENCODING 7584
SWIDTH 375 0
DWIDTH 6 0
BBX 4 5 1 5
BITMAP
30
40
E0
40
40
ENDCHAR
STARTCHAR 1DBB
ENCODING 7611
SWIDTH 375 0
DWIDTH 6 0
BBX 4 5 1 4
BITMAP
F0
10
60
80
F0
ENDCHAR
STARTCHAR 1E00
ENCODING 7680
SWIDTH 500 0
DWIDTH 8 0
BBX 6 10 1 -3
BITMAP
78
CC
CC
CC
FC
CC
CC
38
28
38
ENDCHAR
STARTCHAR 1E01
ENCODING 7681
SWIDTH 562 0
DWIDTH 9 0
BBX 7 8 1 -3
BITMAP
78
0C
7C
CC
76
38
28
38
ENDCHAR
STARTCHAR 1E02
ENCODING 7682
SWIDTH 562 0
DWIDTH 9 0
BBX 7 9 1 0
BITMAP
10
00
FC
66
66
7C
66
66
FC
ENDCHAR
STARTCHAR 1E03
ENCODING 7683
SWIDTH 500 0
DWIDTH 8 0
BBX 6 7 1 0
BITMAP
D0
C0
F8
CC
CC
CC
F8
ENDCHAR
STARTCHAR 1E04
ENCODING 7684
SWIDTH 562 0
DWIDTH 9 0
BBX 7 9 1 -2
BITMAP
FC
66
66
7C
66
66
FC
00
10
ENDCHAR
STARTCHAR 1E05
ENCODING 7685
SWIDTH 500 0
DWIDTH 8 0
BBX 6 9 1 -2
BITMAP
C0
C0
F8
CC
CC
CC
F8
00
20
ENDCHAR
STARTCHAR 1E06
ENCODING 7686
SWIDTH 562 0
DWIDTH 9 0
BBX 7 9 1 -2
BITMAP
FC
66
66
7C
66
66
FC
00
7C
ENDCHAR
STARTCHAR 1E07
ENCODING 7687
SWIDTH 500 0
DWIDTH 8 0
BBX 6 9 1 -2
BITMAP
C0
C0
F8
CC
CC
CC
F8
00
78
ENDCHAR
STARTCHAR 1E08
ENCODING 7688
SWIDTH 562 0
DWIDTH 9 0
BBX 7 13 1 -3
BITMAP
08
10
00
7C
C6
C0
C0
C0
C6
7C
10
08
30
ENDCHAR
STARTCHAR 1E09
ENCODING 7689
SWIDTH 500 0
DWIDTH 8 0
BBX 6 11 1 -3
BITMAP
18
30
00
78
CC
C0
CC
78
20
10
60
ENDCHAR
STARTCHAR 1E0A
ENCODING 7690
SWIDTH 562 0
DWIDTH 9 0
BBX 7 9 1 0
BITMAP
10
00
FC
66
66
66
66
66
FC
ENDCHAR
STARTCHAR 1E0B
ENCODING 7691
SWIDTH 562 0
DWIDTH 9 0
BBX 7 9 1 0
BITMAP
20
00
0C
0C
7C
CC
CC
CC
76
ENDCHAR
STARTCHAR 1E0C
ENCODING 7692
SWIDTH 562 0
DWIDTH 9 0
BBX 7 9 1 -2
BITMAP
FC
66
66
66
66
66
FC
00
10
ENDCHAR
STARTCHAR 1E0D
ENCODING 7693
SWIDTH 562 0
DWIDTH 9 0
BBX 7 9 1 -2
BITMAP
0C
0C
7C
CC
CC
CC
76
00
10
ENDCHAR
STARTCHAR 1E0E
ENCODING 7694
SWIDTH 562 0
DWIDTH 9 0
BBX 7 9 1 -2
BITMAP
FC
66
66
66
66
66
FC
00
7C
ENDCHAR
STARTCHAR 1E0F
ENCODING 7695
SWIDTH 562 0
DWIDTH 9 0
BBX 7 9 1 -2
BITMAP
0C
0C
7C
CC
CC
CC
76
00
78
ENDCHAR
STARTCHAR 1E10
ENCODING 7696
SWIDTH 562 0
DWIDTH 9 0
BBX 7 10 1 -3
BITMAP
FC
66
66
66
66
66
FC
10
08
30
ENDCHAR
STARTCHAR 1E11
ENCODING 7697
SWIDTH 562 0
DWIDTH 9 0
BBX 7 10 1 -3
BITMAP
0C
0C
7C
CC
CC
CC
76
20
10
60
ENDCHAR
STARTCHAR 1E12
ENCODING 7698
SWIDTH 562 0
DWIDTH 9 0
BBX 7 9 1 -2
BITMAP
FC
66
66
66
66
66
FC
18
2C
ENDCHAR
STARTCHAR 1E13
ENCODING 7699
SWIDTH 562 0
DWIDTH 9 0
BBX 7 9 1 -2
BITMAP
0C
0C
7C
CC
CC
CC
76
10
28
ENDCHAR
STARTCHAR 1E14
ENCODING 7700
SWIDTH 562 0
DWIDTH 9 0
BBX 7 11 1 0
BITMAP
20
10
7C
00
FE
62
68
78
68
62
FE
ENDCHAR
STARTCHAR 1E15
ENCODING 7701
SWIDTH 500 0
DWIDTH 8 0
BBX 6 9 1 0
BITMAP
20
10
78
00
78
CC
FC
C0
78
ENDCHAR
STARTCHAR 1E16
ENCODING 7702
SWIDTH 562 0
DWIDTH 9 0
BBX 7 11 1 0
BITMAP
08
10
7C
00
FE
62
68
78
68
62
FE
ENDCHAR
STARTCHAR 1E17
ENCODING 7703
SWIDTH 500 0
DWIDTH 8 0
BBX 6 9 1 0
BITMAP
10
20
78
00
78
CC
FC
C0
78
ENDCHAR
STARTCHAR 1E18
ENCODING 7704
SWIDTH 562 0
DWIDTH 9 0
BBX 7 9 1 -2
BITMAP
FE
62
68
78
68
62
FE
10
28
ENDCHAR
STARTCHAR 1E19
ENCODING 7705
SWIDTH 500 0
DWIDTH 8 0
BBX 6 7 1 -2
BITMAP
78
CC
FC
C0
78
20
50
ENDCHAR
STARTCHAR 1E1B
ENCODING 7707
SWIDTH 500 0
DWIDTH 8 0
BBX 6 7 1 -2
BITMAP
78
CC
FC
C0
78
28
50
ENDCHAR
STARTCHAR 1E1C
ENCODING 7708
SWIDTH 562 0
DWIDTH 9 0
BBX 7 13 1 -3
BITMAP
44
38
00
FE
62
68
78
68
62
FE
10
08
30
ENDCHAR
STARTCHAR 1E1D
ENCODING 7709
SWIDTH 500 0
DWIDTH 8 0
BBX 6 11 1 -3
BITMAP
48
30
00
78
CC
FC
C0
78
20
10
60
ENDCHAR
STARTCHAR 1E1E
ENCODING 7710
SWIDTH 562 0
DWIDTH 9 0
BBX 7 9 1 0
BITMAP
10
00
FE
62
68
78
68
60
F0
ENDCHAR
STARTCHAR 1E1F
ENCODING 7711
SWIDTH 437 0
DWIDTH 7 0
BBX 5 9 1 0
BITMAP
10
00
38
60
60
F0
60
60
60
ENDCHAR
STARTCHAR 1E20
ENCODING 7712
SWIDTH 500 0
DWIDTH 8 0
BBX 6 9 1 0
BITMAP
78
00
78
CC
C0
DC
CC
CC
78
ENDCHAR
STARTCHAR 1E21
ENCODING 7713
SWIDTH 500 0
DWIDTH 8 0
BBX 6 8 1 -1
BITMAP
78
00
78
CC
CC
7C
0C
F8
ENDCHAR
STARTCHAR 1E22
ENCODING 7714
SWIDTH 562 0
DWIDTH 9 0
BBX 7 9 1 0
BITMAP
10
00
C6
C6
C6
FE
C6
C6
C6
ENDCHAR
STARTCHAR 1E23
ENCODING 7715
SWIDTH 500 0
DWIDTH 8 0
BBX 6 8 1 0
BITMAP
10
C0
C0
F8
CC
CC
CC
CC
ENDCHAR
STARTCHAR 1E24
ENCODING 7716
SWIDTH 562 0
DWIDTH 9 0
BBX 7 9 1 -2
BITMAP
C6
C6
C6
FE
C6
C6
C6
00
10
ENDCHAR
STARTCHAR 1E25
ENCODING 7717
SWIDTH 500 0
DWIDTH 8 0
BBX 6 9 1 -2
BITMAP
C0
C0
F8
CC
CC
CC
CC
00
10
ENDCHAR
STARTCHAR 1E26
ENCODING 7718
SWIDTH 562 0
DWIDTH 9 0
BBX 7 9 1 0
BITMAP
28
00
C6
C6
C6
FE
C6
C6
C6
ENDCHAR
STARTCHAR 1E27
ENCODING 7719
SWIDTH 500 0
DWIDTH 8 0
BBX 6 9 1 0
BITMAP
48
00
C0
C0
F8
CC
CC
CC
CC
ENDCHAR
STARTCHAR 1E28
ENCODING 7720
SWIDTH 562 0
DWIDTH 9 0
BBX 7 10 1 -3
BITMAP
C6
C6
C6
FE
C6
C6
C6
40
20
C0
ENDCHAR
STARTCHAR 1E29
ENCODING 7721
SWIDTH 500 0
DWIDTH 8 0
BBX 6 10 1 -3
BITMAP
C0
C0
F8
CC
CC
CC
CC
40
20
C0
ENDCHAR
STARTCHAR 1E2A
ENCODING 7722
SWIDTH 562 0
DWIDTH 9 0
BBX 7 9 1 -2
BITMAP
C6
C6
C6
FE
C6
C6
C6
44
38
ENDCHAR
STARTCHAR 1E2B
ENCODING 7723
SWIDTH 500 0
DWIDTH 8 0
BBX 6 10 1 -3
BITMAP
C0
C0
F8
CC
CC
CC
CC
00
48
30
ENDCHAR
STARTCHAR 1E2C
ENCODING 7724
SWIDTH 500 0
DWIDTH 8 0
BBX 6 9 1 -2
BITMAP
78
30
30
30
30
30
78
64
98
ENDCHAR
STARTCHAR 1E2D
ENCODING 7725
SWIDTH 375 0
DWIDTH 6 0
BBX 4 9 1 -2
BITMAP
60
00
E0
60
60
60
F0
50
A0
ENDCHAR
STARTCHAR 1E2E
ENCODING 7726
SWIDTH 437 0
DWIDTH 7 0
BBX 4 11 2 0
BITMAP
20
40
90
00
F0
60
60
60
60
60
F0
ENDCHAR
STARTCHAR 1E2F
ENCODING 7727
SWIDTH 375 0
DWIDTH 6 0
BBX 4 9 1 0
BITMAP
20
40
90
00
E0
60
60
60
F0
ENDCHAR
STARTCHAR 1E30
ENCODING 7728
SWIDTH 562 0
DWIDTH 9 0
BBX 7 9 1 0
BITMAP
08
10
C6
CC
D8
F0
D8
CC
C6
ENDCHAR
STARTCHAR 1E31
ENCODING 7729
SWIDTH 500 0
DWIDTH 8 0
BBX 6 9 1 0
BITMAP
10
20
C0
CC
D8
F0
F0
D8
CC
ENDCHAR
STARTCHAR 1E32
ENCODING 7730
SWIDTH 562 0
DWIDTH 9 0
BBX 7 9 1 -2
BITMAP
C6
CC
D8
F0
D8
CC
C6
00
10
ENDCHAR
STARTCHAR 1E33
ENCODING 7731
SWIDTH 500 0
DWIDTH 8 0
BBX 6 9 1 -2
BITMAP
C0
CC
D8
F0
F0
D8
CC
00
20
ENDCHAR
STARTCHAR 1E34
ENCODING 7732
SWIDTH 562 0
DWIDTH 9 0
BBX 7 9 1 -2
BITMAP
C6
CC
D8
F0
D8
CC
C6
00
78
ENDCHAR
STARTCHAR 1E35
ENCODING 7733
SWIDTH 500 0
DWIDTH 8 0
BBX 6 9 1 -2
BITMAP
C0
CC
D8
F0
F0
D8
CC
00
78
ENDCHAR
STARTCHAR 1E36
ENCODING 7734
SWIDTH 562 0
DWIDTH 9 0
BBX 7 9 1 -2
BITMAP
F0
60
60
60
60
62
FE
00
10
ENDCHAR
STARTCHAR 1E37
ENCODING 7735
SWIDTH 375 0
DWIDTH 6 0
BBX 4 9 1 -2
BITMAP
E0
60
60
60
60
60
F0
00
20
ENDCHAR
STARTCHAR 1E38
ENCODING 7736
SWIDTH 562 0
DWIDTH 9 0
BBX 7 11 1 -2
BITMAP
38
00
F0
60
60
60
60
62
FE
00
10
ENDCHAR
STARTCHAR 1E39
ENCODING 7737
SWIDTH 375 0
DWIDTH 6 0
BBX 4 11 1 -2
BITMAP
F0
00
E0
60
60
60
60
60
F0
00
20
ENDCHAR
STARTCHAR 1E3A
ENCODING 7738
SWIDTH 562 0
DWIDTH 9 0
BBX 7 9 1 -2
BITMAP
F0
60
60
60
60
62
FE
00
7C
ENDCHAR
STARTCHAR 1E3B
ENCODING 7739
SWIDTH 375 0
DWIDTH 6 0
BBX 4 9 1 -2
BITMAP
E0
60
60
60
60
60
F0
00
F0
ENDCHAR
STARTCHAR 1E3C
ENCODING 7740
SWIDTH 562 0
DWIDTH 9 0
BBX 7 9 1 -2
BITMAP
F0
60
60
60
60
62
FE
10
28
ENDCHAR
STARTCHAR 1E3D
ENCODING 7741
SWIDTH 375 0
DWIDTH 6 0
BBX 4 9 1 -2
BITMAP
E0
60
60
60
60
60
F0
60
B0
ENDCHAR
STARTCHAR 1E3E
ENCODING 7742
SWIDTH 562 0
DWIDTH 9 0
BBX 7 9 1 0
BITMAP
18
30
C6
EE
FE
D6
C6
C6
C6
ENDCHAR
STARTCHAR 1E3F
ENCODING 7743
SWIDTH 562 0
DWIDTH 9 0
BBX 7 8 1 0
BITMAP
18
30
00
EE
FE
D6
C6
C6
ENDCHAR
STARTCHAR 1E40
ENCODING 7744
SWIDTH 562 0
DWIDTH 9 0
BBX 7 8 1 0
BITMAP
10
C6
EE
FE
D6
C6
C6
C6
ENDCHAR
STARTCHAR 1E41
ENCODING 7745
SWIDTH 562 0
DWIDTH 9 0
BBX 7 7 1 0
BITMAP
10
00
EE
FE
D6
C6
C6
ENDCHAR
STARTCHAR 1E42
ENCODING 7746
SWIDTH 562 0
DWIDTH 9 0
BBX 7 9 1 -2
BITMAP
C6
EE
FE
D6
C6
C6
C6
00
10
ENDCHAR
STARTCHAR 1E43
ENCODING 7747
SWIDTH 562 0
DWIDTH 9 0
BBX 7 7 1 -2
BITMAP
EE
FE
D6
C6
C6
00
10
ENDCHAR
STARTCHAR 1E44
ENCODING 7748
SWIDTH 500 0
DWIDTH 8 0
BBX 6 9 1 0
BITMAP
10
00
CC
EC
FC
DC
CC
CC
CC
ENDCHAR
STARTCHAR 1E45
ENCODING 7749
SWIDTH 500 0
DWIDTH 8 0
BBX 6 7 1 0
BITMAP
20
00
F8
CC
CC
CC
CC
ENDCHAR
STARTCHAR 1E46
ENCODING 7750
SWIDTH 500 0
DWIDTH 8 0
BBX 6 9 1 -2
BITMAP
CC
EC
FC
DC
CC
CC
CC
00
10
ENDCHAR
STARTCHAR 1E47
ENCODING 7751
SWIDTH 500 0
DWIDTH 8 0
BBX 6 7 1 -2
BITMAP
F8
CC
CC
CC
CC
00
20
ENDCHAR
STARTCHAR 1E48
ENCODING 7752
SWIDTH 500 0
DWIDTH 8 0
BBX 6 9 1 -2
BITMAP
CC
EC
FC
DC
CC
CC
CC
00
78
ENDCHAR
STARTCHAR 1E49
ENCODING 7753
SWIDTH 500 0
DWIDTH 8 0
BBX 6 7 1 -2
BITMAP
F8
CC
CC
CC
CC
00
78
ENDCHAR
STARTCHAR 1E4A
ENCODING 7754
SWIDTH 500 0
DWIDTH 8 0
BBX 6 9 1 -2
BITMAP
CC
EC
FC
DC
CC
CC
CC
30
58
ENDCHAR
STARTCHAR 1E4B
ENCODING 7755
SWIDTH 500 0
DWIDTH 8 0
BBX 6 7 1 -2
BITMAP
F8
CC
CC
CC
CC
30
58
ENDCHAR
STARTCHAR 1E4C
ENCODING 7756
SWIDTH 562 0
DWIDTH 9 0
BBX 7 12 1 0
BITMAP
04
08
32
4C
00
7C
C6
C6
C6
C6
C6
7C
ENDCHAR
STARTCHAR 1E4D
ENCODING 7757
SWIDTH 500 0
DWIDTH 8 0
BBX 6 11 1 0
BITMAP
10
20
00
28
50
00
78
CC
CC
CC
78
ENDCHAR
STARTCHAR 1E4E
ENCODING 7758
SWIDTH 562 0
DWIDTH 9 0
BBX 7 12 1 0
BITMAP
24
00
32
4C
00
7C
C6
C6
C6
C6
C6
7C
ENDCHAR
STARTCHAR 1E4F
ENCODING 7759
SWIDTH 500 0
DWIDTH 8 0
BBX 6 10 1 0
BITMAP
48
00
28
50
00
78
CC
CC
CC
78
ENDCHAR
STARTCHAR 1E50
ENCODING 7760
SWIDTH 562 0
DWIDTH 9 0
BBX 7 11 1 0
BITMAP
20
10
7C
00
7C
C6
C6
C6
C6
C6
7C
ENDCHAR
STARTCHAR 1E51
ENCODING 7761
SWIDTH 500 0
DWIDTH 8 0
BBX 6 9 1 0
BITMAP
20
10
78
00
78
CC
CC
CC
78
ENDCHAR
STARTCHAR 1E52
ENCODING 7762
SWIDTH 562 0
DWIDTH 9 0
BBX 7 11 1 0
BITMAP
10
20
7C
00
7C
C6
C6
C6
C6
C6
7C
ENDCHAR
STARTCHAR 1E53
ENCODING 7763
SWIDTH 500 0
DWIDTH 8 0
BBX 6 9 1 0
BITMAP
10
20
78
00
78
CC
CC
CC
78
ENDCHAR
STARTCHAR 1E55
ENCODING 7765
SWIDTH 500 0
DWIDTH 8 0
BBX 6 9 1 -1
BITMAP
18
30
00
F8
CC
CC
F8
C0
C0
ENDCHAR
STARTCHAR 1E56
ENCODING 7766
SWIDTH 562 0
DWIDTH 9 0
BBX 7 9 1 0
BITMAP
10
00
FC
66
66
7C
60
60
F0
ENDCHAR
STARTCHAR 1E57
ENCODING 7767
SWIDTH 500 0
DWIDTH 8 0
BBX 6 9 1 -1
BITMAP
30
30
00
F8
CC
CC
F8
C0
C0
ENDCHAR
STARTCHAR 1E58
ENCODING 7768
SWIDTH 562 0
DWIDTH 9 0
BBX 7 9 1 0
BITMAP
10
00
FC
66
66
7C
66
66
E6
ENDCHAR
STARTCHAR 1E59
ENCODING 7769
SWIDTH 500 0
DWIDTH 8 0
BBX 6 8 1 0
BITMAP
30
30
00
DC
70
60
60
60
ENDCHAR
STARTCHAR 1E5A
ENCODING 7770
SWIDTH 562 0
DWIDTH 9 0
BBX 7 9 1 -2
BITMAP
FC
66
66
7C
66
66
E6
00
10
ENDCHAR
STARTCHAR 1E5B
ENCODING 7771
SWIDTH 500 0
DWIDTH 8 0
BBX 6 7 1 -2
BITMAP
DC
70
60
60
60
00
10
ENDCHAR
STARTCHAR 1E5D
ENCODING 7773
SWIDTH 500 0
DWIDTH 8 0
BBX 6 9 1 -2
BITMAP
78
00
DC
70
60
60
60
00
10
ENDCHAR
STARTCHAR 1E5E
ENCODING 7774
SWIDTH 562 0
DWIDTH 9 0
BBX 7 9 1 -2
BITMAP
FC
66
66
7C
66
66
E6
00
7C
ENDCHAR
STARTCHAR 1E5F
ENCODING 7775
SWIDTH 500 0
DWIDTH 8 0
BBX 6 7 1 -2
BITMAP
DC
70
60
60
60
00
78
ENDCHAR
STARTCHAR 1E60
ENCODING 7776
SWIDTH 500 0
DWIDTH 8 0
BBX 6 9 1 0
BITMAP
10
00
78
CC
C0
78
0C
CC
78
ENDCHAR
STARTCHAR 1E61
ENCODING 7777
SWIDTH 500 0
DWIDTH 8 0
BBX 6 7 1 0
BITMAP
10
00
7C
C0
78
0C
F8
ENDCHAR
STARTCHAR 1E62
ENCODING 7778
SWIDTH 500 0
DWIDTH 8 0
BBX 6 9 1 -2
BITMAP
78
CC
C0
78
0C
CC
78
00
10
ENDCHAR
STARTCHAR 1E63
ENCODING 7779
SWIDTH 500 0
DWIDTH 8 0
BBX 6 7 1 -2
BITMAP
7C
C0
78
0C
F8
00
10
ENDCHAR
STARTCHAR 1E64
ENCODING 7780
SWIDTH 500 0
DWIDTH 8 0
BBX 6 11 1 0
BITMAP
40
10
20
00
78
CC
C0
78
0C
CC
78
ENDCHAR
STARTCHAR 1E65
ENCODING 7781
SWIDTH 500 0
DWIDTH 8 0
BBX 6 9 1 0
BITMAP
40
10
20
00
7C
C0
78
0C
F8
ENDCHAR
STARTCHAR 1E66
ENCODING 7782
SWIDTH 500 0
DWIDTH 8 0
BBX 6 11 1 0
BITMAP
20
00
58
30
78
CC
C0
78
0C
CC
78
ENDCHAR
STARTCHAR 1E67
ENCODING 7783
SWIDTH 500 0
DWIDTH 8 0
BBX 6 10 1 0
BITMAP
20
00
58
30
00
7C
C0
78
0C
F8
ENDCHAR
STARTCHAR 1E68
ENCODING 7784
SWIDTH 500 0
DWIDTH 8 0
BBX 6 11 1 -2
BITMAP
20
00
78
CC
C0
78
0C
CC
78
00
20
ENDCHAR
STARTCHAR 1E69
ENCODING 7785
SWIDTH 500 0
DWIDTH 8 0
BBX 6 9 1 -2
BITMAP
10
00
7C
C0
78
0C
F8
00
10
ENDCHAR
STARTCHAR 1E6A
ENCODING 7786
SWIDTH 500 0
DWIDTH 8 0
BBX 6 9 1 0
BITMAP
20
00
FC
B4
30
30
30
30
78
ENDCHAR
STARTCHAR 1E6B
ENCODING 7787
SWIDTH 375 0
DWIDTH 6 0
BBX 4 9 1 0
BITMAP
20
00
60
60
F0
60
60
60
30
ENDCHAR
STARTCHAR 1E6C
ENCODING 7788
SWIDTH 500 0
DWIDTH 8 0
BBX 6 9 1 -2
BITMAP
FC
B4
30
30
30
30
78
00
10
ENDCHAR
STARTCHAR 1E6D
ENCODING 7789
SWIDTH 375 0
DWIDTH 6 0
BBX 4 9 1 -2
BITMAP
60
60
F0
60
60
60
30
00
20
ENDCHAR
STARTCHAR 1E6E
ENCODING 7790
SWIDTH 500 0
DWIDTH 8 0
BBX 6 9 1 -2
BITMAP
FC
B4
30
30
30
30
78
00
78
ENDCHAR
STARTCHAR 1E6F
ENCODING 7791
SWIDTH 375 0
DWIDTH 6 0
BBX 4 9 1 -2
BITMAP
60
60
F0
60
60
60
30
00
F0
ENDCHAR
STARTCHAR 1E71
ENCODING 7793
SWIDTH 375 0
DWIDTH 6 0
BBX 4 9 1 -2
BITMAP
60
60
F0
60
60
60
30
60
B0
ENDCHAR
STARTCHAR 1E72
ENCODING 7794
SWIDTH 500 0
DWIDTH 8 0
BBX 6 9 1 -2
BITMAP
CC
CC
CC
CC
CC
CC
78
00
48
ENDCHAR
STARTCHAR 1E73
ENCODING 7795
SWIDTH 500 0
DWIDTH 8 0
BBX 6 7 1 -2
BITMAP
CC
CC
CC
CC
7C
00
48
ENDCHAR
STARTCHAR 1E74
ENCODING 7796
SWIDTH 500 0
DWIDTH 8 0
BBX 6 9 1 -2
BITMAP
CC
CC
CC
CC
CC
CC
78
28
50
ENDCHAR
STARTCHAR 1E75
ENCODING 7797
SWIDTH 500 0
DWIDTH 8 0
BBX 6 7 1 -2
BITMAP
CC
CC
CC
CC
7C
28
50
ENDCHAR
STARTCHAR 1E76
ENCODING 7798
SWIDTH 500 0
DWIDTH 8 0
BBX 6 9 1 -2
BITMAP
CC
CC
CC
CC
CC
CC
78
30
58
ENDCHAR
STARTCHAR 1E77
ENCODING 7799
SWIDTH 500 0
DWIDTH 8 0
BBX 6 7 1 -2
BITMAP
CC
CC
CC
CC
7C
30
58
ENDCHAR
STARTCHAR 1E78
ENCODING 7800
SWIDTH 500 0
DWIDTH 8 0
BBX 6 12 1 0
BITMAP
10
20
28
50
00
CC
CC
CC
CC
CC
CC
78
ENDCHAR
STARTCHAR 1E79
ENCODING 7801
SWIDTH 500 0
DWIDTH 8 0
BBX 6 11 1 0
BITMAP
10
20
00
28
50
00
CC
CC
CC
CC
7C
ENDCHAR
STARTCHAR 1E7A
ENCODING 7802
SWIDTH 500 0
DWIDTH 8 0
BBX 6 11 1 0
BITMAP
48
00
78
00
CC
CC
CC
CC
CC
CC
78
ENDCHAR
STARTCHAR 1E7B
ENCODING 7803
SWIDTH 500 0
DWIDTH 8 0
BBX 6 9 1 0
BITMAP
48
00
78
00
CC
CC
CC
CC
7C
ENDCHAR
STARTCHAR 1E7C
ENCODING 7804
SWIDTH 562 0
DWIDTH 9 0
BBX 7 10 1 0
BITMAP
32
4C
00
C6
C6
C6
C6
C6
6C
38
ENDCHAR
STARTCHAR 1E7D
ENCODING 7805
SWIDTH 500 0
DWIDTH 8 0
BBX 6 8 1 0
BITMAP
28
50
00
CC
CC
CC
78
30
ENDCHAR
STARTCHAR 1E7E
ENCODING 7806
SWIDTH 562 0
DWIDTH 9 0
BBX 7 9 1 -2
BITMAP
C6
C6
C6
C6
C6
6C
38
00
10
ENDCHAR
STARTCHAR 1E7F
ENCODING 7807
SWIDTH 500 0
DWIDTH 8 0
BBX 6 7 1 -2
BITMAP
CC
CC
CC
78
30
00
30
ENDCHAR
STARTCHAR 1E80
ENCODING 7808
SWIDTH 562 0
DWIDTH 9 0
BBX 7 10 1 0
BITMAP
30
18
00
C6
C6
C6
C6
D6
EE
C6
ENDCHAR
STARTCHAR 1E81
ENCODING 7809
SWIDTH 562 0
DWIDTH 9 0
BBX 7 8 1 0
BITMAP
30
18
00
C6
C6
D6
FE
C6
ENDCHAR
STARTCHAR 1E82
ENCODING 7810
SWIDTH 562 0
DWIDTH 9 0
BBX 7 10 1 0
BITMAP
18
30
00
C6
C6
C6
C6
D6
EE
C6
ENDCHAR
STARTCHAR 1E83
ENCODING 7811
SWIDTH 562 0
DWIDTH 9 0
BBX 7 8 1 0
BITMAP
18
30
00
C6
C6
D6
FE
C6
ENDCHAR
STARTCHAR 1E84
ENCODING 7812
SWIDTH 562 0
DWIDTH 9 0
BBX 7 10 1 0
BITMAP
6C
6C
00
C6
C6
C6
C6
D6
EE
C6
ENDCHAR
STARTCHAR 1E85
ENCODING 7813
SWIDTH 562 0
DWIDTH 9 0
BBX 7 8 1 0
BITMAP
6C
6C
00
C6
C6
D6
FE
C6
ENDCHAR
STARTCHAR 1E86
ENCODING 7814
SWIDTH 562 0
DWIDTH 9 0
BBX 7 9 1 0
BITMAP
10
00
C6
C6
C6
C6
D6
EE
C6
ENDCHAR
STARTCHAR 1E87
ENCODING 7815
SWIDTH 562 0
DWIDTH 9 0
BBX 7 7 1 0
BITMAP
10
00
C6
C6
D6
FE
C6
ENDCHAR
STARTCHAR 1E88
ENCODING 7816
SWIDTH 562 0
DWIDTH 9 0
BBX 7 9 1 -2
BITMAP
C6
C6
C6
C6
D6
EE
C6
00
10
ENDCHAR
STARTCHAR 1E8A
ENCODING 7818
SWIDTH 562 0
DWIDTH 9 0
BBX 7 9 1 0
BITMAP
10
00
C6
6C
38
38
38
6C
C6
ENDCHAR
STARTCHAR 1E8B
ENCODING 7819
SWIDTH 500 0
DWIDTH 8 0
BBX 6 7 1 0
BITMAP
10
00
CC
78
30
78
CC
ENDCHAR
STARTCHAR 1E8C
ENCODING 7820
SWIDTH 562 0
DWIDTH 9 0
BBX 7 9 1 0
BITMAP
28
00
C6
6C
38
38
38
6C
C6
ENDCHAR
STARTCHAR 1E8D
ENCODING 7821
SWIDTH 500 0
DWIDTH 8 0
BBX 6 7 1 0
BITMAP
48
00
CC
78
30
78
CC
ENDCHAR
STARTCHAR 1E8E
ENCODING 7822
SWIDTH 500 0
DWIDTH 8 0
BBX 6 9 1 0
BITMAP
10
00
CC
CC
CC
78
30
30
78
ENDCHAR
STARTCHAR 1E8F
ENCODING 7823
SWIDTH 500 0
DWIDTH 8 0
BBX 6 8 1 -1
BITMAP
20
00
CC
CC
CC
7C
0C
F8
ENDCHAR
STARTCHAR 1E90
ENCODING 7824
SWIDTH 500 0
DWIDTH 8 0
BBX 6 10 1 0
BITMAP
30
58
00
FC
CC
18
30
60
CC
FC
ENDCHAR
STARTCHAR 1E91
ENCODING 7825
SWIDTH 500 0
DWIDTH 8 0
BBX 6 8 1 0
BITMAP
30
58
00
FC
18
30
60
FC
ENDCHAR
STARTCHAR 1E92
ENCODING 7826
SWIDTH 500 0
DWIDTH 8 0
BBX 6 9 1 -2
BITMAP
FC
CC
18
30
60
CC
FC
00
20
ENDCHAR
STARTCHAR 1E93
ENCODING 7827
SWIDTH 500 0
DWIDTH 8 0
BBX 6 7 1 -2
BITMAP
FC
18
30
60
FC
00
30
ENDCHAR
STARTCHAR 1E94
ENCODING 7828
SWIDTH 500 0
DWIDTH 8 0
BBX 6 9 1 -2
BITMAP
FC
CC
18
30
60
CC
FC
00
78
ENDCHAR
STARTCHAR 1E95
ENCODING 7829
SWIDTH 500 0
DWIDTH 8 0
BBX 6 7 1 -2
BITMAP
FC
18
30
60
FC
00
78
ENDCHAR
STARTCHAR 1E96
ENCODING 7830
SWIDTH 500 0
DWIDTH 8 0
BBX 6 9 1 -2
BITMAP
C0
C0
F8
CC
CC
CC
CC
00
78
ENDCHAR
STARTCHAR 1E97
ENCODING 7831
SWIDTH 375 0
DWIDTH 6 0
BBX 4 9 1 0
BITMAP
90
00
60
60
F0
60
60
60
30
ENDCHAR
STARTCHAR 1E98
ENCODING 7832
SWIDTH 562 0
DWIDTH 9 0
BBX 7 9 1 0
BITMAP
38
28
38
00
C6
C6
D6
FE
C6
ENDCHAR
STARTCHAR 1E99
ENCODING 7833
SWIDTH 500 0
DWIDTH 8 0
BBX 6 9 1 -1
BITMAP
38
28
38
CC
CC
CC
7C
0C
F8
ENDCHAR
STARTCHAR 1E9A
ENCODING 7834
SWIDTH 562 0
DWIDTH 9 0
BBX 7 9 1 0
BITMAP
20
10
20
00
78
0C
7C
CC
76
ENDCHAR
STARTCHAR 1E9B
ENCODING 7835
SWIDTH 437 0
DWIDTH 7 0
BBX 4 9 2 0
BITMAP
20
00
70
C0
C0
C0
C0
C0
C0
ENDCHAR
STARTCHAR 1E9E
ENCODING 7838
SWIDTH 562 0
DWIDTH 9 0
BBX 7 7 1 0
BITMAP
7C
C6
C6
CC
C6
C6
DC
ENDCHAR
STARTCHAR 1E9F
ENCODING 7839
SWIDTH 500 0
DWIDTH 8 0
BBX 6 7 1 0
BITMAP
FC
60
30
78
CC
CC
78
ENDCHAR
STARTCHAR 1EA0
ENCODING 7840
SWIDTH 500 0
DWIDTH 8 0
BBX 6 9 1 -2
BITMAP
78
CC
CC
CC
FC
CC
CC
00
30
ENDCHAR
STARTCHAR 1EA1
ENCODING 7841
SWIDTH 562 0
DWIDTH 9 0
BBX 7 7 1 -2
BITMAP
78
0C
7C
CC
76
00
30
ENDCHAR
STARTCHAR 1EA2
ENCODING 7842
SWIDTH 500 0
DWIDTH 8 0
BBX 6 11 1 0
BITMAP
70
18
30
00
78
CC
CC
CC
FC
CC
CC
ENDCHAR
STARTCHAR 1EA3
ENCODING 7843
SWIDTH 562 0
DWIDTH 9 0
BBX 7 9 1 0
BITMAP
70
18
30
00
78
0C
7C
CC
76
ENDCHAR
STARTCHAR 1EA4
ENCODING 7844
SWIDTH 500 0
DWIDTH 8 0
BBX 6 12 1 0
BITMAP
18
30
30
48
00
78
CC
CC
CC
FC
CC
CC
ENDCHAR
STARTCHAR 1EA5
ENCODING 7845
SWIDTH 562 0
DWIDTH 9 0
BBX 7 11 1 0
BITMAP
0C
18
00
38
6C
00
78
0C
7C
CC
76
ENDCHAR
STARTCHAR 1EA6
ENCODING 7846
SWIDTH 500 0
DWIDTH 8 0
BBX 6 12 1 0
BITMAP
60
30
30
48
00
78
CC
CC
CC
FC
CC
CC
ENDCHAR
STARTCHAR 1EA7
ENCODING 7847
SWIDTH 562 0
DWIDTH 9 0
BBX 7 11 1 0
BITMAP
30
18
00
38
6C
00
78
0C
7C
CC
76
ENDCHAR
STARTCHAR 1EA8
ENCODING 7848
SWIDTH 500 0
DWIDTH 8 0
BBX 6 12 1 0
BITMAP
38
08
30
48
00
78
CC
CC
CC
FC
CC
CC
ENDCHAR
STARTCHAR 1EA9
ENCODING 7849
SWIDTH 562 0
DWIDTH 9 0
BBX 7 12 1 0
BITMAP
70
08
10
00
38
6C
00
78
0C
7C
CC
76
ENDCHAR
STARTCHAR 1EAA
ENCODING 7850
SWIDTH 500 0
DWIDTH 8 0
BBX 6 12 1 0
BITMAP
28
50
30
48
00
78
CC
CC
CC
FC
CC
CC
ENDCHAR
STARTCHAR 1EAB
ENCODING 7851
SWIDTH 562 0
DWIDTH 9 0
BBX 7 11 1 0
BITMAP
74
5C
00
38
6C
00
78
0C
7C
CC
76
ENDCHAR
STARTCHAR 1EAC
ENCODING 7852
SWIDTH 500 0
DWIDTH 8 0
BBX 6 12 1 -2
BITMAP
30
48
00
78
CC
CC
CC
FC
CC
CC
00
30
ENDCHAR
STARTCHAR 1EAD
ENCODING 7853
SWIDTH 562 0
DWIDTH 9 0
BBX 7 10 1 -2
BITMAP
38
6C
00
78
0C
7C
CC
76
00
30
ENDCHAR
STARTCHAR 1EAE
ENCODING 7854
SWIDTH 500 0
DWIDTH 8 0
BBX 6 12 1 0
BITMAP
18
30
48
30
00
78
CC
CC
CC
FC
CC
CC
ENDCHAR
STARTCHAR 1EAF
ENCODING 7855
SWIDTH 562 0
DWIDTH 9 0
BBX 7 10 1 0
BITMAP
0C
18
44
38
00
78
0C
7C
CC
76
ENDCHAR
STARTCHAR 1EB0
ENCODING 7856
SWIDTH 500 0
DWIDTH 8 0
BBX 6 12 1 0
BITMAP
60
30
48
30
00
78
CC
CC
CC
FC
CC
CC
ENDCHAR
STARTCHAR 1EB1
ENCODING 7857
SWIDTH 562 0
DWIDTH 9 0
BBX 7 10 1 0
BITMAP
30
18
44
38
00
78
0C
7C
CC
76
ENDCHAR
STARTCHAR 1EB2
ENCODING 7858
SWIDTH 500 0
DWIDTH 8 0
BBX 6 12 1 0
BITMAP
30
08
48
30
00
78
CC
CC
CC
FC
CC
CC
ENDCHAR
STARTCHAR 1EB3
ENCODING 7859
SWIDTH 562 0
DWIDTH 9 0
BBX 7 11 1 0
BITMAP
70
08
10
44
38
00
78
0C
7C
CC
76
ENDCHAR
STARTCHAR 1EB4
ENCODING 7860
SWIDTH 500 0
DWIDTH 8 0
BBX 6 12 1 0
BITMAP
74
5C
48
30
00
78
CC
CC
CC
FC
CC
CC
ENDCHAR
STARTCHAR 1EB5
ENCODING 7861
SWIDTH 562 0
DWIDTH 9 0
BBX 7 11 1 0
BITMAP
74
5C
00
44
38
00
78
0C
7C
CC
76
ENDCHAR
STARTCHAR 1EB6
ENCODING 7862
SWIDTH 500 0
DWIDTH 8 0
BBX 6 12 1 -2
BITMAP
48
30
00
78
CC
CC
CC
FC
CC
CC
00
30
ENDCHAR
STARTCHAR 1EB7
ENCODING 7863
SWIDTH 562 0
DWIDTH 9 0
BBX 7 10 1 -2
BITMAP
44
38
00
78
0C
7C
CC
76
00
10
ENDCHAR
STARTCHAR 1EB8
ENCODING 7864
SWIDTH 562 0
DWIDTH 9 0
BBX 7 9 1 -2
BITMAP
FE
62
68
78
68
62
FE
00
10
ENDCHAR
STARTCHAR 1EB9
ENCODING 7865
SWIDTH 500 0
DWIDTH 8 0
BBX 6 7 1 -2
BITMAP
78
CC
FC
C0
78
00
30
ENDCHAR
STARTCHAR 1EBA
ENCODING 7866
SWIDTH 562 0
DWIDTH 9 0
BBX 7 11 1 0
BITMAP
F0
18
30
00
FE
62
68
78
68
62
FE
ENDCHAR
STARTCHAR 1EBB
ENCODING 7867
SWIDTH 500 0
DWIDTH 8 0
BBX 6 9 1 0
BITMAP
70
18
30
00
78
CC
FC
C0
78
ENDCHAR
STARTCHAR 1EBC
ENCODING 7868
SWIDTH 562 0
DWIDTH 9 0
BBX 7 10 1 0
BITMAP
74
5C
00
FE
62
68
78
68
62
FE
ENDCHAR
STARTCHAR 1EBD
ENCODING 7869
SWIDTH 500 0
DWIDTH 8 0
BBX 6 8 1 0
BITMAP
74
5C
00
78
CC
FC
C0
78
ENDCHAR
STARTCHAR 1EBE
ENCODING 7870
SWIDTH 562 0
DWIDTH 9 0
BBX 7 12 1 0
BITMAP
18
30
38
6C
00
FE
62
68
78
68
62
FE
ENDCHAR
STARTCHAR 1EBF
ENCODING 7871
SWIDTH 500 0
DWIDTH 8 0
BBX 6 11 1 0
BITMAP
18
30
00
38
6C
00
78
CC
FC
C0
78
ENDCHAR
STARTCHAR 1EC0
ENCODING 7872
SWIDTH 562 0
DWIDTH 9 0
BBX 7 12 1 0
BITMAP
30
18
38
6C
00
FE
62
68
78
68
62
FE
ENDCHAR
STARTCHAR 1EC1
ENCODING 7873
SWIDTH 500 0
DWIDTH 8 0
BBX 6 11 1 0
BITMAP
30
18
00
38
6C
00
78
CC
FC
C0
78
ENDCHAR
STARTCHAR 1EC2
ENCODING 7874
SWIDTH 562 0
DWIDTH 9 0
BBX 7 12 1 0
BITMAP
18
04
38
6C
00
FE
62
68
78
68
62
FE
ENDCHAR
STARTCHAR 1EC3
ENCODING 7875
SWIDTH 500 0
DWIDTH 8 0
BBX 6 12 1 0
BITMAP
30
08
10
00
38
6C
00
78
CC
FC
C0
78
ENDCHAR
STARTCHAR 1EC4
ENCODING 7876
SWIDTH 562 0
DWIDTH 9 0
BBX 7 12 1 0
BITMAP
74
5C
38
6C
00
FE
62
68
78
68
62
FE
ENDCHAR
STARTCHAR 1EC5
ENCODING 7877
SWIDTH 500 0
DWIDTH 8 0
BBX 6 11 1 0
BITMAP
74
5C
00
38
6C
00
78
CC
FC
C0
78
ENDCHAR
STARTCHAR 1EC6
ENCODING 7878
SWIDTH 562 0
DWIDTH 9 0
BBX 7 12 1 -2
BITMAP
38
6C
00
FE
62
68
78
68
62
FE
00
30
ENDCHAR
STARTCHAR 1EC7
ENCODING 7879
SWIDTH 500 0
DWIDTH 8 0
BBX 6 10 1 -2
BITMAP
38
6C
00
78
CC
FC
C0
78
00
30
ENDCHAR
STARTCHAR 1EC8
ENCODING 7880
SWIDTH 375 0
DWIDTH 6 0
BBX 4 11 1 0
BITMAP
E0
30
60
00
F0
60
60
60
60
60
F0
ENDCHAR
STARTCHAR 1EC9
ENCODING 7881
SWIDTH 375 0
DWIDTH 6 0
BBX 4 9 1 0
BITMAP
E0
30
60
00
E0
60
60
60
F0
ENDCHAR
STARTCHAR 1ECA
ENCODING 7882
SWIDTH 375 0
DWIDTH 6 0
BBX 4 9 1 -2
BITMAP
F0
60
60
60
60
60
F0
00
60
ENDCHAR
STARTCHAR 1ECB
ENCODING 7883
SWIDTH 375 0
DWIDTH 6 0
BBX 4 9 1 -2
BITMAP
60
00
E0
60
60
60
F0
00
60
ENDCHAR
STARTCHAR 1ECC
ENCODING 7884
SWIDTH 562 0
DWIDTH 9 0
BBX 7 9 1 -2
BITMAP
7C
C6
C6
C6
C6
C6
7C
00
10
ENDCHAR
STARTCHAR 1ECD
ENCODING 7885
SWIDTH 500 0
DWIDTH 8 0
BBX 6 7 1 -2
BITMAP
78
CC
CC
CC
78
00
30
ENDCHAR
STARTCHAR 1ECE
ENCODING 7886
SWIDTH 562 0
DWIDTH 9 0
BBX 7 11 1 0
BITMAP
38
0C
18
00
7C
C6
C6
C6
C6
C6
7C
ENDCHAR
STARTCHAR 1ECF
ENCODING 7887
SWIDTH 500 0
DWIDTH 8 0
BBX 6 9 1 0
BITMAP
70
18
30
00
78
CC
CC
CC
78
ENDCHAR
STARTCHAR 1ED0
ENCODING 7888
SWIDTH 687 0
DWIDTH 11 0
BBX 9 11 1 0
BITMAP
0180
3B00
6C00
0000
7C00
C600
C600
C600
C600
C600
7C00
ENDCHAR
STARTCHAR 1ED1
ENCODING 7889
SWIDTH 500 0
DWIDTH 8 0
BBX 6 11 1 0
BITMAP
18
30
00
30
48
00
78
CC
CC
CC
78
ENDCHAR
STARTCHAR 1ED2
ENCODING 7890
SWIDTH 562 0
DWIDTH 9 0
BBX 8 11 0 0
BITMAP
C0
7C
36
00
3E
63
63
63
63
63
3E
ENDCHAR
STARTCHAR 1ED3
ENCODING 7891
SWIDTH 500 0
DWIDTH 8 0
BBX 6 11 1 0
BITMAP
30
18
00
30
48
00
78
CC
CC
CC
78
ENDCHAR
STARTCHAR 1ED4
ENCODING 7892
SWIDTH 562 0
DWIDTH 9 0
BBX 7 12 1 0
BITMAP
30
18
38
6C
00
7C
C6
C6
C6
C6
C6
7C
ENDCHAR
STARTCHAR 1ED5
ENCODING 7893
SWIDTH 500 0
DWIDTH 8 0
BBX 6 12 1 0
BITMAP
30
08
10
00
30
48
00
78
CC
CC
CC
78
ENDCHAR
STARTCHAR 1ED6
ENCODING 7894
SWIDTH 562 0
DWIDTH 9 0
BBX 7 12 1 0
BITMAP
74
5C
38
6C
00
7C
C6
C6
C6
C6
C6
7C
ENDCHAR
STARTCHAR 1ED7
ENCODING 7895
SWIDTH 500 0
DWIDTH 8 0
BBX 6 11 1 0
BITMAP
28
50
00
30
48
00
78
CC
CC
CC
78
ENDCHAR
STARTCHAR 1ED8
ENCODING 7896
SWIDTH 562 0
DWIDTH 9 0
BBX 7 12 1 -2
BITMAP
38
6C
00
7C
C6
C6
C6
C6
C6
7C
00
10
ENDCHAR
STARTCHAR 1ED9
ENCODING 7897
SWIDTH 500 0
DWIDTH 8 0
BBX 6 10 1 -2
BITMAP
30
48
00
78
CC
CC
CC
78
00
30
ENDCHAR
STARTCHAR 1EDA
ENCODING 7898
SWIDTH 687 0
DWIDTH 11 0
BBX 9 10 1 0
BITMAP
1800
3000
0000
7D80
C680
C700
C600
C600
C600
7C00
ENDCHAR
STARTCHAR 1EDB
ENCODING 7899
SWIDTH 625 0
DWIDTH 10 0
BBX 8 8 1 0
BITMAP
18
30
00
7B
CD
CE
CC
78
ENDCHAR
STARTCHAR 1EDC
ENCODING 7900
SWIDTH 687 0
DWIDTH 11 0
BBX 9 10 1 0
BITMAP
3000
1800
0000
7D80
C680
C700
C600
C600
C600
7C00
ENDCHAR
STARTCHAR 1EDD
ENCODING 7901
SWIDTH 625 0
DWIDTH 10 0
BBX 8 8 1 0
BITMAP
60
30
00
7B
CD
CE
CC
78
ENDCHAR
STARTCHAR 1EDE
ENCODING 7902
SWIDTH 687 0
DWIDTH 11 0
BBX 9 11 1 0
BITMAP
3800
0C00
1800
0000
7D80
C680
C700
C600
C600
C600
7C00
ENDCHAR
STARTCHAR 1EDF
ENCODING 7903
SWIDTH 625 0
DWIDTH 10 0
BBX 8 9 1 0
BITMAP
30
08
10
00
7B
CD
CE
CC
78
ENDCHAR
STARTCHAR 1EE0
ENCODING 7904
SWIDTH 687 0
DWIDTH 11 0
BBX 9 10 1 0
BITMAP
7400
5C00
0000
7D80
C680
C700
C600
C600
C600
7C00
ENDCHAR
STARTCHAR 1EE1
ENCODING 7905
SWIDTH 625 0
DWIDTH 10 0
BBX 8 8 1 0
BITMAP
74
5C
00
7B
CD
CE
CC
78
ENDCHAR
STARTCHAR 1EE2
ENCODING 7906
SWIDTH 687 0
DWIDTH 11 0
BBX 9 9 1 -2
BITMAP
7D80
C680
C700
C600
C600
C600
7C00
0000
1000
ENDCHAR
STARTCHAR 1EE3
ENCODING 7907
SWIDTH 625 0
DWIDTH 10 0
BBX 8 7 1 -2
BITMAP
7B
CD
CE
CC
78
00
10
ENDCHAR
STARTCHAR 1EE4
ENCODING 7908
SWIDTH 500 0
DWIDTH 8 0
BBX 6 9 1 -2
BITMAP
CC
CC
CC
CC
CC
CC
78
00
30
ENDCHAR
STARTCHAR 1EE5
ENCODING 7909
SWIDTH 500 0
DWIDTH 8 0
BBX 6 7 1 -2
BITMAP
CC
CC
CC
CC
7C
00
30
ENDCHAR
STARTCHAR 1EE6
ENCODING 7910
SWIDTH 500 0
DWIDTH 8 0
BBX 6 11 1 0
BITMAP
70
18
30
00
CC
CC
CC
CC
CC
CC
78
ENDCHAR
STARTCHAR 1EE7
ENCODING 7911
SWIDTH 500 0
DWIDTH 8 0
BBX 6 9 1 0
BITMAP
70
18
30
00
CC
CC
CC
CC
7C
ENDCHAR
STARTCHAR 1EE8
ENCODING 7912
SWIDTH 625 0
DWIDTH 10 0
BBX 8 10 1 0
BITMAP
18
30
00
CD
CD
CE
CC
CC
CC
78
ENDCHAR
STARTCHAR 1EE9
ENCODING 7913
SWIDTH 625 0
DWIDTH 10 0
BBX 8 8 1 0
BITMAP
18
30
00
CD
CD
CE
CC
7C
ENDCHAR
STARTCHAR 1EEA
ENCODING 7914
SWIDTH 625 0
DWIDTH 10 0
BBX 8 10 1 0
BITMAP
60
30
00
CD
CD
CE
CC
CC
CC
78
ENDCHAR
STARTCHAR 1EEB
ENCODING 7915
SWIDTH 625 0
DWIDTH 10 0
BBX 8 8 1 0
BITMAP
30
18
00
CD
CD
CE
CC
7C
ENDCHAR
STARTCHAR 1EEC
ENCODING 7916
SWIDTH 625 0
DWIDTH 10 0
BBX 8 11 1 0
BITMAP
70
18
30
00
CD
CD
CE
CC
CC
CC
78
ENDCHAR
STARTCHAR 1EED
ENCODING 7917
SWIDTH 625 0
DWIDTH 10 0
BBX 8 9 1 0
BITMAP
70
18
30
00
CD
CD
CE
CC
7C
ENDCHAR
STARTCHAR 1EEE
ENCODING 7918
SWIDTH 625 0
DWIDTH 10 0
BBX 8 10 1 0
BITMAP
74
5C
00
CF
CD
CE
CC
CC
CC
78
ENDCHAR
STARTCHAR 1EEF
ENCODING 7919
SWIDTH 625 0
DWIDTH 10 0
BBX 8 8 1 0
BITMAP
74
5C
00
CD
CD
CE
CC
7C
ENDCHAR
STARTCHAR 1EF0
ENCODING 7920
SWIDTH 625 0
DWIDTH 10 0
BBX 8 9 1 -2
BITMAP
CF
CD
CE
CC
CC
CC
78
00
30
ENDCHAR
STARTCHAR 1EF1
ENCODING 7921
SWIDTH 625 0
DWIDTH 10 0
BBX 8 7 1 -2
BITMAP
CD
CD
CE
CC
7C
00
30
ENDCHAR
STARTCHAR 1EF2
ENCODING 7922
SWIDTH 500 0
DWIDTH 8 0
BBX 6 10 1 0
BITMAP
60
30
00
CC
CC
CC
78
30
30
78
ENDCHAR
STARTCHAR 1EF3
ENCODING 7923
SWIDTH 500 0
DWIDTH 8 0
BBX 6 9 1 -1
BITMAP
60
30
00
CC
CC
CC
7C
0C
F8
ENDCHAR
STARTCHAR 1EF4
ENCODING 7924
SWIDTH 500 0
DWIDTH 8 0
BBX 6 9 1 -2
BITMAP
CC
CC
CC
78
30
30
78
00
30
ENDCHAR
STARTCHAR 1EF5
ENCODING 7925
SWIDTH 500 0
DWIDTH 8 0
BBX 6 8 1 -3
BITMAP
CC
CC
CC
7C
0C
F8
00
30
ENDCHAR
STARTCHAR 1EF6
ENCODING 7926
SWIDTH 500 0
DWIDTH 8 0
BBX 6 11 1 0
BITMAP
70
18
30
00
CC
CC
CC
78
30
30
78
ENDCHAR
STARTCHAR 1EF7
ENCODING 7927
SWIDTH 500 0
DWIDTH 8 0
BBX 6 10 1 -1
BITMAP
70
18
30
00
CC
CC
CC
7C
0C
F8
ENDCHAR
STARTCHAR 1EF8
ENCODING 7928
SWIDTH 500 0
DWIDTH 8 0
BBX 6 10 1 0
BITMAP
74
5C
00
CC
CC
CC
78
30
30
78
ENDCHAR
STARTCHAR 1EF9
ENCODING 7929
SWIDTH 500 0
DWIDTH 8 0
BBX 6 9 1 -1
BITMAP
74
5C
00
CC
CC
CC
7C
0C
F8
ENDCHAR
STARTCHAR 1FEF
ENCODING 8175
SWIDTH 375 0
DWIDTH 6 0
BBX 4 3 1 5
BITMAP
C0
60
30
ENDCHAR
STARTCHAR 2010
ENCODING 8208
SWIDTH 375 0
DWIDTH 6 0
BBX 4 1 1 4
BITMAP
F0
ENDCHAR
STARTCHAR 2012
ENCODING 8210
SWIDTH 500 0
DWIDTH 8 0
BBX 6 1 1 4
BITMAP
FC
ENDCHAR
STARTCHAR 2013
ENCODING 8211
SWIDTH 437 0
DWIDTH 7 0
BBX 5 1 1 3
BITMAP
F8
ENDCHAR
STARTCHAR 2014
ENCODING 8212
SWIDTH 625 0
DWIDTH 10 0
BBX 8 1 1 3
BITMAP
FF
ENDCHAR
STARTCHAR 2015
ENCODING 8213
SWIDTH 937 0
DWIDTH 15 0
BBX 13 1 1 3
BITMAP
FFF8
ENDCHAR
STARTCHAR 2016
ENCODING 8214
SWIDTH 375 0
DWIDTH 6 0
BBX 3 7 2 0
BITMAP
A0
A0
A0
A0
A0
A0
A0
ENDCHAR
STARTCHAR 2017
ENCODING 8215
SWIDTH 625 0
DWIDTH 10 0
BBX 8 3 1 -1
BITMAP
FF
00
FF
ENDCHAR
STARTCHAR 2018
ENCODING 8216
SWIDTH 312 0
DWIDTH 5 0
BBX 2 3 2 5
BITMAP
40
80
C0
ENDCHAR
STARTCHAR 2019
ENCODING 8217
SWIDTH 312 0
DWIDTH 5 0
BBX 2 3 2 5
BITMAP
C0
40
80
ENDCHAR
STARTCHAR 201A
ENCODING 8218
SWIDTH 312 0
DWIDTH 5 0
BBX 2 3 2 -1
BITMAP
C0
40
80
ENDCHAR
STARTCHAR 201B
ENCODING 8219
SWIDTH 312 0
DWIDTH 5 0
BBX 2 3 2 6
BITMAP
C0
80
40
ENDCHAR
STARTCHAR 201C
ENCODING 8220
SWIDTH 500 0
DWIDTH 8 0
BBX 5 3 2 5
BITMAP
48
90
D8
ENDCHAR
STARTCHAR 201D
ENCODING 8221
SWIDTH 500 0
DWIDTH 8 0
BBX 5 3 2 5
BITMAP
D8
48
90
ENDCHAR
STARTCHAR 201E
ENCODING 8222
SWIDTH 500 0
DWIDTH 8 0
BBX 5 3 2 -1
BITMAP
D8
48
90
ENDCHAR
STARTCHAR 201F
ENCODING 8223
SWIDTH 437 0
DWIDTH 7 0
BBX 5 3 1 5
BITMAP
D8
90
48
ENDCHAR
STARTCHAR 2020
ENCODING 8224
SWIDTH 437 0
DWIDTH 7 0
BBX 5 9 1 -1
BITMAP
20
20
F8
20
20
20
20
20
20
ENDCHAR
STARTCHAR 2021
ENCODING 8225
SWIDTH 437 0
DWIDTH 7 0
BBX 5 9 1 -1
BITMAP
20
20
F8
20
20
20
F8
20
20
ENDCHAR
STARTCHAR 2022
ENCODING 8226
SWIDTH 312 0
DWIDTH 5 0
BBX 2 2 2 3
BITMAP
C0
C0
ENDCHAR
STARTCHAR 2023
ENCODING 8227
SWIDTH 375 0
DWIDTH 6 0
BBX 3 5 2 1
BITMAP
80
C0
E0
C0
80
ENDCHAR
STARTCHAR 2024
ENCODING 8228
SWIDTH 312 0
DWIDTH 5 0
BBX 1 1 3 0
BITMAP
80
ENDCHAR
STARTCHAR 2025
ENCODING 8229
SWIDTH 437 0
DWIDTH 7 0
BBX 4 1 2 0
BITMAP
90
ENDCHAR
STARTCHAR 2026
ENCODING 8230
SWIDTH 562 0
DWIDTH 9 0
BBX 7 1 1 0
BITMAP
92
ENDCHAR
STARTCHAR 2027
ENCODING 8231
SWIDTH 375 0
DWIDTH 6 0
BBX 2 2 3 4
BITMAP
C0
C0
ENDCHAR
STARTCHAR 2030
ENCODING 8240
SWIDTH 875 0
DWIDTH 14 0
BBX 12 7 1 0
BITMAP
E300
A600
EC00
1800
3770
6550
C770
ENDCHAR
STARTCHAR 2031
ENCODING 8241
SWIDTH 812 0
DWIDTH 13 0
BBX 11 7 1 0
BITMAP
E200
A400
E800
1000
2FE0
4AA0
8FE0
ENDCHAR
STARTCHAR 2032
ENCODING 8242
SWIDTH 375 0
DWIDTH 6 0
BBX 3 3 2 5
BITMAP
60
C0
80
ENDCHAR
STARTCHAR 2033
ENCODING 8243
SWIDTH 562 0
DWIDTH 9 0
BBX 6 3 2 5
BITMAP
6C
D8
90
ENDCHAR
STARTCHAR 2034
ENCODING 8244
SWIDTH 750 0
DWIDTH 12 0
BBX 10 3 1 4
BITMAP
36C0
6D80
DB00
ENDCHAR
STARTCHAR 2035
ENCODING 8245
SWIDTH 437 0
DWIDTH 7 0
BBX 4 3 2 4
BITMAP
C0
60
30
ENDCHAR
STARTCHAR 2036
ENCODING 8246
SWIDTH 562 0
DWIDTH 9 0
BBX 7 3 1 4
BITMAP
D8
6C
36
ENDCHAR
STARTCHAR 2037
ENCODING 8247
SWIDTH 750 0
DWIDTH 12 0
BBX 10 3 1 4
BITMAP
DB00
6D80
36C0
ENDCHAR
STARTCHAR 2038
ENCODING 8248
SWIDTH 500 0
DWIDTH 8 0
BBX 5 3 2 -1
BITMAP
20
50
88
ENDCHAR
STARTCHAR 2039
ENCODING 8249
SWIDTH 375 0
DWIDTH 6 0
BBX 4 5 1 1
BITMAP
30
60
C0
60
30
ENDCHAR
STARTCHAR 203A
ENCODING 8250
SWIDTH 375 0
DWIDTH 6 0
BBX 4 5 1 1
BITMAP
C0
60
30
60
C0
ENDCHAR
STARTCHAR 203B
ENCODING 8251
SWIDTH 562 0
DWIDTH 9 0
BBX 7 7 1 0
BITMAP
92
44
28
92
28
44
92
ENDCHAR
STARTCHAR 203C
ENCODING 8252
SWIDTH 500 0
DWIDTH 8 0
BBX 5 7 2 0
BITMAP
D8
D8
D8
D8
D8
00
D8
ENDCHAR
STARTCHAR 203D
ENCODING 8253
SWIDTH 500 0
DWIDTH 8 0
BBX 6 7 1 0
BITMAP
7C
FC
38
30
30
00
30
ENDCHAR
STARTCHAR 203E
ENCODING 8254
SWIDTH 562 0
DWIDTH 9 0
BBX 7 1 1 6
BITMAP
FE
ENDCHAR
STARTCHAR 203F
ENCODING 8255
SWIDTH 500 0
DWIDTH 8 0
BBX 6 2 1 -1
BITMAP
84
78
ENDCHAR
STARTCHAR 2040
ENCODING 8256
SWIDTH 500 0
DWIDTH 8 0
BBX 6 2 1 6
BITMAP
78
84
ENDCHAR
STARTCHAR 2041
ENCODING 8257
SWIDTH 437 0
DWIDTH 7 0
BBX 5 6 1 0
BITMAP
10
20
40
A0
90
88
ENDCHAR
STARTCHAR 2042
ENCODING 8258
SWIDTH 812 0
DWIDTH 13 0
BBX 11 7 1 1
BITMAP
1500
0E00
1500
0000
AAA0
71C0
AAA0
ENDCHAR
STARTCHAR 2043
ENCODING 8259
SWIDTH 312 0
DWIDTH 5 0
BBX 3 1 1 4
BITMAP
E0
ENDCHAR
STARTCHAR 2044
ENCODING 8260
SWIDTH 625 0
DWIDTH 10 0
BBX 8 8 1 0
BITMAP
01
02
04
08
10
20
40
80
ENDCHAR
STARTCHAR 2045
ENCODING 8261
SWIDTH 312 0
DWIDTH 5 0
BBX 3 9 1 -1
BITMAP
E0
80
80
80
E0
80
80
80
E0
ENDCHAR
STARTCHAR 2046
ENCODING 8262
SWIDTH 312 0
DWIDTH 5 0
BBX 3 9 1 -1
BITMAP
E0
20
20
20
E0
20
20
20
E0
ENDCHAR
STARTCHAR 2048
ENCODING 8264
SWIDTH 500 0
DWIDTH 8 0
BBX 6 7 1 0
BITMAP
6C
BC
3C
6C
6C
00
6C
ENDCHAR
STARTCHAR 2049
ENCODING 8265
SWIDTH 500 0
DWIDTH 8 0
BBX 6 7 1 0
BITMAP
D8
EC
CC
D8
D8
00
D8
ENDCHAR
STARTCHAR 204A
ENCODING 8266
SWIDTH 500 0
DWIDTH 8 0
BBX 6 7 1 -1
BITMAP
E4
3C
0C
0C
18
18
10
ENDCHAR
STARTCHAR 204B
ENCODING 8267
SWIDTH 500 0
DWIDTH 8 0
BBX 6 7 1 0
BITMAP
F8
5C
5C
58
50
50
50
ENDCHAR
STARTCHAR 204C
ENCODING 8268
SWIDTH 437 0
DWIDTH 7 0
BBX 5 4 1 2
BITMAP
78
F8
F8
78
ENDCHAR
STARTCHAR 204D
ENCODING 8269
SWIDTH 437 0
DWIDTH 7 0
BBX 5 4 1 2
BITMAP
F0
F8
F8
F0
ENDCHAR
STARTCHAR 2070
ENCODING 8304
SWIDTH 375 0
DWIDTH 6 0
BBX 3 5 2 2
BITMAP
E0
A0
A0
A0
E0
ENDCHAR
STARTCHAR 2071
ENCODING 8305
SWIDTH 312 0
DWIDTH 5 0
BBX 1 5 3 5
BITMAP
80
00
80
80
80
ENDCHAR
STARTCHAR 2074
ENCODING 8308
SWIDTH 375 0
DWIDTH 6 0
BBX 3 5 2 2
BITMAP
A0
A0
E0
20
20
ENDCHAR
STARTCHAR 2075
ENCODING 8309
SWIDTH 375 0
DWIDTH 6 0
BBX 3 5 2 2
BITMAP
E0
80
E0
20
E0
ENDCHAR
STARTCHAR 2076
ENCODING 8310
SWIDTH 375 0
DWIDTH 6 0
BBX 3 5 2 2
BITMAP
E0
80
E0
A0
E0
ENDCHAR
STARTCHAR 2077
ENCODING 8311
SWIDTH 375 0
DWIDTH 6 0
BBX 3 5 2 2
BITMAP
E0
20
20
20
20
ENDCHAR
STARTCHAR 2078
ENCODING 8312
SWIDTH 375 0
DWIDTH 6 0
BBX 3 5 2 2
BITMAP
E0
A0
E0
A0
E0
ENDCHAR
STARTCHAR 2079
ENCODING 8313
SWIDTH 375 0
DWIDTH 6 0
BBX 3 5 2 2
BITMAP
E0
A0
E0
20
E0
ENDCHAR
STARTCHAR 207F
ENCODING 8319
SWIDTH 500 0
DWIDTH 8 0
BBX 5 3 2 4
BITMAP
F0
D8
D8
ENDCHAR
STARTCHAR 2080
ENCODING 8320
SWIDTH 375 0
DWIDTH 6 0
BBX 3 5 2 -1
BITMAP
E0
A0
A0
A0
E0
ENDCHAR
STARTCHAR 2081
ENCODING 8321
SWIDTH 375 0
DWIDTH 6 0
BBX 3 5 2 -1
BITMAP
C0
40
40
40
E0
ENDCHAR
STARTCHAR 2082
ENCODING 8322
SWIDTH 375 0
DWIDTH 6 0
BBX 3 5 2 -1
BITMAP
E0
20
E0
80
E0
ENDCHAR
STARTCHAR 2083
ENCODING 8323
SWIDTH 375 0
DWIDTH 6 0
BBX 3 5 2 -1
BITMAP
E0
20
E0
20
E0
ENDCHAR
STARTCHAR 2084
ENCODING 8324
SWIDTH 375 0
DWIDTH 6 0
BBX 3 5 2 -1
BITMAP
A0
A0
E0
20
20
ENDCHAR
STARTCHAR 2085
ENCODING 8325
SWIDTH 375 0
DWIDTH 6 0
BBX 3 5 2 -1
BITMAP
E0
80
E0
20
E0
ENDCHAR
STARTCHAR 2086
ENCODING 8326
SWIDTH 375 0
DWIDTH 6 0
BBX 3 5 2 -1
BITMAP
E0
80
E0
A0
E0
ENDCHAR
STARTCHAR 2087
ENCODING 8327
SWIDTH 375 0
DWIDTH 6 0
BBX 3 5 2 -1
BITMAP
E0
20
20
20
20
ENDCHAR
STARTCHAR 2088
ENCODING 8328
SWIDTH 375 0
DWIDTH 6 0
BBX 3 5 2 -1
BITMAP
E0
A0
E0
A0
E0
ENDCHAR
STARTCHAR 2089
ENCODING 8329
SWIDTH 375 0
DWIDTH 6 0
BBX 3 5 2 -1
BITMAP
E0
A0
E0
20
E0
ENDCHAR
STARTCHAR 20A0
ENCODING 8352
SWIDTH 500 0
DWIDTH 8 0
BBX 6 7 1 0
BITMAP
70
80
9C
70
1C
10
1C
ENDCHAR
STARTCHAR 20A1
ENCODING 8353
SWIDTH 500 0
DWIDTH 8 0
BBX 6 7 1 0
BITMAP
78
FC
A8
A8
A8
FC
78
ENDCHAR
STARTCHAR 20A2
ENCODING 8354
SWIDTH 500 0
DWIDTH 8 0
BBX 6 7 1 0
BITMAP
70
88
80
94
98
94
78
ENDCHAR
STARTCHAR 20A3
ENCODING 8355
SWIDTH 625 0
DWIDTH 10 0
BBX 8 7 1 0
BITMAP
F8
C0
CB
FF
CC
CC
CC
ENDCHAR
STARTCHAR 20A4
ENCODING 8356
SWIDTH 562 0
DWIDTH 9 0
BBX 7 7 1 0
BITMAP
18
24
70
60
70
66
BC
ENDCHAR
STARTCHAR 20A5
ENCODING 8357
SWIDTH 562 0
DWIDTH 9 0
BBX 7 7 1 -1
BITMAP
08
FC
D6
F6
D6
D6
40
ENDCHAR
STARTCHAR 20A6
ENCODING 8358
SWIDTH 500 0
DWIDTH 8 0
BBX 6 7 1 0
BITMAP
CC
EC
FC
DC
FC
CC
CC
ENDCHAR
STARTCHAR 20A7
ENCODING 8359
SWIDTH 625 0
DWIDTH 10 0
BBX 8 7 1 0
BITMAP
FC
FF
66
7C
60
60
F0
ENDCHAR
STARTCHAR 20A8
ENCODING 8360
SWIDTH 625 0
DWIDTH 10 0
BBX 8 7 1 0
BITMAP
F0
D8
DF
F4
DF
D9
DF
ENDCHAR
STARTCHAR 20A9
ENCODING 8361
SWIDTH 625 0
DWIDTH 10 0
BBX 9 7 0 0
BITMAP
4500
4D00
4D00
FF80
5F80
5300
7300
ENDCHAR
STARTCHAR 20AA
ENCODING 8362
SWIDTH 687 0
DWIDTH 11 0
BBX 9 6 1 0
BITMAP
FD80
C580
D580
D580
D180
DF80
ENDCHAR
STARTCHAR 20AB
ENCODING 8363
SWIDTH 562 0
DWIDTH 9 0
BBX 7 9 1 0
BITMAP
0C
0E
7C
CC
CC
CC
7C
00
FC
ENDCHAR
STARTCHAR 20AC
ENCODING 8364
SWIDTH 625 0
DWIDTH 10 0
BBX 8 7 1 0
BITMAP
3E
63
F8
60
F8
63
3E
ENDCHAR
STARTCHAR 20AD
ENCODING 8365
SWIDTH 562 0
DWIDTH 9 0
BBX 7 7 1 0
BITMAP
66
66
6C
F8
6C
66
66
ENDCHAR
STARTCHAR 20AE
ENCODING 8366
SWIDTH 625 0
DWIDTH 10 0
BBX 8 7 1 0
BITMAP
FF
99
3C
18
3C
18
3C
ENDCHAR
STARTCHAR 20AF
ENCODING 8367
SWIDTH 687 0
DWIDTH 11 0
BBX 10 11 0 -2
BITMAP
1800
1E00
0600
0A00
1B00
33C0
E740
FDC0
C3C0
0200
0200
ENDCHAR
STARTCHAR 2105
ENCODING 8453
SWIDTH 562 0
DWIDTH 9 0
BBX 7 7 1 0
BITMAP
E2
84
E8
10
2E
4A
8E
ENDCHAR
STARTCHAR 2113
ENCODING 8467
SWIDTH 500 0
DWIDTH 8 0
BBX 6 7 1 0
BITMAP
38
68
70
70
60
EC
38
ENDCHAR
STARTCHAR 2116
ENCODING 8470
SWIDTH 750 0
DWIDTH 12 0
BBX 10 7 1 0
BITMAP
CDC0
ED40
FDC0
DC00
CDC0
CC00
CC00
ENDCHAR
STARTCHAR 2122
ENCODING 8482
SWIDTH 687 0
DWIDTH 11 0
BBX 9 7 1 0
BITMAP
F800
2000
2000
2880
0F80
0A80
0880
ENDCHAR
STARTCHAR 212A
ENCODING 8490
SWIDTH 562 0
DWIDTH 9 0
BBX 7 7 1 0
BITMAP
C6
CC
D8
F0
D8
CC
C6
ENDCHAR
STARTCHAR 212D
ENCODING 8493
SWIDTH 625 0
DWIDTH 10 0
BBX 8 7 1 0
BITMAP
7F
D8
D8
CC
D8
C3
7E
ENDCHAR
STARTCHAR 212E
ENCODING 8494
SWIDTH 562 0
DWIDTH 9 0
BBX 7 7 1 0
BITMAP
7C
C6
C6
FE
C0
C6
7C
ENDCHAR
STARTCHAR 2135
ENCODING 8501
SWIDTH 562 0
DWIDTH 9 0
BBX 7 6 1 0
BITMAP
EE
F6
7C
7C
DE
EE
ENDCHAR
STARTCHAR 214F
ENCODING 8527
SWIDTH 875 0
DWIDTH 14 0
BBX 13 5 0 0
BITMAP
7770
5550
5550
7770
DDD8
ENDCHAR
STARTCHAR 2153
ENCODING 8531
SWIDTH 812 0
DWIDTH 13 0
BBX 11 9 1 0
BITMAP
2000
6000
A000
2000
FBE0
0040
00C0
0220
01C0
ENDCHAR
STARTCHAR 2154
ENCODING 8532
SWIDTH 812 0
DWIDTH 13 0
BBX 11 9 1 0
BITMAP
7000
8800
3000
4000
FBE0
0040
00C0
0220
01C0
ENDCHAR
STARTCHAR 215B
ENCODING 8539
SWIDTH 812 0
DWIDTH 13 0
BBX 11 9 1 0
BITMAP
2000
6000
A000
2000
F9C0
0220
01C0
0220
01C0
ENDCHAR
STARTCHAR 215C
ENCODING 8540
SWIDTH 812 0
DWIDTH 13 0
BBX 11 9 1 0
BITMAP
F800
1000
3000
8800
71C0
0220
01C0
0220
01C0
ENDCHAR
STARTCHAR 215D
ENCODING 8541
SWIDTH 812 0
DWIDTH 13 0
BBX 11 9 1 0
BITMAP
F800
8000
F000
0800
F1C0
0220
01C0
0220
01C0
ENDCHAR
STARTCHAR 215E
ENCODING 8542
SWIDTH 812 0
DWIDTH 13 0
BBX 11 9 1 0
BITMAP
F800
1000
2000
4000
81C0
0220
01C0
0220
01C0
ENDCHAR
STARTCHAR 2190
ENCODING 8592
SWIDTH 625 0
DWIDTH 10 0
BBX 8 5 1 2
BITMAP
20
60
FF
60
20
ENDCHAR
STARTCHAR 2191
ENCODING 8593
SWIDTH 500 0
DWIDTH 8 0
BBX 5 9 2 0
BITMAP
20
70
F8
20
20
20
20
20
20
ENDCHAR
STARTCHAR 2192
ENCODING 8594
SWIDTH 750 0
DWIDTH 12 0
BBX 10 5 1 2
BITMAP
0100
0180
FFC0
0180
0100
ENDCHAR
STARTCHAR 2193
ENCODING 8595
SWIDTH 500 0
DWIDTH 8 0
BBX 5 9 2 0
BITMAP
20
20
20
20
20
20
F8
70
20
ENDCHAR
STARTCHAR 2194
ENCODING 8596
SWIDTH 750 0
DWIDTH 12 0
BBX 10 5 1 2
BITMAP
2100
6180
FFC0
6180
2100
ENDCHAR
STARTCHAR 2195
ENCODING 8597
SWIDTH 500 0
DWIDTH 8 0
BBX 5 9 2 0
BITMAP
20
70
F8
20
20
20
F8
70
20
ENDCHAR
STARTCHAR 21A8
ENCODING 8616
SWIDTH 500 0
DWIDTH 8 0
BBX 5 10 2 -1
BITMAP
20
70
F8
20
20
20
F8
70
20
F8
ENDCHAR
STARTCHAR 2200
ENCODING 8704
SWIDTH 562 0
DWIDTH 9 0
BBX 7 7 1 0
BITMAP
82
82
7C
44
28
28
10
ENDCHAR
STARTCHAR 2201
ENCODING 8705
SWIDTH 437 0
DWIDTH 7 0
BBX 5 10 1 -1
BITMAP
70
88
80
80
80
80
80
80
88
70
ENDCHAR
STARTCHAR 2202
ENCODING 8706
SWIDTH 562 0
DWIDTH 9 0
BBX 7 8 1 0
BITMAP
7C
06
7E
C6
C6
C6
C6
7C
ENDCHAR
STARTCHAR 2203
ENCODING 8707
SWIDTH 437 0
DWIDTH 7 0
BBX 5 7 1 0
BITMAP
F8
08
08
F8
08
08
F8
ENDCHAR
STARTCHAR 2204
ENCODING 8708
SWIDTH 437 0
DWIDTH 7 0
BBX 5 9 1 -1
BITMAP
10
F8
28
48
F8
48
48
F8
80
ENDCHAR
STARTCHAR 2205
ENCODING 8709
SWIDTH 562 0
DWIDTH 9 0
BBX 8 8 0 0
BITMAP
01
3F
43
4D
59
71
FE
80
ENDCHAR
STARTCHAR 2206
ENCODING 8710
SWIDTH 500 0
DWIDTH 8 0
BBX 7 5 0 0
BITMAP
30
78
4C
C6
FE
ENDCHAR
STARTCHAR 2207
ENCODING 8711
SWIDTH 562 0
DWIDTH 9 0
BBX 7 6 1 0
BITMAP
FE
C4
64
38
18
10
ENDCHAR
STARTCHAR 2208
ENCODING 8712
SWIDTH 625 0
DWIDTH 10 0
BBX 8 8 1 0
BITMAP
3F
40
80
FF
80
80
40
3F
ENDCHAR
STARTCHAR 2209
ENCODING 8713
SWIDTH 625 0
DWIDTH 10 0
BBX 8 9 1 0
BITMAP
04
3F
48
88
FF
90
90
60
7F
ENDCHAR
STARTCHAR 220C
ENCODING 8716
SWIDTH 625 0
DWIDTH 10 0
BBX 8 10 1 -1
BITMAP
08
FC
12
21
3F
41
41
42
FC
80
ENDCHAR
STARTCHAR 220D
ENCODING 8717
SWIDTH 625 0
DWIDTH 10 0
BBX 8 8 1 0
BITMAP
FC
02
01
3F
01
01
02
FC
ENDCHAR
STARTCHAR 220E
ENCODING 8718
SWIDTH 562 0
DWIDTH 9 0
BBX 7 7 1 1
BITMAP
FE
FE
FE
FE
FE
FE
FE
ENDCHAR
STARTCHAR 220F
ENCODING 8719
SWIDTH 500 0
DWIDTH 8 0
BBX 6 7 1 0
BITMAP
FC
CC
CC
CC
CC
CC
CC
ENDCHAR
STARTCHAR 2210
ENCODING 8720
SWIDTH 500 0
DWIDTH 8 0
BBX 6 7 1 0
BITMAP
CC
CC
CC
CC
CC
CC
FC
ENDCHAR
STARTCHAR 2211
ENCODING 8721
SWIDTH 437 0
DWIDTH 7 0
BBX 5 7 1 0
BITMAP
F8
C8
60
30
60
C8
F8
ENDCHAR
STARTCHAR 2212
ENCODING 8722
SWIDTH 500 0
DWIDTH 8 0
BBX 6 1 1 3
BITMAP
FC
ENDCHAR
STARTCHAR 2213
ENCODING 8723
SWIDTH 562 0
DWIDTH 9 0
BBX 7 7 1 0
BITMAP
FE
00
10
10
FE
10
10
ENDCHAR
STARTCHAR 2214
ENCODING 8724
SWIDTH 562 0
DWIDTH 9 0
BBX 7 7 1 0
BITMAP
10
00
10
10
FE
10
10
ENDCHAR
STARTCHAR 2215
ENCODING 8725
SWIDTH 500 0
DWIDTH 8 0
BBX 6 10 1 -1
BITMAP
04
08
08
10
10
20
20
40
40
80
ENDCHAR
STARTCHAR 2216
ENCODING 8726
SWIDTH 500 0
DWIDTH 8 0
BBX 6 10 1 -1
BITMAP
80
40
40
20
20
10
10
08
08
04
ENDCHAR
STARTCHAR 2217
ENCODING 8727
SWIDTH 562 0
DWIDTH 9 0
BBX 7 7 1 0
BITMAP
10
92
54
38
54
92
10
ENDCHAR
STARTCHAR 2218
ENCODING 8728
SWIDTH 500 0
DWIDTH 8 0
BBX 5 5 2 2
BITMAP
70
88
88
88
70
ENDCHAR
STARTCHAR 2219
ENCODING 8729
SWIDTH 375 0
DWIDTH 6 0
BBX 2 2 3 3
BITMAP
C0
C0
ENDCHAR
STARTCHAR 221A
ENCODING 8730
SWIDTH 625 0
DWIDTH 10 0
BBX 8 8 1 -1
BITMAP
0F
08
08
08
E8
28
28
10
ENDCHAR
STARTCHAR 221B
ENCODING 8731
SWIDTH 625 0
DWIDTH 10 0
BBX 8 10 1 -1
BITMAP
E0
20
EF
28
E8
08
E8
28
28
10
ENDCHAR
STARTCHAR 221C
ENCODING 8732
SWIDTH 625 0
DWIDTH 10 0
BBX 8 10 1 -1
BITMAP
A0
A0
EF
28
28
08
E8
28
28
10
ENDCHAR
STARTCHAR 221D
ENCODING 8733
SWIDTH 625 0
DWIDTH 10 0
BBX 8 4 1 1
BITMAP
77
88
88
77
ENDCHAR
STARTCHAR 221E
ENCODING 8734
SWIDTH 687 0
DWIDTH 11 0
BBX 9 4 1 1
BITMAP
7700
8880
8880
7700
ENDCHAR
STARTCHAR 221F
ENCODING 8735
SWIDTH 625 0
DWIDTH 10 0
BBX 8 7 1 0
BITMAP
80
80
80
80
80
80
FF
ENDCHAR
STARTCHAR 2220
ENCODING 8736
SWIDTH 562 0
DWIDTH 9 0
BBX 7 7 1 0
BITMAP
02
04
08
10
20
40
FE
ENDCHAR
STARTCHAR 2221
ENCODING 8737
SWIDTH 562 0
DWIDTH 9 0
BBX 7 8 1 -1
BITMAP
02
04
28
10
28
48
FE
10
ENDCHAR
STARTCHAR 2222
ENCODING 8738
SWIDTH 375 0
DWIDTH 6 0
BBX 4 7 1 0
BITMAP
10
20
60
A0
60
20
10
ENDCHAR
STARTCHAR 2223
ENCODING 8739
SWIDTH 312 0
DWIDTH 5 0
BBX 1 9 3 -1
BITMAP
80
80
80
80
80
80
80
80
80
ENDCHAR
STARTCHAR 2224
ENCODING 8740
SWIDTH 437 0
DWIDTH 7 0
BBX 5 9 1 -1
BITMAP
20
20
20
28
30
60
A0
20
20
ENDCHAR
STARTCHAR 2225
ENCODING 8741
SWIDTH 437 0
DWIDTH 7 0
BBX 3 9 3 -1
BITMAP
A0
A0
A0
A0
A0
A0
A0
A0
A0
ENDCHAR
STARTCHAR 2226
ENCODING 8742
SWIDTH 562 0
DWIDTH 9 0
BBX 7 9 1 -1
BITMAP
28
28
2A
2C
38
68
A8
28
28
ENDCHAR
STARTCHAR 2227
ENCODING 8743
SWIDTH 562 0
DWIDTH 9 0
BBX 7 8 1 0
BITMAP
10
10
28
28
44
44
82
82
ENDCHAR
STARTCHAR 2228
ENCODING 8744
SWIDTH 562 0
DWIDTH 9 0
BBX 7 8 1 0
BITMAP
82
82
44
44
28
28
10
10
ENDCHAR
STARTCHAR 2229
ENCODING 8745
SWIDTH 562 0
DWIDTH 9 0
BBX 6 7 2 0
BITMAP
78
CC
CC
CC
CC
CC
CC
ENDCHAR
STARTCHAR 222A
ENCODING 8746
SWIDTH 500 0
DWIDTH 8 0
BBX 6 7 1 0
BITMAP
CC
CC
CC
CC
CC
CC
78
ENDCHAR
STARTCHAR 222B
ENCODING 8747
SWIDTH 375 0
DWIDTH 6 0
BBX 3 9 2 -1
BITMAP
20
40
40
40
40
40
40
40
80
ENDCHAR
STARTCHAR 222C
ENCODING 8748
SWIDTH 437 0
DWIDTH 7 0
BBX 5 9 1 -1
BITMAP
28
50
50
50
50
50
50
50
A0
ENDCHAR
STARTCHAR 222D
ENCODING 8749
SWIDTH 562 0
DWIDTH 9 0
BBX 7 9 1 -1
BITMAP
2A
54
54
54
54
54
54
54
A8
ENDCHAR
STARTCHAR 222E
ENCODING 8750
SWIDTH 437 0
DWIDTH 7 0
BBX 5 9 1 -1
BITMAP
10
20
70
A8
A8
70
20
20
40
ENDCHAR
STARTCHAR 222F
ENCODING 8751
SWIDTH 500 0
DWIDTH 8 0
BBX 7 9 0 -1
BITMAP
14
28
7C
AA
AA
7C
28
28
50
ENDCHAR
STARTCHAR 2231
ENCODING 8753
SWIDTH 500 0
DWIDTH 8 0
BBX 6 9 1 -1
BITMAP
10
20
20
78
A8
3C
28
20
40
ENDCHAR
STARTCHAR 2232
ENCODING 8754
SWIDTH 500 0
DWIDTH 8 0
BBX 6 9 1 -1
BITMAP
10
20
20
78
A8
BC
A8
70
40
ENDCHAR
STARTCHAR 2233
ENCODING 8755
SWIDTH 500 0
DWIDTH 8 0
BBX 6 9 1 -1
BITMAP
10
20
20
78
A8
BC
A8
70
40
ENDCHAR
STARTCHAR 2234
ENCODING 8756
SWIDTH 562 0
DWIDTH 9 0
BBX 7 6 1 0
BITMAP
10
00
00
00
00
82
ENDCHAR
STARTCHAR 2235
ENCODING 8757
SWIDTH 562 0
DWIDTH 9 0
BBX 7 6 1 0
BITMAP
82
00
00
00
00
10
ENDCHAR
STARTCHAR 2236
ENCODING 8758
SWIDTH 312 0
DWIDTH 5 0
BBX 1 7 3 0
BITMAP
80
00
00
00
00
00
80
ENDCHAR
STARTCHAR 2237
ENCODING 8759
SWIDTH 500 0
DWIDTH 8 0
BBX 6 7 1 0
BITMAP
84
00
00
00
00
00
84
ENDCHAR
STARTCHAR 2238
ENCODING 8760
SWIDTH 562 0
DWIDTH 9 0
BBX 7 4 1 3
BITMAP
10
00
00
FE
ENDCHAR
STARTCHAR 2239
ENCODING 8761
SWIDTH 687 0
DWIDTH 11 0
BBX 9 5 1 1
BITMAP
0080
0000
FE00
0000
0080
ENDCHAR
STARTCHAR 223A
ENCODING 8762
SWIDTH 562 0
DWIDTH 9 0
BBX 7 6 1 1
BITMAP
82
00
00
FE
00
82
ENDCHAR
STARTCHAR 223B
ENCODING 8763
SWIDTH 625 0
DWIDTH 10 0
BBX 8 8 1 0
BITMAP
18
18
00
71
8E
00
18
18
ENDCHAR
STARTCHAR 223C
ENCODING 8764
SWIDTH 625 0
DWIDTH 10 0
BBX 8 2 1 3
BITMAP
71
8E
ENDCHAR
STARTCHAR 223D
ENCODING 8765
SWIDTH 625 0
DWIDTH 10 0
BBX 8 2 1 3
BITMAP
8E
71
ENDCHAR
STARTCHAR 223E
ENCODING 8766
SWIDTH 687 0
DWIDTH 11 0
BBX 9 4 1 2
BITMAP
6300
9080
8880
6700
ENDCHAR
STARTCHAR 223F
ENCODING 8767
SWIDTH 687 0
DWIDTH 11 0
BBX 9 5 1 2
BITMAP
7000
8800
8880
0880
0700
ENDCHAR
STARTCHAR 2240
ENCODING 8768
SWIDTH 375 0
DWIDTH 6 0
BBX 2 8 3 0
BITMAP
80
40
40
40
80
80
80
40
ENDCHAR
STARTCHAR 2241
ENCODING 8769
SWIDTH 625 0
DWIDTH 10 0
BBX 8 5 1 1
BITMAP
04
79
8E
10
20
ENDCHAR
STARTCHAR 2242
ENCODING 8770
SWIDTH 625 0
DWIDTH 10 0
BBX 8 4 1 2
BITMAP
FF
00
71
8E
ENDCHAR
STARTCHAR 2243
ENCODING 8771
SWIDTH 625 0
DWIDTH 10 0
BBX 8 4 1 1
BITMAP
71
8E
00
FF
ENDCHAR
STARTCHAR 2244
ENCODING 8772
SWIDTH 625 0
DWIDTH 10 0
BBX 8 6 1 0
BITMAP
08
71
9E
20
FF
40
ENDCHAR
STARTCHAR 2245
ENCODING 8773
SWIDTH 625 0
DWIDTH 10 0
BBX 8 6 1 1
BITMAP
71
8E
00
FF
00
FF
ENDCHAR
STARTCHAR 2246
ENCODING 8774
SWIDTH 625 0
DWIDTH 10 0
BBX 8 7 1 0
BITMAP
71
8E
08
FF
10
FF
20
ENDCHAR
STARTCHAR 2247
ENCODING 8775
SWIDTH 625 0
DWIDTH 10 0
BBX 8 8 1 0
BITMAP
02
75
8E
08
FF
10
FF
20
ENDCHAR
STARTCHAR 2248
ENCODING 8776
SWIDTH 500 0
DWIDTH 8 0
BBX 6 5 1 0
BITMAP
6C
D8
00
6C
D8
ENDCHAR
STARTCHAR 2249
ENCODING 8777
SWIDTH 625 0
DWIDTH 10 0
BBX 8 5 1 1
BITMAP
71
8E
00
71
8E
ENDCHAR
STARTCHAR 224A
ENCODING 8778
SWIDTH 625 0
DWIDTH 10 0
BBX 8 7 1 1
BITMAP
71
8E
00
71
8E
00
FF
ENDCHAR
STARTCHAR 224B
ENCODING 8779
SWIDTH 625 0
DWIDTH 10 0
BBX 8 8 1 0
BITMAP
71
8E
00
71
8E
00
71
8E
ENDCHAR
STARTCHAR 224C
ENCODING 8780
SWIDTH 562 0
DWIDTH 9 0
BBX 7 7 1 0
BITMAP
64
92
4C
00
FE
00
FE
ENDCHAR
STARTCHAR 224D
ENCODING 8781
SWIDTH 562 0
DWIDTH 9 0
BBX 7 5 1 1
BITMAP
82
7C
00
7C
82
ENDCHAR
STARTCHAR 224E
ENCODING 8782
SWIDTH 625 0
DWIDTH 10 0
BBX 8 7 1 0
BITMAP
18
24
E7
00
E7
24
18
ENDCHAR
STARTCHAR 224F
ENCODING 8783
SWIDTH 625 0
DWIDTH 10 0
BBX 8 5 1 2
BITMAP
18
24
E7
00
FF
ENDCHAR
STARTCHAR 2250
ENCODING 8784
SWIDTH 625 0
DWIDTH 10 0
BBX 8 6 1 2
BITMAP
18
18
00
FF
00
FF
ENDCHAR
STARTCHAR 2251
ENCODING 8785
SWIDTH 625 0
DWIDTH 10 0
BBX 8 9 1 -1
BITMAP
18
18
00
FF
00
FF
00
18
18
ENDCHAR
STARTCHAR 2252
ENCODING 8786
SWIDTH 625 0
DWIDTH 10 0
BBX 8 8 1 0
BITMAP
80
00
00
FF
00
FF
00
01
ENDCHAR
STARTCHAR 2253
ENCODING 8787
SWIDTH 625 0
DWIDTH 10 0
BBX 8 8 1 0
BITMAP
01
00
00
FF
00
FF
00
80
ENDCHAR
STARTCHAR 2254
ENCODING 8788
SWIDTH 625 0
DWIDTH 10 0
BBX 8 3 1 2
BITMAP
BF
00
BF
ENDCHAR
STARTCHAR 2255
ENCODING 8789
SWIDTH 625 0
DWIDTH 10 0
BBX 8 3 1 2
BITMAP
FD
00
FD
ENDCHAR
STARTCHAR 2256
ENCODING 8790
SWIDTH 625 0
DWIDTH 10 0
BBX 8 3 1 2
BITMAP
FF
28
FF
ENDCHAR
STARTCHAR 2257
ENCODING 8791
SWIDTH 625 0
DWIDTH 10 0
BBX 8 7 1 2
BITMAP
38
28
38
00
FF
00
FF
ENDCHAR
STARTCHAR 2258
ENCODING 8792
SWIDTH 625 0
DWIDTH 10 0
BBX 8 6 1 2
BITMAP
3C
42
00
FF
00
FF
ENDCHAR
STARTCHAR 2259
ENCODING 8793
SWIDTH 625 0
DWIDTH 10 0
BBX 8 7 1 2
BITMAP
10
28
44
00
FF
00
FF
ENDCHAR
STARTCHAR 225A
ENCODING 8794
SWIDTH 625 0
DWIDTH 10 0
BBX 8 7 1 2
BITMAP
44
28
10
00
FF
00
FF
ENDCHAR
STARTCHAR 225B
ENCODING 8795
SWIDTH 625 0
DWIDTH 10 0
BBX 8 8 1 2
BITMAP
10
7C
38
28
00
FF
00
FF
ENDCHAR
STARTCHAR 225C
ENCODING 8796
SWIDTH 625 0
DWIDTH 10 0
BBX 8 7 1 2
BITMAP
10
28
7C
00
FF
00
FF
ENDCHAR
STARTCHAR 225D
ENCODING 8797
SWIDTH 625 0
DWIDTH 10 0
BBX 8 10 1 2
BITMAP
01
22
7F
B6
B2
7E
00
FF
00
FF
ENDCHAR
STARTCHAR 225E
ENCODING 8798
SWIDTH 625 0
DWIDTH 10 0
BBX 8 7 1 2
BITMAP
78
54
54
00
FF
00
FF
ENDCHAR
STARTCHAR 225F
ENCODING 8799
SWIDTH 625 0
DWIDTH 10 0
BBX 8 10 1 2
BITMAP
18
24
04
08
00
08
00
FF
00
FF
ENDCHAR
STARTCHAR 2260
ENCODING 8800
SWIDTH 625 0
DWIDTH 10 0
BBX 8 5 1 2
BITMAP
0C
FF
18
FF
30
ENDCHAR
STARTCHAR 2261
ENCODING 8801
SWIDTH 500 0
DWIDTH 8 0
BBX 6 5 1 1
BITMAP
FC
00
FC
00
FC
ENDCHAR
STARTCHAR 2262
ENCODING 8802
SWIDTH 500 0
DWIDTH 8 0
BBX 6 9 1 -1
BITMAP
08
10
FC
20
FC
20
FC
40
40
ENDCHAR
STARTCHAR 2263
ENCODING 8803
SWIDTH 500 0
DWIDTH 8 0
BBX 6 7 1 1
BITMAP
FC
00
FC
00
FC
00
FC
ENDCHAR
STARTCHAR 2264
ENCODING 8804
SWIDTH 375 0
DWIDTH 6 0
BBX 4 8 1 0
BITMAP
10
20
40
80
40
20
10
F0
ENDCHAR
STARTCHAR 2265
ENCODING 8805
SWIDTH 375 0
DWIDTH 6 0
BBX 4 7 1 0
BITMAP
80
40
20
10
20
40
F0
ENDCHAR
STARTCHAR 2266
ENCODING 8806
SWIDTH 375 0
DWIDTH 6 0
BBX 4 8 1 0
BITMAP
10
20
40
80
40
F0
10
F0
ENDCHAR
STARTCHAR 2267
ENCODING 8807
SWIDTH 375 0
DWIDTH 6 0
BBX 4 8 1 0
BITMAP
80
40
20
10
20
F0
40
F0
ENDCHAR
STARTCHAR 2269
ENCODING 8809
SWIDTH 375 0
DWIDTH 6 0
BBX 4 9 1 -1
BITMAP
80
40
20
10
30
F0
40
F0
40
ENDCHAR
STARTCHAR 226A
ENCODING 8810
SWIDTH 562 0
DWIDTH 9 0
BBX 7 7 1 0
BITMAP
12
24
48
90
48
24
12
ENDCHAR
STARTCHAR 226B
ENCODING 8811
SWIDTH 562 0
DWIDTH 9 0
BBX 7 7 1 0
BITMAP
90
48
24
12
24
48
90
ENDCHAR
STARTCHAR 226C
ENCODING 8812
SWIDTH 500 0
DWIDTH 8 0
BBX 5 12 2 -3
BITMAP
98
F0
60
60
E0
90
90
D0
50
70
E0
90
ENDCHAR
STARTCHAR 226E
ENCODING 8814
SWIDTH 562 0
DWIDTH 9 0
BBX 7 7 1 0
BITMAP
0E
18
70
90
60
38
26
ENDCHAR
STARTCHAR 226F
ENCODING 8815
SWIDTH 625 0
DWIDTH 10 0
BBX 8 7 1 0
BITMAP
C2
34
0C
0B
0C
30
D0
ENDCHAR
STARTCHAR 2270
ENCODING 8816
SWIDTH 375 0
DWIDTH 6 0
BBX 4 9 1 -1
BITMAP
50
60
40
C0
40
60
50
F0
40
ENDCHAR
STARTCHAR 2271
ENCODING 8817
SWIDTH 375 0
DWIDTH 6 0
BBX 4 9 1 -1
BITMAP
A0
60
20
30
20
F0
20
F0
20
ENDCHAR
STARTCHAR 2272
ENCODING 8818
SWIDTH 500 0
DWIDTH 8 0
BBX 6 9 1 0
BITMAP
10
20
40
80
40
20
10
64
98
ENDCHAR
STARTCHAR 2273
ENCODING 8819
SWIDTH 500 0
DWIDTH 8 0
BBX 6 9 1 0
BITMAP
80
40
20
10
20
40
80
64
98
ENDCHAR
STARTCHAR 2274
ENCODING 8820
SWIDTH 500 0
DWIDTH 8 0
BBX 6 10 1 -1
BITMAP
18
28
48
88
48
28
18
6C
98
08
ENDCHAR
STARTCHAR 2275
ENCODING 8821
SWIDTH 500 0
DWIDTH 8 0
BBX 6 10 1 -1
BITMAP
90
50
30
18
30
50
90
74
98
10
ENDCHAR
STARTCHAR 2276
ENCODING 8822
SWIDTH 500 0
DWIDTH 8 0
BBX 6 13 1 -3
BITMAP
04
18
60
80
60
18
84
60
18
04
18
60
80
ENDCHAR
STARTCHAR 2277
ENCODING 8823
SWIDTH 500 0
DWIDTH 8 0
BBX 6 13 1 -3
BITMAP
80
60
18
04
18
60
84
18
60
80
60
18
04
ENDCHAR
STARTCHAR 2278
ENCODING 8824
SWIDTH 500 0
DWIDTH 8 0
BBX 6 13 1 -3
BITMAP
14
18
70
90
70
18
94
70
18
14
18
70
90
ENDCHAR
STARTCHAR 2279
ENCODING 8825
SWIDTH 500 0
DWIDTH 8 0
BBX 6 13 1 -3
BITMAP
90
70
18
14
18
70
94
18
70
90
70
18
14
ENDCHAR
STARTCHAR 227A
ENCODING 8826
SWIDTH 500 0
DWIDTH 8 0
BBX 6 9 1 0
BITMAP
04
04
08
10
E0
10
08
04
04
ENDCHAR
STARTCHAR 227B
ENCODING 8827
SWIDTH 500 0
DWIDTH 8 0
BBX 6 9 1 0
BITMAP
80
80
40
20
1C
20
40
80
80
ENDCHAR
STARTCHAR 227C
ENCODING 8828
SWIDTH 500 0
DWIDTH 8 0
BBX 6 9 1 0
BITMAP
04
04
08
10
E0
10
C8
24
14
ENDCHAR
STARTCHAR 227E
ENCODING 8830
SWIDTH 500 0
DWIDTH 8 0
BBX 6 9 1 0
BITMAP
04
04
08
10
E0
10
08
64
9C
ENDCHAR
STARTCHAR 227F
ENCODING 8831
SWIDTH 562 0
DWIDTH 9 0
BBX 7 9 1 0
BITMAP
80
80
40
20
1C
20
40
B2
CC
ENDCHAR
STARTCHAR 2280
ENCODING 8832
SWIDTH 500 0
DWIDTH 8 0
BBX 6 9 1 0
BITMAP
24
24
28
30
E0
30
28
24
24
ENDCHAR
STARTCHAR 2281
ENCODING 8833
SWIDTH 500 0
DWIDTH 8 0
BBX 6 9 1 0
BITMAP
90
90
50
30
1C
30
50
90
90
ENDCHAR
STARTCHAR 2282
ENCODING 8834
SWIDTH 562 0
DWIDTH 9 0
BBX 7 5 1 1
BITMAP
7E
80
80
80
7E
ENDCHAR
STARTCHAR 2283
ENCODING 8835
SWIDTH 562 0
DWIDTH 9 0
BBX 7 5 1 1
BITMAP
FC
02
02
02
FC
ENDCHAR
STARTCHAR 2284
ENCODING 8836
SWIDTH 562 0
DWIDTH 9 0
BBX 7 8 1 0
BITMAP
04
0C
7E
98
90
B0
7E
60
ENDCHAR
STARTCHAR 2285
ENCODING 8837
SWIDTH 562 0
DWIDTH 9 0
BBX 7 8 1 0
BITMAP
08
18
FC
22
22
42
FC
80
ENDCHAR
STARTCHAR 2286
ENCODING 8838
SWIDTH 562 0
DWIDTH 9 0
BBX 7 7 1 0
BITMAP
7E
80
80
80
7E
00
FE
ENDCHAR
STARTCHAR 2287
ENCODING 8839
SWIDTH 562 0
DWIDTH 9 0
BBX 7 7 1 0
BITMAP
FC
02
02
02
FC
00
FE
ENDCHAR
STARTCHAR 2288
ENCODING 8840
SWIDTH 562 0
DWIDTH 9 0
BBX 8 9 0 -1
BITMAP
04
3F
48
50
60
3F
40
7F
80
ENDCHAR
STARTCHAR 2289
ENCODING 8841
SWIDTH 562 0
DWIDTH 9 0
BBX 7 9 1 -1
BITMAP
08
FC
12
12
22
FC
40
FE
80
ENDCHAR
STARTCHAR 228A
ENCODING 8842
SWIDTH 562 0
DWIDTH 9 0
BBX 7 8 1 -1
BITMAP
7E
80
80
80
7E
10
FE
20
ENDCHAR
STARTCHAR 228B
ENCODING 8843
SWIDTH 562 0
DWIDTH 9 0
BBX 7 8 1 -1
BITMAP
FC
02
02
02
FC
10
FE
20
ENDCHAR
STARTCHAR 228C
ENCODING 8844
SWIDTH 562 0
DWIDTH 9 0
BBX 7 7 1 0
BITMAP
82
82
92
BE
92
82
7C
ENDCHAR
STARTCHAR 228D
ENCODING 8845
SWIDTH 562 0
DWIDTH 9 0
BBX 7 7 1 0
BITMAP
82
82
82
92
82
82
7C
ENDCHAR
STARTCHAR 228E
ENCODING 8846
SWIDTH 562 0
DWIDTH 9 0
BBX 7 7 1 0
BITMAP
82
82
92
BA
92
82
7C
ENDCHAR
STARTCHAR 228F
ENCODING 8847
SWIDTH 562 0
DWIDTH 9 0
BBX 6 7 2 0
BITMAP
FC
80
80
80
80
80
FC
ENDCHAR
STARTCHAR 2290
ENCODING 8848
SWIDTH 562 0
DWIDTH 9 0
BBX 7 7 1 0
BITMAP
FE
02
02
02
02
02
FE
ENDCHAR
STARTCHAR 2291
ENCODING 8849
SWIDTH 562 0
DWIDTH 9 0
BBX 7 6 1 1
BITMAP
FE
80
80
FE
00
FE
ENDCHAR
STARTCHAR 2292
ENCODING 8850
SWIDTH 562 0
DWIDTH 9 0
BBX 7 6 1 1
BITMAP
FE
02
02
FE
00
FE
ENDCHAR
STARTCHAR 2293
ENCODING 8851
SWIDTH 562 0
DWIDTH 9 0
BBX 6 7 2 0
BITMAP
FC
84
84
84
84
84
84
ENDCHAR
STARTCHAR 2294
ENCODING 8852
SWIDTH 562 0
DWIDTH 9 0
BBX 6 7 2 0
BITMAP
84
84
84
84
84
84
FC
ENDCHAR
STARTCHAR 2295
ENCODING 8853
SWIDTH 562 0
DWIDTH 9 0
BBX 7 7 1 0
BITMAP
7C
92
92
FE
92
92
7C
ENDCHAR
STARTCHAR 2296
ENCODING 8854
SWIDTH 562 0
DWIDTH 9 0
BBX 7 7 1 0
BITMAP
7C
82
82
FE
82
82
7C
ENDCHAR
STARTCHAR 2297
ENCODING 8855
SWIDTH 562 0
DWIDTH 9 0
BBX 7 7 1 0
BITMAP
7C
C6
AA
92
AA
C6
7C
ENDCHAR
STARTCHAR 2298
ENCODING 8856
SWIDTH 562 0
DWIDTH 9 0
BBX 7 7 1 0
BITMAP
7C
86
8A
92
A2
C2
7C
ENDCHAR
STARTCHAR 2299
ENCODING 8857
SWIDTH 562 0
DWIDTH 9 0
BBX 7 7 1 0
BITMAP
7C
82
82
92
82
82
7C
ENDCHAR
STARTCHAR 229A
ENCODING 8858
SWIDTH 562 0
DWIDTH 9 0
BBX 7 7 1 0
BITMAP
7C
82
BA
AA
BA
82
7C
ENDCHAR
STARTCHAR 229B
ENCODING 8859
SWIDTH 562 0
DWIDTH 9 0
BBX 7 7 1 0
BITMAP
7C
92
D6
BA
D6
92
7C
ENDCHAR
STARTCHAR 229C
ENCODING 8860
SWIDTH 562 0
DWIDTH 9 0
BBX 7 7 1 0
BITMAP
7C
82
FE
82
FE
82
7C
ENDCHAR
STARTCHAR 229D
ENCODING 8861
SWIDTH 562 0
DWIDTH 9 0
BBX 7 7 1 0
BITMAP
7C
82
82
BA
82
82
7C
ENDCHAR
STARTCHAR 229E
ENCODING 8862
SWIDTH 562 0
DWIDTH 9 0
BBX 7 7 1 0
BITMAP
FE
92
92
FE
92
92
FE
ENDCHAR
STARTCHAR 229F
ENCODING 8863
SWIDTH 562 0
DWIDTH 9 0
BBX 7 7 1 0
BITMAP
FE
82
82
FE
82
82
FE
ENDCHAR
STARTCHAR 22A0
ENCODING 8864
SWIDTH 562 0
DWIDTH 9 0
BBX 7 7 1 0
BITMAP
FE
C6
AA
92
AA
C6
FE
ENDCHAR
STARTCHAR 22A1
ENCODING 8865
SWIDTH 562 0
DWIDTH 9 0
BBX 7 7 1 0
BITMAP
FE
82
82
92
82
82
FE
ENDCHAR
STARTCHAR 22A2
ENCODING 8866
SWIDTH 500 0
DWIDTH 8 0
BBX 5 5 2 1
BITMAP
80
80
F8
80
80
ENDCHAR
STARTCHAR 22A3
ENCODING 8867
SWIDTH 500 0
DWIDTH 8 0
BBX 5 5 2 1
BITMAP
08
08
F8
08
08
ENDCHAR
STARTCHAR 22A4
ENCODING 8868
SWIDTH 437 0
DWIDTH 7 0
BBX 5 6 1 1
BITMAP
F8
20
20
20
20
20
ENDCHAR
STARTCHAR 22A5
ENCODING 8869
SWIDTH 562 0
DWIDTH 9 0
BBX 7 6 1 1
BITMAP
10
10
10
10
10
FE
ENDCHAR
STARTCHAR 22A6
ENCODING 8870
SWIDTH 437 0
DWIDTH 7 0
BBX 4 8 2 0
BITMAP
80
80
80
F0
80
80
80
80
ENDCHAR
STARTCHAR 22A7
ENCODING 8871
SWIDTH 437 0
DWIDTH 7 0
BBX 4 8 2 0
BITMAP
80
80
F0
80
80
F0
80
80
ENDCHAR
STARTCHAR 22A8
ENCODING 8872
SWIDTH 625 0
DWIDTH 10 0
BBX 7 8 2 0
BITMAP
80
80
FE
80
80
FE
80
80
ENDCHAR
STARTCHAR 22A9
ENCODING 8873
SWIDTH 625 0
DWIDTH 10 0
BBX 8 7 1 0
BITMAP
A0
A0
A0
BF
A0
A0
A0
ENDCHAR
STARTCHAR 22AA
ENCODING 8874
SWIDTH 687 0
DWIDTH 11 0
BBX 8 8 2 0
BITMAP
A8
A8
A8
AF
A8
A8
A8
A8
ENDCHAR
STARTCHAR 22AB
ENCODING 8875
SWIDTH 562 0
DWIDTH 9 0
BBX 6 8 2 0
BITMAP
A0
A0
A0
BC
A0
BC
A0
A0
ENDCHAR
STARTCHAR 22AC
ENCODING 8876
SWIDTH 625 0
DWIDTH 10 0
BBX 7 8 2 0
BITMAP
80
84
88
FE
90
A0
80
80
ENDCHAR
STARTCHAR 22AD
ENCODING 8877
SWIDTH 562 0
DWIDTH 9 0
BBX 6 8 2 0
BITMAP
80
84
FC
88
90
FC
A0
80
ENDCHAR
STARTCHAR 22AE
ENCODING 8878
SWIDTH 625 0
DWIDTH 10 0
BBX 8 8 1 0
BITMAP
A0
A1
A2
BF
A4
A8
A0
A0
ENDCHAR
STARTCHAR 22AF
ENCODING 8879
SWIDTH 687 0
DWIDTH 11 0
BBX 8 8 2 0
BITMAP
A0
A0
A2
BF
A4
BF
A8
A0
ENDCHAR
STARTCHAR 22B0
ENCODING 8880
SWIDTH 437 0
DWIDTH 7 0
BBX 5 11 1 -1
BITMAP
10
08
18
20
40
80
40
20
18
08
10
ENDCHAR
STARTCHAR 22B1
ENCODING 8881
SWIDTH 437 0
DWIDTH 7 0
BBX 5 11 1 -1
BITMAP
C0
80
40
20
10
08
10
20
40
80
C0
ENDCHAR
STARTCHAR 22B2
ENCODING 8882
SWIDTH 562 0
DWIDTH 9 0
BBX 7 7 1 1
BITMAP
80
E0
98
86
98
E0
80
ENDCHAR
STARTCHAR 22B3
ENCODING 8883
SWIDTH 562 0
DWIDTH 9 0
BBX 7 7 1 1
BITMAP
02
0E
32
C2
32
0E
02
ENDCHAR
STARTCHAR 22B4
ENCODING 8884
SWIDTH 562 0
DWIDTH 9 0
BBX 7 8 1 0
BITMAP
02
0E
32
C2
32
0E
00
FE
ENDCHAR
STARTCHAR 22B5
ENCODING 8885
SWIDTH 562 0
DWIDTH 9 0
BBX 7 8 1 0
BITMAP
80
E0
98
86
98
E0
00
FE
ENDCHAR
STARTCHAR 22B6
ENCODING 8886
SWIDTH 687 0
DWIDTH 11 0
BBX 9 3 1 3
BITMAP
E380
BF80
E380
ENDCHAR
STARTCHAR 22B8
ENCODING 8888
SWIDTH 562 0
DWIDTH 9 0
BBX 7 5 1 2
BITMAP
0E
0A
FA
0A
0E
ENDCHAR
STARTCHAR 22B9
ENCODING 8889
SWIDTH 687 0
DWIDTH 11 0
BBX 9 9 1 0
BITMAP
0800
0800
0800
0000
E380
0000
0800
0800
0800
ENDCHAR
STARTCHAR 22BA
ENCODING 8890
SWIDTH 562 0
DWIDTH 9 0
BBX 7 6 1 -1
BITMAP
FE
10
10
10
10
10
ENDCHAR
STARTCHAR 22BB
ENCODING 8891
SWIDTH 562 0
DWIDTH 9 0
BBX 7 8 1 0
BITMAP
44
44
28
28
10
10
00
FE
ENDCHAR
STARTCHAR 22BC
ENCODING 8892
SWIDTH 562 0
DWIDTH 9 0
BBX 7 8 1 0
BITMAP
FE
00
10
10
28
28
44
44
ENDCHAR
STARTCHAR 22BD
ENCODING 8893
SWIDTH 562 0
DWIDTH 9 0
BBX 7 8 1 0
BITMAP
FE
00
44
44
28
28
10
10
ENDCHAR
STARTCHAR 22BE
ENCODING 8894
SWIDTH 625 0
DWIDTH 10 0
BBX 8 7 1 0
BITMAP
80
80
F0
88
88
88
FF
ENDCHAR
STARTCHAR 22BF
ENCODING 8895
SWIDTH 562 0
DWIDTH 9 0
BBX 7 7 1 0
BITMAP
02
06
0A
12
22
42
FE
ENDCHAR
STARTCHAR 22C0
ENCODING 8896
SWIDTH 625 0
DWIDTH 10 0
BBX 7 4 2 0
BITMAP
10
28
44
82
ENDCHAR
STARTCHAR 22C1
ENCODING 8897
SWIDTH 625 0
DWIDTH 10 0
BBX 7 4 2 0
BITMAP
82
44
28
10
ENDCHAR
STARTCHAR 22C2
ENCODING 8898
SWIDTH 625 0
DWIDTH 10 0
BBX 7 4 2 0
BITMAP
7C
82
82
82
ENDCHAR
STARTCHAR 22C3
ENCODING 8899
SWIDTH 625 0
DWIDTH 10 0
BBX 7 4 2 0
BITMAP
82
82
82
7C
ENDCHAR
STARTCHAR 22C4
ENCODING 8900
SWIDTH 562 0
DWIDTH 9 0
BBX 7 7 1 0
BITMAP
10
28
44
82
44
28
10
ENDCHAR
STARTCHAR 22C5
ENCODING 8901
SWIDTH 437 0
DWIDTH 7 0
BBX 3 3 3 3
BITMAP
E0
E0
E0
ENDCHAR
STARTCHAR 22C6
ENCODING 8902
SWIDTH 562 0
DWIDTH 9 0
BBX 6 5 2 3
BITMAP
20
30
FC
30
48
ENDCHAR
STARTCHAR 22C7
ENCODING 8903
SWIDTH 625 0
DWIDTH 10 0
BBX 7 7 2 0
BITMAP
92
44
28
FE
28
44
92
ENDCHAR
STARTCHAR 22C8
ENCODING 8904
SWIDTH 562 0
DWIDTH 9 0
BBX 7 7 1 0
BITMAP
82
C6
AA
92
AA
C6
82
ENDCHAR
STARTCHAR 22C9
ENCODING 8905
SWIDTH 562 0
DWIDTH 9 0
BBX 7 7 1 0
BITMAP
82
C4
A8
90
A8
C4
82
ENDCHAR
STARTCHAR 22CA
ENCODING 8906
SWIDTH 562 0
DWIDTH 9 0
BBX 7 7 1 0
BITMAP
82
46
2A
12
2A
46
82
ENDCHAR
STARTCHAR 22CB
ENCODING 8907
SWIDTH 687 0
DWIDTH 11 0
BBX 9 9 1 0
BITMAP
8000
4000
2000
1000
0800
1400
2200
4100
8080
ENDCHAR
STARTCHAR 22CC
ENCODING 8908
SWIDTH 687 0
DWIDTH 11 0
BBX 9 9 1 0
BITMAP
0080
0100
0200
0400
0800
1400
2200
4100
8080
ENDCHAR
STARTCHAR 22CD
ENCODING 8909
SWIDTH 625 0
DWIDTH 10 0
BBX 8 4 1 2
BITMAP
8E
71
00
FF
ENDCHAR
STARTCHAR 22CE
ENCODING 8910
SWIDTH 500 0
DWIDTH 8 0
BBX 5 6 2 0
BITMAP
88
50
50
20
20
20
ENDCHAR
STARTCHAR 22CF
ENCODING 8911
SWIDTH 500 0
DWIDTH 8 0
BBX 5 6 2 0
BITMAP
20
20
20
50
50
88
ENDCHAR
STARTCHAR 22D0
ENCODING 8912
SWIDTH 625 0
DWIDTH 10 0
BBX 8 8 1 0
BITMAP
3F
40
9F
A0
A0
9F
40
3F
ENDCHAR
STARTCHAR 22D1
ENCODING 8913
SWIDTH 625 0
DWIDTH 10 0
BBX 8 8 1 0
BITMAP
FC
02
F9
05
05
F9
02
FC
ENDCHAR
STARTCHAR 22D2
ENCODING 8914
SWIDTH 625 0
DWIDTH 10 0
BBX 8 7 1 0
BITMAP
A5
A5
A5
A5
99
42
3C
ENDCHAR
STARTCHAR 22D3
ENCODING 8915
SWIDTH 625 0
DWIDTH 10 0
BBX 8 9 1 0
BITMAP
3C
42
99
A5
A5
A5
A5
A5
A5
ENDCHAR
STARTCHAR 22D4
ENCODING 8916
SWIDTH 562 0
DWIDTH 9 0
BBX 7 8 1 0
BITMAP
10
10
7C
92
92
92
92
92
ENDCHAR
STARTCHAR 22D5
ENCODING 8917
SWIDTH 562 0
DWIDTH 9 0
BBX 7 7 1 1
BITMAP
28
28
FE
28
FE
28
28
ENDCHAR
STARTCHAR 22D6
ENCODING 8918
SWIDTH 437 0
DWIDTH 7 0
BBX 5 9 1 -1
BITMAP
08
10
20
40
88
40
20
10
08
ENDCHAR
STARTCHAR 22D7
ENCODING 8919
SWIDTH 437 0
DWIDTH 7 0
BBX 5 9 1 -1
BITMAP
80
40
20
10
88
10
20
40
80
ENDCHAR
STARTCHAR 22D8
ENCODING 8920
SWIDTH 750 0
DWIDTH 12 0
BBX 10 7 1 0
BITMAP
1240
2480
4900
9200
4900
2480
1240
ENDCHAR
STARTCHAR 22D9
ENCODING 8921
SWIDTH 750 0
DWIDTH 12 0
BBX 10 7 1 0
BITMAP
9200
4900
2480
1240
2480
4900
9200
ENDCHAR
STARTCHAR 22DA
ENCODING 8922
SWIDTH 500 0
DWIDTH 8 0
BBX 6 13 1 -3
BITMAP
0C
30
C0
30
0C
00
FC
00
C0
30
0C
30
C0
ENDCHAR
STARTCHAR 22DB
ENCODING 8923
SWIDTH 500 0
DWIDTH 8 0
BBX 6 13 1 -3
BITMAP
C0
30
0C
30
C0
00
FC
00
0C
30
C0
30
0C
ENDCHAR
STARTCHAR 22DC
ENCODING 8924
SWIDTH 625 0
DWIDTH 10 0
BBX 8 9 1 0
BITMAP
FF
00
03
0C
30
C0
30
0C
03
ENDCHAR
STARTCHAR 22DD
ENCODING 8925
SWIDTH 625 0
DWIDTH 10 0
BBX 8 9 1 0
BITMAP
FF
00
C0
30
0C
03
0C
30
C0
ENDCHAR
STARTCHAR 22DE
ENCODING 8926
SWIDTH 500 0
DWIDTH 8 0
BBX 6 9 1 0
BITMAP
14
14
E8
10
E0
10
08
04
04
ENDCHAR
STARTCHAR 22DF
ENCODING 8927
SWIDTH 500 0
DWIDTH 8 0
BBX 6 9 1 0
BITMAP
90
90
4C
20
1C
20
40
80
80
ENDCHAR
STARTCHAR 22E0
ENCODING 8928
SWIDTH 500 0
DWIDTH 8 0
BBX 6 10 1 -1
BITMAP
24
24
28
30
E0
30
28
24
F4
20
ENDCHAR
STARTCHAR 22E1
ENCODING 8929
SWIDTH 500 0
DWIDTH 8 0
BBX 6 10 1 -1
BITMAP
88
88
48
28
1C
28
48
88
BC
08
ENDCHAR
STARTCHAR 22E2
ENCODING 8930
SWIDTH 500 0
DWIDTH 8 0
BBX 6 9 1 0
BITMAP
20
FC
A0
A0
A0
FC
20
FC
20
ENDCHAR
STARTCHAR 22E3
ENCODING 8931
SWIDTH 500 0
DWIDTH 8 0
BBX 6 9 1 0
BITMAP
20
FC
24
24
24
FC
20
FC
20
ENDCHAR
STARTCHAR 22E4
ENCODING 8932
SWIDTH 500 0
DWIDTH 8 0
BBX 6 8 1 0
BITMAP
FC
80
80
A0
FC
20
FC
20
ENDCHAR
STARTCHAR 22E5
ENCODING 8933
SWIDTH 500 0
DWIDTH 8 0
BBX 6 8 1 0
BITMAP
FC
04
04
24
FC
20
FC
20
ENDCHAR
STARTCHAR 22E6
ENCODING 8934
SWIDTH 500 0
DWIDTH 8 0
BBX 6 10 1 -1
BITMAP
10
20
40
80
40
20
10
74
98
10
ENDCHAR
STARTCHAR 22E7
ENCODING 8935
SWIDTH 500 0
DWIDTH 8 0
BBX 6 10 1 -1
BITMAP
80
40
20
10
20
40
90
74
98
10
ENDCHAR
STARTCHAR 22E8
ENCODING 8936
SWIDTH 500 0
DWIDTH 8 0
BBX 6 10 1 -1
BITMAP
04
04
08
10
E0
10
28
64
BC
20
ENDCHAR
STARTCHAR 22E9
ENCODING 8937
SWIDTH 562 0
DWIDTH 9 0
BBX 7 10 1 -1
BITMAP
80
80
40
20
1C
20
48
BA
CC
08
ENDCHAR
STARTCHAR 22EA
ENCODING 8938
SWIDTH 500 0
DWIDTH 8 0
BBX 6 7 1 0
BITMAP
14
1C
74
94
74
1C
14
ENDCHAR
STARTCHAR 22EB
ENCODING 8939
SWIDTH 562 0
DWIDTH 9 0
BBX 7 7 1 0
BITMAP
90
F0
98
96
98
F0
90
ENDCHAR
STARTCHAR 22EC
ENCODING 8940
SWIDTH 562 0
DWIDTH 9 0
BBX 7 9 1 -1
BITMAP
12
1E
32
D2
32
1E
10
FE
10
ENDCHAR
STARTCHAR 22ED
ENCODING 8941
SWIDTH 562 0
DWIDTH 9 0
BBX 7 11 1 -1
BITMAP
02
84
E4
98
8E
98
E8
90
10
FE
20
ENDCHAR
STARTCHAR 22EE
ENCODING 8942
SWIDTH 375 0
DWIDTH 6 0
BBX 1 7 4 1
BITMAP
80
00
00
80
00
00
80
ENDCHAR
STARTCHAR 22EF
ENCODING 8943
SWIDTH 562 0
DWIDTH 9 0
BBX 7 1 1 4
BITMAP
92
ENDCHAR
STARTCHAR 22F0
ENCODING 8944
SWIDTH 562 0
DWIDTH 9 0
BBX 7 7 1 0
BITMAP
02
00
00
10
00
00
80
ENDCHAR
STARTCHAR 22F1
ENCODING 8945
SWIDTH 562 0
DWIDTH 9 0
BBX 7 7 1 0
BITMAP
80
00
00
10
00
00
02
ENDCHAR
STARTCHAR 2302
ENCODING 8962
SWIDTH 437 0
DWIDTH 7 0
BBX 5 5 1 1
BITMAP
20
50
88
88
F8
ENDCHAR
STARTCHAR 2310
ENCODING 8976
SWIDTH 500 0
DWIDTH 8 0
BBX 6 3 1 2
BITMAP
FC
80
80
ENDCHAR
STARTCHAR 2320
ENCODING 8992
SWIDTH 500 0
DWIDTH 8 0
BBX 4 8 3 0
BITMAP
60
90
80
80
80
80
80
80
ENDCHAR
STARTCHAR 2321
ENCODING 8993
SWIDTH 375 0
DWIDTH 6 0
BBX 4 8 1 0
BITMAP
10
10
10
10
10
10
90
60
ENDCHAR
STARTCHAR 2322
ENCODING 8994
SWIDTH 500 0
DWIDTH 8 0
BBX 6 2 1 3
BITMAP
78
84
ENDCHAR
STARTCHAR 2500
ENCODING 9472
SWIDTH 750 0
DWIDTH 12 0
BBX 11 1 0 5
BITMAP
FFE0
ENDCHAR
STARTCHAR 2502
ENCODING 9474
SWIDTH 312 0
DWIDTH 5 0
BBX 1 16 3 -4
BITMAP
80
80
80
80
80
80
80
80
80
80
80
80
80
80
80
80
ENDCHAR
STARTCHAR 250C
ENCODING 9484
SWIDTH 750 0
DWIDTH 12 0
BBX 6 10 5 -4
BITMAP
FC
80
80
80
80
80
80
80
80
80
ENDCHAR
STARTCHAR 2510
ENCODING 9488
SWIDTH 437 0
DWIDTH 7 0
BBX 6 10 0 -4
BITMAP
FC
04
04
04
04
04
04
04
04
04
ENDCHAR
STARTCHAR 2514
ENCODING 9492
SWIDTH 750 0
DWIDTH 12 0
BBX 6 8 5 4
BITMAP
80
80
80
80
80
80
80
FC
ENDCHAR
STARTCHAR 2518
ENCODING 9496
SWIDTH 437 0
DWIDTH 7 0
BBX 6 8 0 4
BITMAP
04
04
04
04
04
04
04
FC
ENDCHAR
STARTCHAR 251C
ENCODING 9500
SWIDTH 750 0
DWIDTH 12 0
BBX 6 16 5 -4
BITMAP
80
80
80
80
80
80
80
FC
80
80
80
80
80
80
80
80
ENDCHAR
STARTCHAR 2524
ENCODING 9508
SWIDTH 437 0
DWIDTH 7 0
BBX 6 16 0 -4
BITMAP
04
04
04
04
04
04
04
FC
04
04
04
04
04
04
04
04
ENDCHAR
STARTCHAR 252C
ENCODING 9516
SWIDTH 750 0
DWIDTH 12 0
BBX 11 9 0 -4
BITMAP
FFE0
0400
0400
0400
0400
0400
0400
0400
0400
ENDCHAR
STARTCHAR 2534
ENCODING 9524
SWIDTH 750 0
DWIDTH 12 0
BBX 11 7 0 5
BITMAP
0400
0400
0400
0400
0400
0400
FFE0
ENDCHAR
STARTCHAR 253C
ENCODING 9532
SWIDTH 750 0
DWIDTH 12 0
BBX 11 16 0 -4
BITMAP
0400
0400
0400
0400
0400
0400
FFE0
0400
0400
0400
0400
0400
0400
0400
0400
0400
ENDCHAR
STARTCHAR 2550
ENCODING 9552
SWIDTH 750 0
DWIDTH 12 0
BBX 11 4 0 3
BITMAP
FFE0
0000
0000
FFE0
ENDCHAR
STARTCHAR 2551
ENCODING 9553
SWIDTH 562 0
DWIDTH 9 0
BBX 5 16 3 -4
BITMAP
88
88
88
88
88
88
88
88
88
88
88
88
88
88
88
88
ENDCHAR
STARTCHAR 2552
ENCODING 9554
SWIDTH 750 0
DWIDTH 12 0
BBX 6 11 5 -4
BITMAP
FC
80
80
FC
80
80
80
80
80
80
80
ENDCHAR
STARTCHAR 2553
ENCODING 9555
SWIDTH 750 0
DWIDTH 12 0
BBX 8 9 3 -4
BITMAP
FF
90
90
90
90
90
90
90
90
ENDCHAR
STARTCHAR 2554
ENCODING 9556
SWIDTH 750 0
DWIDTH 12 0
BBX 8 11 3 -4
BITMAP
FF
80
80
9F
90
90
90
90
90
90
90
ENDCHAR
STARTCHAR 2555
ENCODING 9557
SWIDTH 437 0
DWIDTH 7 0
BBX 6 11 0 -4
BITMAP
FC
04
04
FC
04
04
04
04
04
04
04
ENDCHAR
STARTCHAR 2556
ENCODING 9558
SWIDTH 500 0
DWIDTH 8 0
BBX 7 10 0 -4
BITMAP
FE
12
12
12
12
12
12
12
12
12
ENDCHAR
STARTCHAR 2557
ENCODING 9559
SWIDTH 562 0
DWIDTH 9 0
BBX 8 11 0 -4
BITMAP
FF
01
01
F9
09
09
09
09
09
09
09
ENDCHAR
STARTCHAR 2558
ENCODING 9560
SWIDTH 750 0
DWIDTH 12 0
BBX 6 9 5 3
BITMAP
80
80
80
80
80
FC
80
80
FC
ENDCHAR
STARTCHAR 2559
ENCODING 9561
SWIDTH 750 0
DWIDTH 12 0
BBX 8 8 3 4
BITMAP
90
90
90
90
90
90
90
FF
ENDCHAR
STARTCHAR 255A
ENCODING 9562
SWIDTH 750 0
DWIDTH 12 0
BBX 8 9 3 3
BITMAP
90
90
90
90
90
9F
80
80
FF
ENDCHAR
STARTCHAR 255B
ENCODING 9563
SWIDTH 437 0
DWIDTH 7 0
BBX 6 9 0 3
BITMAP
04
04
04
04
04
FC
04
04
FC
ENDCHAR
STARTCHAR 255C
ENCODING 9564
SWIDTH 500 0
DWIDTH 8 0
BBX 7 8 0 4
BITMAP
12
12
12
12
12
12
12
FE
ENDCHAR
STARTCHAR 255D
ENCODING 9565
SWIDTH 500 0
DWIDTH 8 0
BBX 7 9 0 3
BITMAP
12
12
12
12
12
F2
02
02
FE
ENDCHAR
STARTCHAR 255E
ENCODING 9566
SWIDTH 750 0
DWIDTH 12 0
BBX 6 16 5 -4
BITMAP
80
80
80
80
80
FC
80
80
FC
80
80
80
80
80
80
80
ENDCHAR
STARTCHAR 255F
ENCODING 9567
SWIDTH 750 0
DWIDTH 12 0
BBX 8 16 3 -4
BITMAP
D8
D8
D8
D8
D8
D8
DF
DF
D8
D8
D8
D8
D8
D8
D8
D8
ENDCHAR
STARTCHAR 2560
ENCODING 9568
SWIDTH 750 0
DWIDTH 12 0
BBX 8 16 3 -4
BITMAP
D8
D8
D8
D8
D8
DF
C0
C0
DF
D8
D8
D8
D8
D8
D8
D8
ENDCHAR
STARTCHAR 2561
ENCODING 9569
SWIDTH 437 0
DWIDTH 7 0
BBX 6 16 0 -4
BITMAP
04
04
04
04
04
FC
04
04
FC
04
04
04
04
04
04
04
ENDCHAR
STARTCHAR 2562
ENCODING 9570
SWIDTH 562 0
DWIDTH 9 0
BBX 8 16 0 -4
BITMAP
1B
1B
1B
1B
1B
1B
FB
FB
1B
1B
1B
1B
1B
1B
1B
1B
ENDCHAR
STARTCHAR 2563
ENCODING 9571
SWIDTH 562 0
DWIDTH 9 0
BBX 8 16 0 -4
BITMAP
1B
1B
1B
1B
1B
FB
03
03
FB
1B
1B
1B
1B
1B
1B
1B
ENDCHAR
STARTCHAR 2564
ENCODING 9572
SWIDTH 750 0
DWIDTH 12 0
BBX 11 11 0 -4
BITMAP
FFE0
0000
0000
FFE0
0400
0400
0400
0400
0400
0400
0400
ENDCHAR
STARTCHAR 2565
ENCODING 9573
SWIDTH 750 0
DWIDTH 12 0
BBX 11 10 0 -4
BITMAP
FFE0
FFE0
1B00
1B00
1B00
1B00
1B00
1B00
1B00
1B00
ENDCHAR
STARTCHAR 2566
ENCODING 9574
SWIDTH 750 0
DWIDTH 12 0
BBX 11 11 0 -4
BITMAP
FFE0
0000
0000
FBE0
1B00
1B00
1B00
1B00
1B00
1B00
1B00
ENDCHAR
STARTCHAR 2567
ENCODING 9575
SWIDTH 750 0
DWIDTH 12 0
BBX 11 9 0 3
BITMAP
0400
0400
0400
0400
0400
FFE0
0000
0000
FFE0
ENDCHAR
STARTCHAR 2568
ENCODING 9576
SWIDTH 750 0
DWIDTH 12 0
BBX 11 8 0 4
BITMAP
1B00
1B00
1B00
1B00
1B00
1B00
FFE0
FFE0
ENDCHAR
STARTCHAR 2569
ENCODING 9577
SWIDTH 750 0
DWIDTH 12 0
BBX 11 9 0 3
BITMAP
1B00
1B00
1B00
1B00
1B00
FBE0
0000
0000
FFE0
ENDCHAR
ENDFONT
